<mxfile host="app.diagrams.net" agent="Mozilla/5.0 (Windows NT 10.0; Win64; x64) AppleWebKit/537.36 (KHTML, like Gecko) Chrome/132.0.0.0 Safari/537.36" version="26.0.11">
  <diagram name="Page-1" id="vc8kTFDnkecrcWB0b9bQ">
    <mxGraphModel dx="2955" dy="2687" grid="0" gridSize="10" guides="1" tooltips="1" connect="1" arrows="1" fold="1" page="0" pageScale="1" pageWidth="850" pageHeight="1100" background="#ffffff" math="0" shadow="0">
      <root>
        <mxCell id="0" />
        <mxCell id="1" parent="0" />
        <mxCell id="Ga83Rux7IgtjKA9Vw9Vb-1" value="&lt;h2&gt;&lt;i&gt;V. 15 Sequence Diagrams (Top Flow)&lt;/i&gt;&lt;/h2&gt;&lt;p&gt;&lt;i&gt;Dưới đây là 15 biểu đồ tuần tự (sequence diagram) mô tả các flow quan trọng của hệ thống. Bạn có thể sử dụng các đoạn mã PlantUML dưới đây trong StarUML hoặc các công cụ hỗ trợ PlantUML để trực quan hóa.&lt;/i&gt;&lt;/p&gt;" style="text;html=1;align=left;verticalAlign=middle;resizable=0;points=[];autosize=1;strokeColor=none;fillColor=none;fontSize=16;" vertex="1" parent="1">
          <mxGeometry x="-1061.5" y="-204.5" width="1539" height="116" as="geometry" />
        </mxCell>
        <UserObject label="" plantUmlData="{&#xa;  &quot;data&quot;: &quot;@startuml\nactor User\nparticipant \&quot;Web UI\&quot; as UI\nparticipant \&quot;File Upload Service\&quot; as FUS\nparticipant \&quot;Kafka\&quot; as K\n\nUser -&gt; UI: Upload file (doc, pdf, jpg,...)\nUI -&gt; FUS: Send file data\nFUS -&gt; K: Publish file message\n@enduml\n&quot;,&#xa;  &quot;format&quot;: &quot;svg&quot;&#xa;}" id="Ga83Rux7IgtjKA9Vw9Vb-3">
          <mxCell style="shape=image;noLabel=1;verticalAlign=top;aspect=fixed;imageAspect=0;image=data:image/svg+xml,PD94bWwgdmVyc2lvbj0iMS4wIiBlbmNvZGluZz0idXMtYXNjaWkiIHN0YW5kYWxvbmU9Im5vIj8+PHN2ZyB4bWxucz0iaHR0cDovL3d3dy53My5vcmcvMjAwMC9zdmciIHhtbG5zOnhsaW5rPSJodHRwOi8vd3d3LnczLm9yZy8xOTk5L3hsaW5rIiBjb250ZW50U3R5bGVUeXBlPSJ0ZXh0L2NzcyIgaGVpZ2h0PSIyNjNweCIgcHJlc2VydmVBc3BlY3RSYXRpbz0ibm9uZSIgc3R5bGU9IndpZHRoOjU1NnB4O2hlaWdodDoyNjNweDtiYWNrZ3JvdW5kOiNGRkZGRkY7IiB2ZXJzaW9uPSIxLjEiIHZpZXdCb3g9IjAgMCA1NTYgMjYzIiB3aWR0aD0iNTU2cHgiIHpvb21BbmRQYW49Im1hZ25pZnkiPjxkZWZzLz48Zz48bGluZSBzdHlsZT0ic3Ryb2tlOiMxODE4MTg7c3Ryb2tlLXdpZHRoOjAuNTtzdHJva2UtZGFzaGFycmF5OjUuMCw1LjA7IiB4MT0iMjIiIHgyPSIyMiIgeTE9Ijc5Ljk4NDQiIHkyPSIxODMuNzI2NiIvPjxsaW5lIHN0eWxlPSJzdHJva2U6IzE4MTgxODtzdHJva2Utd2lkdGg6MC41O3N0cm9rZS1kYXNoYXJyYXk6NS4wLDUuMDsiIHgxPSIyNTAiIHgyPSIyNTAiIHkxPSI3OS45ODQ0IiB5Mj0iMTgzLjcyNjYiLz48bGluZSBzdHlsZT0ic3Ryb2tlOiMxODE4MTg7c3Ryb2tlLXdpZHRoOjAuNTtzdHJva2UtZGFzaGFycmF5OjUuMCw1LjA7IiB4MT0iMzY3LjUiIHgyPSIzNjcuNSIgeTE9Ijc5Ljk4NDQiIHkyPSIxODMuNzI2NiIvPjxsaW5lIHN0eWxlPSJzdHJva2U6IzE4MTgxODtzdHJva2Utd2lkdGg6MC41O3N0cm9rZS1kYXNoYXJyYXk6NS4wLDUuMDsiIHgxPSI1MjUuNSIgeDI9IjUyNS41IiB5MT0iNzkuOTg0NCIgeTI9IjE4My43MjY2Ii8+PHRleHQgZmlsbD0iIzAwMDAwMCIgZm9udC1mYW1pbHk9InNhbnMtc2VyaWYiIGZvbnQtc2l6ZT0iMTQiIGxlbmd0aEFkanVzdD0ic3BhY2luZyIgdGV4dExlbmd0aD0iMjgiIHg9IjUiIHk9Ijc4LjIzNDQiPlVzZXI8L3RleHQ+PGVsbGlwc2UgY3g9IjIyIiBjeT0iMTMuNSIgZmlsbD0iI0UyRTJGMCIgcng9IjgiIHJ5PSI4IiBzdHlsZT0ic3Ryb2tlOiMxODE4MTg7c3Ryb2tlLXdpZHRoOjAuNTsiLz48cGF0aCBkPSJNMjIsMjEuNSBMMjIsNDguNSBNOSwyOS41IEwzNSwyOS41IE0yMiw0OC41IEw5LDYzLjUgTTIyLDQ4LjUgTDM1LDYzLjUgIiBmaWxsPSJub25lIiBzdHlsZT0ic3Ryb2tlOiMxODE4MTg7c3Ryb2tlLXdpZHRoOjAuNTsiLz48dGV4dCBmaWxsPSIjMDAwMDAwIiBmb250LWZhbWlseT0ic2Fucy1zZXJpZiIgZm9udC1zaXplPSIxNCIgbGVuZ3RoQWRqdXN0PSJzcGFjaW5nIiB0ZXh0TGVuZ3RoPSIyOCIgeD0iNSIgeT0iMTk1Ljk2MDkiPlVzZXI8L3RleHQ+PGVsbGlwc2UgY3g9IjIyIiBjeT0iMjA2LjIxMDkiIGZpbGw9IiNFMkUyRjAiIHJ4PSI4IiByeT0iOCIgc3R5bGU9InN0cm9rZTojMTgxODE4O3N0cm9rZS13aWR0aDowLjU7Ii8+PHBhdGggZD0iTTIyLDIxNC4yMTA5IEwyMiwyNDEuMjEwOSBNOSwyMjIuMjEwOSBMMzUsMjIyLjIxMDkgTTIyLDI0MS4yMTA5IEw5LDI1Ni4yMTA5IE0yMiwyNDEuMjEwOSBMMzUsMjU2LjIxMDkgIiBmaWxsPSJub25lIiBzdHlsZT0ic3Ryb2tlOiMxODE4MTg7c3Ryb2tlLXdpZHRoOjAuNTsiLz48cmVjdCBmaWxsPSIjRTJFMkYwIiBoZWlnaHQ9IjI4Ljk4NDQiIHJ4PSIyLjUiIHJ5PSIyLjUiIHN0eWxlPSJzdHJva2U6IzE4MTgxODtzdHJva2Utd2lkdGg6MC41OyIgd2lkdGg9IjU2IiB4PSIyMjIiIHk9IjUwIi8+PHRleHQgZmlsbD0iIzAwMDAwMCIgZm9udC1mYW1pbHk9InNhbnMtc2VyaWYiIGZvbnQtc2l6ZT0iMTQiIGxlbmd0aEFkanVzdD0ic3BhY2luZyIgdGV4dExlbmd0aD0iNDIiIHg9IjIyOSIgeT0iNzAuMjM0NCI+V2ViIFVJPC90ZXh0PjxyZWN0IGZpbGw9IiNFMkUyRjAiIGhlaWdodD0iMjguOTg0NCIgcng9IjIuNSIgcnk9IjIuNSIgc3R5bGU9InN0cm9rZTojMTgxODE4O3N0cm9rZS13aWR0aDowLjU7IiB3aWR0aD0iNTYiIHg9IjIyMiIgeT0iMTgyLjcyNjYiLz48dGV4dCBmaWxsPSIjMDAwMDAwIiBmb250LWZhbWlseT0ic2Fucy1zZXJpZiIgZm9udC1zaXplPSIxNCIgbGVuZ3RoQWRqdXN0PSJzcGFjaW5nIiB0ZXh0TGVuZ3RoPSI0MiIgeD0iMjI5IiB5PSIyMDIuOTYwOSI+V2ViIFVJPC90ZXh0PjxyZWN0IGZpbGw9IiNFMkUyRjAiIGhlaWdodD0iMjguOTg0NCIgcng9IjIuNSIgcnk9IjIuNSIgc3R5bGU9InN0cm9rZTojMTgxODE4O3N0cm9rZS13aWR0aDowLjU7IiB3aWR0aD0iMTQ3IiB4PSIyOTQuNSIgeT0iNTAiLz48dGV4dCBmaWxsPSIjMDAwMDAwIiBmb250LWZhbWlseT0ic2Fucy1zZXJpZiIgZm9udC1zaXplPSIxNCIgbGVuZ3RoQWRqdXN0PSJzcGFjaW5nIiB0ZXh0TGVuZ3RoPSIxMzMiIHg9IjMwMS41IiB5PSI3MC4yMzQ0Ij5GaWxlIFVwbG9hZCBTZXJ2aWNlPC90ZXh0PjxyZWN0IGZpbGw9IiNFMkUyRjAiIGhlaWdodD0iMjguOTg0NCIgcng9IjIuNSIgcnk9IjIuNSIgc3R5bGU9InN0cm9rZTojMTgxODE4O3N0cm9rZS13aWR0aDowLjU7IiB3aWR0aD0iMTQ3IiB4PSIyOTQuNSIgeT0iMTgyLjcyNjYiLz48dGV4dCBmaWxsPSIjMDAwMDAwIiBmb250LWZhbWlseT0ic2Fucy1zZXJpZiIgZm9udC1zaXplPSIxNCIgbGVuZ3RoQWRqdXN0PSJzcGFjaW5nIiB0ZXh0TGVuZ3RoPSIxMzMiIHg9IjMwMS41IiB5PSIyMDIuOTYwOSI+RmlsZSBVcGxvYWQgU2VydmljZTwvdGV4dD48cmVjdCBmaWxsPSIjRTJFMkYwIiBoZWlnaHQ9IjI4Ljk4NDQiIHJ4PSIyLjUiIHJ5PSIyLjUiIHN0eWxlPSJzdHJva2U6IzE4MTgxODtzdHJva2Utd2lkdGg6MC41OyIgd2lkdGg9IjQ5IiB4PSI1MDEuNSIgeT0iNTAiLz48dGV4dCBmaWxsPSIjMDAwMDAwIiBmb250LWZhbWlseT0ic2Fucy1zZXJpZiIgZm9udC1zaXplPSIxNCIgbGVuZ3RoQWRqdXN0PSJzcGFjaW5nIiB0ZXh0TGVuZ3RoPSIzNSIgeD0iNTA4LjUiIHk9IjcwLjIzNDQiPkthZmthPC90ZXh0PjxyZWN0IGZpbGw9IiNFMkUyRjAiIGhlaWdodD0iMjguOTg0NCIgcng9IjIuNSIgcnk9IjIuNSIgc3R5bGU9InN0cm9rZTojMTgxODE4O3N0cm9rZS13aWR0aDowLjU7IiB3aWR0aD0iNDkiIHg9IjUwMS41IiB5PSIxODIuNzI2NiIvPjx0ZXh0IGZpbGw9IiMwMDAwMDAiIGZvbnQtZmFtaWx5PSJzYW5zLXNlcmlmIiBmb250LXNpemU9IjE0IiBsZW5ndGhBZGp1c3Q9InNwYWNpbmciIHRleHRMZW5ndGg9IjM1IiB4PSI1MDguNSIgeT0iMjAyLjk2MDkiPkthZmthPC90ZXh0Pjxwb2x5Z29uIGZpbGw9IiMxODE4MTgiIHBvaW50cz0iMjM4LDEwNS44OTg0LDI0OCwxMDkuODk4NCwyMzgsMTEzLjg5ODQsMjQyLDEwOS44OTg0IiBzdHlsZT0ic3Ryb2tlOiMxODE4MTg7c3Ryb2tlLXdpZHRoOjEuMDsiLz48bGluZSBzdHlsZT0ic3Ryb2tlOiMxODE4MTg7c3Ryb2tlLXdpZHRoOjEuMDsiIHgxPSIyMiIgeDI9IjI0NCIgeTE9IjEwOS44OTg0IiB5Mj0iMTA5Ljg5ODQiLz48dGV4dCBmaWxsPSIjMDAwMDAwIiBmb250LWZhbWlseT0ic2Fucy1zZXJpZiIgZm9udC1zaXplPSIxMyIgbGVuZ3RoQWRqdXN0PSJzcGFjaW5nIiB0ZXh0TGVuZ3RoPSIyMDQiIHg9IjI5IiB5PSIxMDYuMjczNCI+VXBsb2FkIGZpbGUgKGRvYywgcGRmLCBqcGcsLi4uKTwvdGV4dD48cG9seWdvbiBmaWxsPSIjMTgxODE4IiBwb2ludHM9IjM1NiwxMzMuODEyNSwzNjYsMTM3LjgxMjUsMzU2LDE0MS44MTI1LDM2MCwxMzcuODEyNSIgc3R5bGU9InN0cm9rZTojMTgxODE4O3N0cm9rZS13aWR0aDoxLjA7Ii8+PGxpbmUgc3R5bGU9InN0cm9rZTojMTgxODE4O3N0cm9rZS13aWR0aDoxLjA7IiB4MT0iMjUwIiB4Mj0iMzYyIiB5MT0iMTM3LjgxMjUiIHkyPSIxMzcuODEyNSIvPjx0ZXh0IGZpbGw9IiMwMDAwMDAiIGZvbnQtZmFtaWx5PSJzYW5zLXNlcmlmIiBmb250LXNpemU9IjEzIiBsZW5ndGhBZGp1c3Q9InNwYWNpbmciIHRleHRMZW5ndGg9Ijk0IiB4PSIyNTciIHk9IjEzNC4xODc1Ij5TZW5kIGZpbGUgZGF0YTwvdGV4dD48cG9seWdvbiBmaWxsPSIjMTgxODE4IiBwb2ludHM9IjUxNCwxNjEuNzI2Niw1MjQsMTY1LjcyNjYsNTE0LDE2OS43MjY2LDUxOCwxNjUuNzI2NiIgc3R5bGU9InN0cm9rZTojMTgxODE4O3N0cm9rZS13aWR0aDoxLjA7Ii8+PGxpbmUgc3R5bGU9InN0cm9rZTojMTgxODE4O3N0cm9rZS13aWR0aDoxLjA7IiB4MT0iMzY4IiB4Mj0iNTIwIiB5MT0iMTY1LjcyNjYiIHkyPSIxNjUuNzI2NiIvPjx0ZXh0IGZpbGw9IiMwMDAwMDAiIGZvbnQtZmFtaWx5PSJzYW5zLXNlcmlmIiBmb250LXNpemU9IjEzIiBsZW5ndGhBZGp1c3Q9InNwYWNpbmciIHRleHRMZW5ndGg9IjEzNCIgeD0iMzc1IiB5PSIxNjIuMTAxNiI+UHVibGlzaCBmaWxlIG1lc3NhZ2U8L3RleHQ+PCEtLVNSQz1bTE9yMTNpOFc0NE50ZDZCSWJJUjgwUmZtc1FIWE96OEdyckNPQWVnNTA3Zi1lVWdZZ3FkY2xWeV93WDhJZzRvOUhLcDVRSFRuQlQxVFFHT3JUZTJ2ZFpxUWQyVEdxR1NxQzU1d0Vxc1JEd1hmQnFncTN6b0dQQW5EbUViU3NfZl9zQlFZV21jUUdwSU1tcHFrTjBYblA2ZmlQa3Rod3kzdzRtcU1QRk5OYUVwWHlmZ3pveFNsVXJCRWtEMDddLS0+PC9nPjwvc3ZnPg==;" vertex="1" parent="1">
            <mxGeometry x="-1061.5" y="-6" width="885.79" height="419" as="geometry" />
          </mxCell>
        </UserObject>
        <mxCell id="Ga83Rux7IgtjKA9Vw9Vb-4" value="1. File Upload Flow" style="text;html=1;align=center;verticalAlign=middle;resizable=0;points=[];autosize=1;strokeColor=none;fillColor=none;fontSize=16;" vertex="1" parent="1">
          <mxGeometry x="-1069" y="-59" width="155" height="31" as="geometry" />
        </mxCell>
        <mxCell id="Ga83Rux7IgtjKA9Vw9Vb-5" value="https://chatgpt.com/share/67a79242-601c-800d-8c5c-f730abaefbac" style="text;html=1;align=center;verticalAlign=middle;resizable=0;points=[];autosize=1;strokeColor=none;fillColor=none;fontSize=16;" vertex="1" parent="1">
          <mxGeometry x="-1076" y="-292" width="496" height="31" as="geometry" />
        </mxCell>
        <mxCell id="Ga83Rux7IgtjKA9Vw9Vb-6" value="" style="shape=image;verticalLabelPosition=bottom;labelBackgroundColor=default;verticalAlign=top;aspect=fixed;imageAspect=0;image=https://raw.githubusercontent.com/gstearmit/ML-DL-Base-Knowgle-2025/refs/heads/master/AI%20Document%20Processing%20System-TPBank/04-OpenAI-Thnking/ai_document_processing_system_architecture.png;" vertex="1" parent="1">
          <mxGeometry x="-1108.999090909091" y="-1041.0000000000002" width="1200" height="798" as="geometry" />
        </mxCell>
        <mxCell id="Ga83Rux7IgtjKA9Vw9Vb-7" value="2. File Processing Flow" style="text;html=1;align=center;verticalAlign=middle;resizable=0;points=[];autosize=1;strokeColor=none;fillColor=none;fontSize=16;" vertex="1" parent="1">
          <mxGeometry x="-1069" y="453" width="183" height="31" as="geometry" />
        </mxCell>
        <UserObject label="" plantUmlData="{&#xa;  &quot;data&quot;: &quot;@startuml\nparticipant \&quot;Kafka\&quot; as K\nparticipant \&quot;File Processing Service\&quot; as FPS\nparticipant \&quot;Storage\&quot; as S\n\nK -&gt; FPS: Deliver file message\nFPS -&gt; FPS: Process file (NiFi, Tesseract)\nFPS -&gt; S: Store extracted text/data\n@enduml\n&quot;,&#xa;  &quot;format&quot;: &quot;svg&quot;&#xa;}" id="Ga83Rux7IgtjKA9Vw9Vb-8">
          <mxCell style="shape=image;noLabel=1;verticalAlign=top;aspect=fixed;imageAspect=0;image=data:image/svg+xml,PD94bWwgdmVyc2lvbj0iMS4wIiBlbmNvZGluZz0idXMtYXNjaWkiIHN0YW5kYWxvbmU9Im5vIj8+PHN2ZyB4bWxucz0iaHR0cDovL3d3dy53My5vcmcvMjAwMC9zdmciIHhtbG5zOnhsaW5rPSJodHRwOi8vd3d3LnczLm9yZy8xOTk5L3hsaW5rIiBjb250ZW50U3R5bGVUeXBlPSJ0ZXh0L2NzcyIgaGVpZ2h0PSIxODVweCIgcHJlc2VydmVBc3BlY3RSYXRpbz0ibm9uZSIgc3R5bGU9IndpZHRoOjQzOXB4O2hlaWdodDoxODVweDtiYWNrZ3JvdW5kOiNGRkZGRkY7IiB2ZXJzaW9uPSIxLjEiIHZpZXdCb3g9IjAgMCA0MzkgMTg1IiB3aWR0aD0iNDM5cHgiIHpvb21BbmRQYW49Im1hZ25pZnkiPjxkZWZzLz48Zz48bGluZSBzdHlsZT0ic3Ryb2tlOiMxODE4MTg7c3Ryb2tlLXdpZHRoOjAuNTtzdHJva2UtZGFzaGFycmF5OjUuMCw1LjA7IiB4MT0iMjkiIHgyPSIyOSIgeTE9IjM0Ljk4NDQiIHkyPSIxNTEuNzI2NiIvPjxsaW5lIHN0eWxlPSJzdHJva2U6IzE4MTgxODtzdHJva2Utd2lkdGg6MC41O3N0cm9rZS1kYXNoYXJyYXk6NS4wLDUuMDsiIHgxPSIxODciIHgyPSIxODciIHkxPSIzNC45ODQ0IiB5Mj0iMTUxLjcyNjYiLz48bGluZSBzdHlsZT0ic3Ryb2tlOiMxODE4MTg7c3Ryb2tlLXdpZHRoOjAuNTtzdHJva2UtZGFzaGFycmF5OjUuMCw1LjA7IiB4MT0iNDAxIiB4Mj0iNDAxIiB5MT0iMzQuOTg0NCIgeTI9IjE1MS43MjY2Ii8+PHJlY3QgZmlsbD0iI0UyRTJGMCIgaGVpZ2h0PSIyOC45ODQ0IiByeD0iMi41IiByeT0iMi41IiBzdHlsZT0ic3Ryb2tlOiMxODE4MTg7c3Ryb2tlLXdpZHRoOjAuNTsiIHdpZHRoPSI0OSIgeD0iNSIgeT0iNSIvPjx0ZXh0IGZpbGw9IiMwMDAwMDAiIGZvbnQtZmFtaWx5PSJzYW5zLXNlcmlmIiBmb250LXNpemU9IjE0IiBsZW5ndGhBZGp1c3Q9InNwYWNpbmciIHRleHRMZW5ndGg9IjM1IiB4PSIxMiIgeT0iMjUuMjM0NCI+S2Fma2E8L3RleHQ+PHJlY3QgZmlsbD0iI0UyRTJGMCIgaGVpZ2h0PSIyOC45ODQ0IiByeD0iMi41IiByeT0iMi41IiBzdHlsZT0ic3Ryb2tlOiMxODE4MTg7c3Ryb2tlLXdpZHRoOjAuNTsiIHdpZHRoPSI0OSIgeD0iNSIgeT0iMTUwLjcyNjYiLz48dGV4dCBmaWxsPSIjMDAwMDAwIiBmb250LWZhbWlseT0ic2Fucy1zZXJpZiIgZm9udC1zaXplPSIxNCIgbGVuZ3RoQWRqdXN0PSJzcGFjaW5nIiB0ZXh0TGVuZ3RoPSIzNSIgeD0iMTIiIHk9IjE3MC45NjA5Ij5LYWZrYTwvdGV4dD48cmVjdCBmaWxsPSIjRTJFMkYwIiBoZWlnaHQ9IjI4Ljk4NDQiIHJ4PSIyLjUiIHJ5PSIyLjUiIHN0eWxlPSJzdHJva2U6IzE4MTgxODtzdHJva2Utd2lkdGg6MC41OyIgd2lkdGg9IjE3NSIgeD0iMTAwIiB5PSI1Ii8+PHRleHQgZmlsbD0iIzAwMDAwMCIgZm9udC1mYW1pbHk9InNhbnMtc2VyaWYiIGZvbnQtc2l6ZT0iMTQiIGxlbmd0aEFkanVzdD0ic3BhY2luZyIgdGV4dExlbmd0aD0iMTYxIiB4PSIxMDciIHk9IjI1LjIzNDQiPkZpbGUgUHJvY2Vzc2luZyBTZXJ2aWNlPC90ZXh0PjxyZWN0IGZpbGw9IiNFMkUyRjAiIGhlaWdodD0iMjguOTg0NCIgcng9IjIuNSIgcnk9IjIuNSIgc3R5bGU9InN0cm9rZTojMTgxODE4O3N0cm9rZS13aWR0aDowLjU7IiB3aWR0aD0iMTc1IiB4PSIxMDAiIHk9IjE1MC43MjY2Ii8+PHRleHQgZmlsbD0iIzAwMDAwMCIgZm9udC1mYW1pbHk9InNhbnMtc2VyaWYiIGZvbnQtc2l6ZT0iMTQiIGxlbmd0aEFkanVzdD0ic3BhY2luZyIgdGV4dExlbmd0aD0iMTYxIiB4PSIxMDciIHk9IjE3MC45NjA5Ij5GaWxlIFByb2Nlc3NpbmcgU2VydmljZTwvdGV4dD48cmVjdCBmaWxsPSIjRTJFMkYwIiBoZWlnaHQ9IjI4Ljk4NDQiIHJ4PSIyLjUiIHJ5PSIyLjUiIHN0eWxlPSJzdHJva2U6IzE4MTgxODtzdHJva2Utd2lkdGg6MC41OyIgd2lkdGg9IjYzIiB4PSIzNzAiIHk9IjUiLz48dGV4dCBmaWxsPSIjMDAwMDAwIiBmb250LWZhbWlseT0ic2Fucy1zZXJpZiIgZm9udC1zaXplPSIxNCIgbGVuZ3RoQWRqdXN0PSJzcGFjaW5nIiB0ZXh0TGVuZ3RoPSI0OSIgeD0iMzc3IiB5PSIyNS4yMzQ0Ij5TdG9yYWdlPC90ZXh0PjxyZWN0IGZpbGw9IiNFMkUyRjAiIGhlaWdodD0iMjguOTg0NCIgcng9IjIuNSIgcnk9IjIuNSIgc3R5bGU9InN0cm9rZTojMTgxODE4O3N0cm9rZS13aWR0aDowLjU7IiB3aWR0aD0iNjMiIHg9IjM3MCIgeT0iMTUwLjcyNjYiLz48dGV4dCBmaWxsPSIjMDAwMDAwIiBmb250LWZhbWlseT0ic2Fucy1zZXJpZiIgZm9udC1zaXplPSIxNCIgbGVuZ3RoQWRqdXN0PSJzcGFjaW5nIiB0ZXh0TGVuZ3RoPSI0OSIgeD0iMzc3IiB5PSIxNzAuOTYwOSI+U3RvcmFnZTwvdGV4dD48cG9seWdvbiBmaWxsPSIjMTgxODE4IiBwb2ludHM9IjE3NS41LDYwLjg5ODQsMTg1LjUsNjQuODk4NCwxNzUuNSw2OC44OTg0LDE3OS41LDY0Ljg5ODQiIHN0eWxlPSJzdHJva2U6IzE4MTgxODtzdHJva2Utd2lkdGg6MS4wOyIvPjxsaW5lIHN0eWxlPSJzdHJva2U6IzE4MTgxODtzdHJva2Utd2lkdGg6MS4wOyIgeDE9IjI5LjUiIHgyPSIxODEuNSIgeTE9IjY0Ljg5ODQiIHkyPSI2NC44OTg0Ii8+PHRleHQgZmlsbD0iIzAwMDAwMCIgZm9udC1mYW1pbHk9InNhbnMtc2VyaWYiIGZvbnQtc2l6ZT0iMTMiIGxlbmd0aEFkanVzdD0ic3BhY2luZyIgdGV4dExlbmd0aD0iMTM0IiB4PSIzNi41IiB5PSI2MS4yNzM0Ij5EZWxpdmVyIGZpbGUgbWVzc2FnZTwvdGV4dD48bGluZSBzdHlsZT0ic3Ryb2tlOiMxODE4MTg7c3Ryb2tlLXdpZHRoOjEuMDsiIHgxPSIxODcuNSIgeDI9IjIyOS41IiB5MT0iOTIuODEyNSIgeTI9IjkyLjgxMjUiLz48bGluZSBzdHlsZT0ic3Ryb2tlOiMxODE4MTg7c3Ryb2tlLXdpZHRoOjEuMDsiIHgxPSIyMjkuNSIgeDI9IjIyOS41IiB5MT0iOTIuODEyNSIgeTI9IjEwNS44MTI1Ii8+PGxpbmUgc3R5bGU9InN0cm9rZTojMTgxODE4O3N0cm9rZS13aWR0aDoxLjA7IiB4MT0iMTg4LjUiIHgyPSIyMjkuNSIgeTE9IjEwNS44MTI1IiB5Mj0iMTA1LjgxMjUiLz48cG9seWdvbiBmaWxsPSIjMTgxODE4IiBwb2ludHM9IjE5OC41LDEwMS44MTI1LDE4OC41LDEwNS44MTI1LDE5OC41LDEwOS44MTI1LDE5NC41LDEwNS44MTI1IiBzdHlsZT0ic3Ryb2tlOiMxODE4MTg7c3Ryb2tlLXdpZHRoOjEuMDsiLz48dGV4dCBmaWxsPSIjMDAwMDAwIiBmb250LWZhbWlseT0ic2Fucy1zZXJpZiIgZm9udC1zaXplPSIxMyIgbGVuZ3RoQWRqdXN0PSJzcGFjaW5nIiB0ZXh0TGVuZ3RoPSIyMDAiIHg9IjE5NC41IiB5PSI4OS4xODc1Ij5Qcm9jZXNzIGZpbGUgKE5pRmksIFRlc3NlcmFjdCk8L3RleHQ+PHBvbHlnb24gZmlsbD0iIzE4MTgxOCIgcG9pbnRzPSIzODkuNSwxMjkuNzI2NiwzOTkuNSwxMzMuNzI2NiwzODkuNSwxMzcuNzI2NiwzOTMuNSwxMzMuNzI2NiIgc3R5bGU9InN0cm9rZTojMTgxODE4O3N0cm9rZS13aWR0aDoxLjA7Ii8+PGxpbmUgc3R5bGU9InN0cm9rZTojMTgxODE4O3N0cm9rZS13aWR0aDoxLjA7IiB4MT0iMTg3LjUiIHgyPSIzOTUuNSIgeTE9IjEzMy43MjY2IiB5Mj0iMTMzLjcyNjYiLz48dGV4dCBmaWxsPSIjMDAwMDAwIiBmb250LWZhbWlseT0ic2Fucy1zZXJpZiIgZm9udC1zaXplPSIxMyIgbGVuZ3RoQWRqdXN0PSJzcGFjaW5nIiB0ZXh0TGVuZ3RoPSIxNjkiIHg9IjE5NC41IiB5PSIxMzAuMTAxNiI+U3RvcmUgZXh0cmFjdGVkIHRleHQvZGF0YTwvdGV4dD48IS0tU1JDPVtMU3QxMmk4bTMwUldVdnlZeEFJV1VGVldJTmVmb0EyLUdFWW80UG5SSVNGbXlLc1RZanYyX2VfX3BvWkFZSkRFMmF0MF9lT0RPODdXeWNfV1VJSGVQS3ZLMmF5M0g5QTU0eHNlUi1DX1paZUIzY2lPZEdrbUZyTHFYM0VEbDkxME56bGtMY05BTVY4NXh1S0xSMnhpVUdUTlV2MVdxa3M3NmdtSjFGSkc2YjA3UWtVWEd5S2RdLS0+PC9nPjwvc3ZnPg==;" vertex="1" parent="1">
            <mxGeometry x="-1047.5" y="515" width="628.84" height="265" as="geometry" />
          </mxCell>
        </UserObject>
        <mxCell id="Ga83Rux7IgtjKA9Vw9Vb-9" value="3. Text Extraction Flow" style="text;html=1;align=center;verticalAlign=middle;resizable=0;points=[];autosize=1;strokeColor=none;fillColor=none;fontSize=16;" vertex="1" parent="1">
          <mxGeometry x="-1069" y="839" width="179" height="31" as="geometry" />
        </mxCell>
        <UserObject label="" plantUmlData="{&#xa;  &quot;data&quot;: &quot;@startuml\nparticipant \&quot;File Processing Service\&quot; as FPS\nparticipant \&quot;OCR Module\&quot; as OCR\nparticipant \&quot;Parser\&quot; as P\n\nFPS -&gt; OCR: Send image for OCR extraction\nOCR --&gt; FPS: Return extracted text\nFPS -&gt; P: Parse extracted text from document\nP --&gt; FPS: Return structured data\n@enduml\n&quot;,&#xa;  &quot;format&quot;: &quot;svg&quot;&#xa;}" id="Ga83Rux7IgtjKA9Vw9Vb-11">
          <mxCell style="shape=image;noLabel=1;verticalAlign=top;aspect=fixed;imageAspect=0;image=data:image/svg+xml,PD94bWwgdmVyc2lvbj0iMS4wIiBlbmNvZGluZz0idXMtYXNjaWkiIHN0YW5kYWxvbmU9Im5vIj8+PHN2ZyB4bWxucz0iaHR0cDovL3d3dy53My5vcmcvMjAwMC9zdmciIHhtbG5zOnhsaW5rPSJodHRwOi8vd3d3LnczLm9yZy8xOTk5L3hsaW5rIiBjb250ZW50U3R5bGVUeXBlPSJ0ZXh0L2NzcyIgaGVpZ2h0PSIyMDBweCIgcHJlc2VydmVBc3BlY3RSYXRpbz0ibm9uZSIgc3R5bGU9IndpZHRoOjQyN3B4O2hlaWdodDoyMDBweDtiYWNrZ3JvdW5kOiNGRkZGRkY7IiB2ZXJzaW9uPSIxLjEiIHZpZXdCb3g9IjAgMCA0MjcgMjAwIiB3aWR0aD0iNDI3cHgiIHpvb21BbmRQYW49Im1hZ25pZnkiPjxkZWZzLz48Zz48bGluZSBzdHlsZT0ic3Ryb2tlOiMxODE4MTg7c3Ryb2tlLXdpZHRoOjAuNTtzdHJva2UtZGFzaGFycmF5OjUuMCw1LjA7IiB4MT0iOTIiIHgyPSI5MiIgeTE9IjM0Ljk4NDQiIHkyPSIxNjYuNjQwNiIvPjxsaW5lIHN0eWxlPSJzdHJva2U6IzE4MTgxODtzdHJva2Utd2lkdGg6MC41O3N0cm9rZS1kYXNoYXJyYXk6NS4wLDUuMDsiIHgxPSIzMTMuNSIgeDI9IjMxMy41IiB5MT0iMzQuOTg0NCIgeTI9IjE2Ni42NDA2Ii8+PGxpbmUgc3R5bGU9InN0cm9rZTojMTgxODE4O3N0cm9rZS13aWR0aDowLjU7c3Ryb2tlLWRhc2hhcnJheTo1LjAsNS4wOyIgeDE9IjM5My41IiB4Mj0iMzkzLjUiIHkxPSIzNC45ODQ0IiB5Mj0iMTY2LjY0MDYiLz48cmVjdCBmaWxsPSIjRTJFMkYwIiBoZWlnaHQ9IjI4Ljk4NDQiIHJ4PSIyLjUiIHJ5PSIyLjUiIHN0eWxlPSJzdHJva2U6IzE4MTgxODtzdHJva2Utd2lkdGg6MC41OyIgd2lkdGg9IjE3NSIgeD0iNSIgeT0iNSIvPjx0ZXh0IGZpbGw9IiMwMDAwMDAiIGZvbnQtZmFtaWx5PSJzYW5zLXNlcmlmIiBmb250LXNpemU9IjE0IiBsZW5ndGhBZGp1c3Q9InNwYWNpbmciIHRleHRMZW5ndGg9IjE2MSIgeD0iMTIiIHk9IjI1LjIzNDQiPkZpbGUgUHJvY2Vzc2luZyBTZXJ2aWNlPC90ZXh0PjxyZWN0IGZpbGw9IiNFMkUyRjAiIGhlaWdodD0iMjguOTg0NCIgcng9IjIuNSIgcnk9IjIuNSIgc3R5bGU9InN0cm9rZTojMTgxODE4O3N0cm9rZS13aWR0aDowLjU7IiB3aWR0aD0iMTc1IiB4PSI1IiB5PSIxNjUuNjQwNiIvPjx0ZXh0IGZpbGw9IiMwMDAwMDAiIGZvbnQtZmFtaWx5PSJzYW5zLXNlcmlmIiBmb250LXNpemU9IjE0IiBsZW5ndGhBZGp1c3Q9InNwYWNpbmciIHRleHRMZW5ndGg9IjE2MSIgeD0iMTIiIHk9IjE4NS44NzUiPkZpbGUgUHJvY2Vzc2luZyBTZXJ2aWNlPC90ZXh0PjxyZWN0IGZpbGw9IiNFMkUyRjAiIGhlaWdodD0iMjguOTg0NCIgcng9IjIuNSIgcnk9IjIuNSIgc3R5bGU9InN0cm9rZTojMTgxODE4O3N0cm9rZS13aWR0aDowLjU7IiB3aWR0aD0iODQiIHg9IjI3MS41IiB5PSI1Ii8+PHRleHQgZmlsbD0iIzAwMDAwMCIgZm9udC1mYW1pbHk9InNhbnMtc2VyaWYiIGZvbnQtc2l6ZT0iMTQiIGxlbmd0aEFkanVzdD0ic3BhY2luZyIgdGV4dExlbmd0aD0iNzAiIHg9IjI3OC41IiB5PSIyNS4yMzQ0Ij5PQ1IgTW9kdWxlPC90ZXh0PjxyZWN0IGZpbGw9IiNFMkUyRjAiIGhlaWdodD0iMjguOTg0NCIgcng9IjIuNSIgcnk9IjIuNSIgc3R5bGU9InN0cm9rZTojMTgxODE4O3N0cm9rZS13aWR0aDowLjU7IiB3aWR0aD0iODQiIHg9IjI3MS41IiB5PSIxNjUuNjQwNiIvPjx0ZXh0IGZpbGw9IiMwMDAwMDAiIGZvbnQtZmFtaWx5PSJzYW5zLXNlcmlmIiBmb250LXNpemU9IjE0IiBsZW5ndGhBZGp1c3Q9InNwYWNpbmciIHRleHRMZW5ndGg9IjcwIiB4PSIyNzguNSIgeT0iMTg1Ljg3NSI+T0NSIE1vZHVsZTwvdGV4dD48cmVjdCBmaWxsPSIjRTJFMkYwIiBoZWlnaHQ9IjI4Ljk4NDQiIHJ4PSIyLjUiIHJ5PSIyLjUiIHN0eWxlPSJzdHJva2U6IzE4MTgxODtzdHJva2Utd2lkdGg6MC41OyIgd2lkdGg9IjU2IiB4PSIzNjUuNSIgeT0iNSIvPjx0ZXh0IGZpbGw9IiMwMDAwMDAiIGZvbnQtZmFtaWx5PSJzYW5zLXNlcmlmIiBmb250LXNpemU9IjE0IiBsZW5ndGhBZGp1c3Q9InNwYWNpbmciIHRleHRMZW5ndGg9IjQyIiB4PSIzNzIuNSIgeT0iMjUuMjM0NCI+UGFyc2VyPC90ZXh0PjxyZWN0IGZpbGw9IiNFMkUyRjAiIGhlaWdodD0iMjguOTg0NCIgcng9IjIuNSIgcnk9IjIuNSIgc3R5bGU9InN0cm9rZTojMTgxODE4O3N0cm9rZS13aWR0aDowLjU7IiB3aWR0aD0iNTYiIHg9IjM2NS41IiB5PSIxNjUuNjQwNiIvPjx0ZXh0IGZpbGw9IiMwMDAwMDAiIGZvbnQtZmFtaWx5PSJzYW5zLXNlcmlmIiBmb250LXNpemU9IjE0IiBsZW5ndGhBZGp1c3Q9InNwYWNpbmciIHRleHRMZW5ndGg9IjQyIiB4PSIzNzIuNSIgeT0iMTg1Ljg3NSI+UGFyc2VyPC90ZXh0Pjxwb2x5Z29uIGZpbGw9IiMxODE4MTgiIHBvaW50cz0iMzAxLjUsNjAuODk4NCwzMTEuNSw2NC44OTg0LDMwMS41LDY4Ljg5ODQsMzA1LjUsNjQuODk4NCIgc3R5bGU9InN0cm9rZTojMTgxODE4O3N0cm9rZS13aWR0aDoxLjA7Ii8+PGxpbmUgc3R5bGU9InN0cm9rZTojMTgxODE4O3N0cm9rZS13aWR0aDoxLjA7IiB4MT0iOTIuNSIgeDI9IjMwNy41IiB5MT0iNjQuODk4NCIgeTI9IjY0Ljg5ODQiLz48dGV4dCBmaWxsPSIjMDAwMDAwIiBmb250LWZhbWlseT0ic2Fucy1zZXJpZiIgZm9udC1zaXplPSIxMyIgbGVuZ3RoQWRqdXN0PSJzcGFjaW5nIiB0ZXh0TGVuZ3RoPSIxOTciIHg9Ijk5LjUiIHk9IjYxLjI3MzQiPlNlbmQgaW1hZ2UgZm9yIE9DUiBleHRyYWN0aW9uPC90ZXh0Pjxwb2x5Z29uIGZpbGw9IiMxODE4MTgiIHBvaW50cz0iMTAzLjUsODguODEyNSw5My41LDkyLjgxMjUsMTAzLjUsOTYuODEyNSw5OS41LDkyLjgxMjUiIHN0eWxlPSJzdHJva2U6IzE4MTgxODtzdHJva2Utd2lkdGg6MS4wOyIvPjxsaW5lIHN0eWxlPSJzdHJva2U6IzE4MTgxODtzdHJva2Utd2lkdGg6MS4wO3N0cm9rZS1kYXNoYXJyYXk6Mi4wLDIuMDsiIHgxPSI5Ny41IiB4Mj0iMzEyLjUiIHkxPSI5Mi44MTI1IiB5Mj0iOTIuODEyNSIvPjx0ZXh0IGZpbGw9IiMwMDAwMDAiIGZvbnQtZmFtaWx5PSJzYW5zLXNlcmlmIiBmb250LXNpemU9IjEzIiBsZW5ndGhBZGp1c3Q9InNwYWNpbmciIHRleHRMZW5ndGg9IjE0MiIgeD0iMTA5LjUiIHk9Ijg5LjE4NzUiPlJldHVybiBleHRyYWN0ZWQgdGV4dDwvdGV4dD48cG9seWdvbiBmaWxsPSIjMTgxODE4IiBwb2ludHM9IjM4MS41LDExNi43MjY2LDM5MS41LDEyMC43MjY2LDM4MS41LDEyNC43MjY2LDM4NS41LDEyMC43MjY2IiBzdHlsZT0ic3Ryb2tlOiMxODE4MTg7c3Ryb2tlLXdpZHRoOjEuMDsiLz48bGluZSBzdHlsZT0ic3Ryb2tlOiMxODE4MTg7c3Ryb2tlLXdpZHRoOjEuMDsiIHgxPSI5Mi41IiB4Mj0iMzg3LjUiIHkxPSIxMjAuNzI2NiIgeTI9IjEyMC43MjY2Ii8+PHRleHQgZmlsbD0iIzAwMDAwMCIgZm9udC1mYW1pbHk9InNhbnMtc2VyaWYiIGZvbnQtc2l6ZT0iMTMiIGxlbmd0aEFkanVzdD0ic3BhY2luZyIgdGV4dExlbmd0aD0iMjMwIiB4PSI5OS41IiB5PSIxMTcuMTAxNiI+UGFyc2UgZXh0cmFjdGVkIHRleHQgZnJvbSBkb2N1bWVudDwvdGV4dD48cG9seWdvbiBmaWxsPSIjMTgxODE4IiBwb2ludHM9IjEwMy41LDE0NC42NDA2LDkzLjUsMTQ4LjY0MDYsMTAzLjUsMTUyLjY0MDYsOTkuNSwxNDguNjQwNiIgc3R5bGU9InN0cm9rZTojMTgxODE4O3N0cm9rZS13aWR0aDoxLjA7Ii8+PGxpbmUgc3R5bGU9InN0cm9rZTojMTgxODE4O3N0cm9rZS13aWR0aDoxLjA7c3Ryb2tlLWRhc2hhcnJheToyLjAsMi4wOyIgeDE9Ijk3LjUiIHgyPSIzOTIuNSIgeTE9IjE0OC42NDA2IiB5Mj0iMTQ4LjY0MDYiLz48dGV4dCBmaWxsPSIjMDAwMDAwIiBmb250LWZhbWlseT0ic2Fucy1zZXJpZiIgZm9udC1zaXplPSIxMyIgbGVuZ3RoQWRqdXN0PSJzcGFjaW5nIiB0ZXh0TGVuZ3RoPSIxNTAiIHg9IjEwOS41IiB5PSIxNDUuMDE1NiI+UmV0dXJuIHN0cnVjdHVyZWQgZGF0YTwvdGV4dD48IS0tU1JDPVtQT3JCMmlDbTM0SnRGZU44RlhWOGVmajJUZ0tjRU82bWJJMTh4MjNCZlNVbGFYQmVQcFVaRHBGUUs5RzNSdldLY2Z1TjBZeXZLMmNTUFhYOTdYb2UwSXBHLXo1amQtN3hUTzFSWmRMdlN4RlZ0QUNLYWVEdnZ3bUV4TUxGVEpRUjhsMkFDeTZLUFJ5MUZMS21BRVZhVGpqUXIxZVQzQUhMcWVhZldmZXludG03bnZDVjM5RmE1TThFVFFNYXBsLWo1UEtRSjVhLWVrOEJdLS0+PC9nPjwvc3ZnPg==;" vertex="1" parent="1">
            <mxGeometry x="-1056" y="903" width="706.69" height="331" as="geometry" />
          </mxCell>
        </UserObject>
        <mxCell id="Ga83Rux7IgtjKA9Vw9Vb-12" value="4. AI Analysis Flow" style="text;html=1;align=center;verticalAlign=middle;resizable=0;points=[];autosize=1;strokeColor=none;fillColor=none;fontSize=16;" vertex="1" parent="1">
          <mxGeometry x="-1076" y="1283" width="151" height="31" as="geometry" />
        </mxCell>
        <UserObject label="" plantUmlData="{&#xa;  &quot;data&quot;: &quot;@startuml\nparticipant \&quot;File Processing Service\&quot; as FPS\nparticipant \&quot;AI Analysis Service\&quot; as AIS\n\nFPS -&gt; AIS: Send extracted text for analysis\nAIS -&gt; AIS: Process text (summarization, semantic analysis)\nAIS --&gt; FPS: Return analysis results\n@enduml\n&quot;,&#xa;  &quot;format&quot;: &quot;svg&quot;&#xa;}" id="Ga83Rux7IgtjKA9Vw9Vb-13">
          <mxCell style="shape=image;noLabel=1;verticalAlign=top;aspect=fixed;imageAspect=0;image=data:image/svg+xml,PD94bWwgdmVyc2lvbj0iMS4wIiBlbmNvZGluZz0idXMtYXNjaWkiIHN0YW5kYWxvbmU9Im5vIj8+PHN2ZyB4bWxucz0iaHR0cDovL3d3dy53My5vcmcvMjAwMC9zdmciIHhtbG5zOnhsaW5rPSJodHRwOi8vd3d3LnczLm9yZy8xOTk5L3hsaW5rIiBjb250ZW50U3R5bGVUeXBlPSJ0ZXh0L2NzcyIgaGVpZ2h0PSIxODVweCIgcHJlc2VydmVBc3BlY3RSYXRpbz0ibm9uZSIgc3R5bGU9IndpZHRoOjY2MXB4O2hlaWdodDoxODVweDtiYWNrZ3JvdW5kOiNGRkZGRkY7IiB2ZXJzaW9uPSIxLjEiIHZpZXdCb3g9IjAgMCA2NjEgMTg1IiB3aWR0aD0iNjYxcHgiIHpvb21BbmRQYW49Im1hZ25pZnkiPjxkZWZzLz48Zz48bGluZSBzdHlsZT0ic3Ryb2tlOiMxODE4MTg7c3Ryb2tlLXdpZHRoOjAuNTtzdHJva2UtZGFzaGFycmF5OjUuMCw1LjA7IiB4MT0iOTIiIHgyPSI5MiIgeTE9IjM0Ljk4NDQiIHkyPSIxNTEuNzI2NiIvPjxsaW5lIHN0eWxlPSJzdHJva2U6IzE4MTgxODtzdHJva2Utd2lkdGg6MC41O3N0cm9rZS1kYXNoYXJyYXk6NS4wLDUuMDsiIHgxPSIzMzMiIHgyPSIzMzMiIHkxPSIzNC45ODQ0IiB5Mj0iMTUxLjcyNjYiLz48cmVjdCBmaWxsPSIjRTJFMkYwIiBoZWlnaHQ9IjI4Ljk4NDQiIHJ4PSIyLjUiIHJ5PSIyLjUiIHN0eWxlPSJzdHJva2U6IzE4MTgxODtzdHJva2Utd2lkdGg6MC41OyIgd2lkdGg9IjE3NSIgeD0iNSIgeT0iNSIvPjx0ZXh0IGZpbGw9IiMwMDAwMDAiIGZvbnQtZmFtaWx5PSJzYW5zLXNlcmlmIiBmb250LXNpemU9IjE0IiBsZW5ndGhBZGp1c3Q9InNwYWNpbmciIHRleHRMZW5ndGg9IjE2MSIgeD0iMTIiIHk9IjI1LjIzNDQiPkZpbGUgUHJvY2Vzc2luZyBTZXJ2aWNlPC90ZXh0PjxyZWN0IGZpbGw9IiNFMkUyRjAiIGhlaWdodD0iMjguOTg0NCIgcng9IjIuNSIgcnk9IjIuNSIgc3R5bGU9InN0cm9rZTojMTgxODE4O3N0cm9rZS13aWR0aDowLjU7IiB3aWR0aD0iMTc1IiB4PSI1IiB5PSIxNTAuNzI2NiIvPjx0ZXh0IGZpbGw9IiMwMDAwMDAiIGZvbnQtZmFtaWx5PSJzYW5zLXNlcmlmIiBmb250LXNpemU9IjE0IiBsZW5ndGhBZGp1c3Q9InNwYWNpbmciIHRleHRMZW5ndGg9IjE2MSIgeD0iMTIiIHk9IjE3MC45NjA5Ij5GaWxlIFByb2Nlc3NpbmcgU2VydmljZTwvdGV4dD48cmVjdCBmaWxsPSIjRTJFMkYwIiBoZWlnaHQ9IjI4Ljk4NDQiIHJ4PSIyLjUiIHJ5PSIyLjUiIHN0eWxlPSJzdHJva2U6IzE4MTgxODtzdHJva2Utd2lkdGg6MC41OyIgd2lkdGg9IjE0NyIgeD0iMjYwIiB5PSI1Ii8+PHRleHQgZmlsbD0iIzAwMDAwMCIgZm9udC1mYW1pbHk9InNhbnMtc2VyaWYiIGZvbnQtc2l6ZT0iMTQiIGxlbmd0aEFkanVzdD0ic3BhY2luZyIgdGV4dExlbmd0aD0iMTMzIiB4PSIyNjciIHk9IjI1LjIzNDQiPkFJIEFuYWx5c2lzIFNlcnZpY2U8L3RleHQ+PHJlY3QgZmlsbD0iI0UyRTJGMCIgaGVpZ2h0PSIyOC45ODQ0IiByeD0iMi41IiByeT0iMi41IiBzdHlsZT0ic3Ryb2tlOiMxODE4MTg7c3Ryb2tlLXdpZHRoOjAuNTsiIHdpZHRoPSIxNDciIHg9IjI2MCIgeT0iMTUwLjcyNjYiLz48dGV4dCBmaWxsPSIjMDAwMDAwIiBmb250LWZhbWlseT0ic2Fucy1zZXJpZiIgZm9udC1zaXplPSIxNCIgbGVuZ3RoQWRqdXN0PSJzcGFjaW5nIiB0ZXh0TGVuZ3RoPSIxMzMiIHg9IjI2NyIgeT0iMTcwLjk2MDkiPkFJIEFuYWx5c2lzIFNlcnZpY2U8L3RleHQ+PHBvbHlnb24gZmlsbD0iIzE4MTgxOCIgcG9pbnRzPSIzMjEuNSw2MC44OTg0LDMzMS41LDY0Ljg5ODQsMzIxLjUsNjguODk4NCwzMjUuNSw2NC44OTg0IiBzdHlsZT0ic3Ryb2tlOiMxODE4MTg7c3Ryb2tlLXdpZHRoOjEuMDsiLz48bGluZSBzdHlsZT0ic3Ryb2tlOiMxODE4MTg7c3Ryb2tlLXdpZHRoOjEuMDsiIHgxPSI5Mi41IiB4Mj0iMzI3LjUiIHkxPSI2NC44OTg0IiB5Mj0iNjQuODk4NCIvPjx0ZXh0IGZpbGw9IiMwMDAwMDAiIGZvbnQtZmFtaWx5PSJzYW5zLXNlcmlmIiBmb250LXNpemU9IjEzIiBsZW5ndGhBZGp1c3Q9InNwYWNpbmciIHRleHRMZW5ndGg9IjIxNyIgeD0iOTkuNSIgeT0iNjEuMjczNCI+U2VuZCBleHRyYWN0ZWQgdGV4dCBmb3IgYW5hbHlzaXM8L3RleHQ+PGxpbmUgc3R5bGU9InN0cm9rZTojMTgxODE4O3N0cm9rZS13aWR0aDoxLjA7IiB4MT0iMzMzLjUiIHgyPSIzNzUuNSIgeTE9IjkyLjgxMjUiIHkyPSI5Mi44MTI1Ii8+PGxpbmUgc3R5bGU9InN0cm9rZTojMTgxODE4O3N0cm9rZS13aWR0aDoxLjA7IiB4MT0iMzc1LjUiIHgyPSIzNzUuNSIgeTE9IjkyLjgxMjUiIHkyPSIxMDUuODEyNSIvPjxsaW5lIHN0eWxlPSJzdHJva2U6IzE4MTgxODtzdHJva2Utd2lkdGg6MS4wOyIgeDE9IjMzNC41IiB4Mj0iMzc1LjUiIHkxPSIxMDUuODEyNSIgeTI9IjEwNS44MTI1Ii8+PHBvbHlnb24gZmlsbD0iIzE4MTgxOCIgcG9pbnRzPSIzNDQuNSwxMDEuODEyNSwzMzQuNSwxMDUuODEyNSwzNDQuNSwxMDkuODEyNSwzNDAuNSwxMDUuODEyNSIgc3R5bGU9InN0cm9rZTojMTgxODE4O3N0cm9rZS13aWR0aDoxLjA7Ii8+PHRleHQgZmlsbD0iIzAwMDAwMCIgZm9udC1mYW1pbHk9InNhbnMtc2VyaWYiIGZvbnQtc2l6ZT0iMTMiIGxlbmd0aEFkanVzdD0ic3BhY2luZyIgdGV4dExlbmd0aD0iMzE0IiB4PSIzNDAuNSIgeT0iODkuMTg3NSI+UHJvY2VzcyB0ZXh0IChzdW1tYXJpemF0aW9uLCBzZW1hbnRpYyBhbmFseXNpcyk8L3RleHQ+PHBvbHlnb24gZmlsbD0iIzE4MTgxOCIgcG9pbnRzPSIxMDMuNSwxMjkuNzI2Niw5My41LDEzMy43MjY2LDEwMy41LDEzNy43MjY2LDk5LjUsMTMzLjcyNjYiIHN0eWxlPSJzdHJva2U6IzE4MTgxODtzdHJva2Utd2lkdGg6MS4wOyIvPjxsaW5lIHN0eWxlPSJzdHJva2U6IzE4MTgxODtzdHJva2Utd2lkdGg6MS4wO3N0cm9rZS1kYXNoYXJyYXk6Mi4wLDIuMDsiIHgxPSI5Ny41IiB4Mj0iMzMyLjUiIHkxPSIxMzMuNzI2NiIgeTI9IjEzMy43MjY2Ii8+PHRleHQgZmlsbD0iIzAwMDAwMCIgZm9udC1mYW1pbHk9InNhbnMtc2VyaWYiIGZvbnQtc2l6ZT0iMTMiIGxlbmd0aEFkanVzdD0ic3BhY2luZyIgdGV4dExlbmd0aD0iMTU2IiB4PSIxMDkuNSIgeT0iMTMwLjEwMTYiPlJldHVybiBhbmFseXNpcyByZXN1bHRzPC90ZXh0PjwhLS1TUkM9W0xPdDEyZTlHNDROdHhvaWtoV2hnMXJtNFJXSHRhYnltRkFTT3FBVkNaNTV6Vkl5S2dUczVVbXZkOWRNOUNiRG81QktDWjVRZG82UUl4a1hPN25BdjAxZGdqV2xwQnJtcmcxOERCbkZ4MHdrYzJvN0pFNS0gLWt5bmR3aTVGTHVoRUZKbkZ0Mk81Uk5SOHIwdmx6UEt3czNBRWZGOGNib2NUTzNwY2pDSFRGUXZrYmRFbW45THpxUklfS0JQYlNGaTBdLS0+PC9nPjwvc3ZnPg==;" vertex="1" parent="1">
            <mxGeometry x="-1067" y="1352" width="1268.41" height="355" as="geometry" />
          </mxCell>
        </UserObject>
        <mxCell id="Ga83Rux7IgtjKA9Vw9Vb-14" value="&lt;h3&gt;5. Embedding Generation Flow&lt;/h3&gt;&lt;pre class=&quot;!overflow-visible&quot;&gt;&lt;div class=&quot;contain-inline-size rounded-md border-[0.5px] border-token-border-medium relative bg-token-sidebar-surface-primary dark:bg-gray-950&quot;&gt;&lt;div dir=&quot;ltr&quot; class=&quot;overflow-y-auto p-4&quot;&gt;&lt;/div&gt;&lt;/div&gt;&lt;/pre&gt;" style="text;html=1;align=center;verticalAlign=middle;resizable=0;points=[];autosize=1;strokeColor=none;fillColor=none;fontSize=16;" vertex="1" parent="1">
          <mxGeometry x="-1067" y="1746" width="292" height="72" as="geometry" />
        </mxCell>
        <UserObject label="" plantUmlData="{&#xa;  &quot;data&quot;: &quot;@startuml\nparticipant \&quot;AI Analysis Service\&quot; as AIS\nparticipant \&quot;Vector DB\&quot; as VDB\n\nAIS -&gt; AIS: Generate embedding for document content\nAIS -&gt; VDB: Store embedding vector\nVDB --&gt; AIS: Acknowledge storage\n@enduml\n&quot;,&#xa;  &quot;format&quot;: &quot;svg&quot;&#xa;}" id="Ga83Rux7IgtjKA9Vw9Vb-15">
          <mxCell style="shape=image;noLabel=1;verticalAlign=top;aspect=fixed;imageAspect=0;image=data:image/svg+xml,PD94bWwgdmVyc2lvbj0iMS4wIiBlbmNvZGluZz0idXMtYXNjaWkiIHN0YW5kYWxvbmU9Im5vIj8+PHN2ZyB4bWxucz0iaHR0cDovL3d3dy53My5vcmcvMjAwMC9zdmciIHhtbG5zOnhsaW5rPSJodHRwOi8vd3d3LnczLm9yZy8xOTk5L3hsaW5rIiBjb250ZW50U3R5bGVUeXBlPSJ0ZXh0L2NzcyIgaGVpZ2h0PSIxODVweCIgcHJlc2VydmVBc3BlY3RSYXRpbz0ibm9uZSIgc3R5bGU9IndpZHRoOjQwMnB4O2hlaWdodDoxODVweDtiYWNrZ3JvdW5kOiNGRkZGRkY7IiB2ZXJzaW9uPSIxLjEiIHZpZXdCb3g9IjAgMCA0MDIgMTg1IiB3aWR0aD0iNDAycHgiIHpvb21BbmRQYW49Im1hZ25pZnkiPjxkZWZzLz48Zz48bGluZSBzdHlsZT0ic3Ryb2tlOiMxODE4MTg7c3Ryb2tlLXdpZHRoOjAuNTtzdHJva2UtZGFzaGFycmF5OjUuMCw1LjA7IiB4MT0iNzgiIHgyPSI3OCIgeTE9IjM0Ljk4NDQiIHkyPSIxNTEuNzI2NiIvPjxsaW5lIHN0eWxlPSJzdHJva2U6IzE4MTgxODtzdHJva2Utd2lkdGg6MC41O3N0cm9rZS1kYXNoYXJyYXk6NS4wLDUuMDsiIHgxPSIzNTciIHgyPSIzNTciIHkxPSIzNC45ODQ0IiB5Mj0iMTUxLjcyNjYiLz48cmVjdCBmaWxsPSIjRTJFMkYwIiBoZWlnaHQ9IjI4Ljk4NDQiIHJ4PSIyLjUiIHJ5PSIyLjUiIHN0eWxlPSJzdHJva2U6IzE4MTgxODtzdHJva2Utd2lkdGg6MC41OyIgd2lkdGg9IjE0NyIgeD0iNSIgeT0iNSIvPjx0ZXh0IGZpbGw9IiMwMDAwMDAiIGZvbnQtZmFtaWx5PSJzYW5zLXNlcmlmIiBmb250LXNpemU9IjE0IiBsZW5ndGhBZGp1c3Q9InNwYWNpbmciIHRleHRMZW5ndGg9IjEzMyIgeD0iMTIiIHk9IjI1LjIzNDQiPkFJIEFuYWx5c2lzIFNlcnZpY2U8L3RleHQ+PHJlY3QgZmlsbD0iI0UyRTJGMCIgaGVpZ2h0PSIyOC45ODQ0IiByeD0iMi41IiByeT0iMi41IiBzdHlsZT0ic3Ryb2tlOiMxODE4MTg7c3Ryb2tlLXdpZHRoOjAuNTsiIHdpZHRoPSIxNDciIHg9IjUiIHk9IjE1MC43MjY2Ii8+PHRleHQgZmlsbD0iIzAwMDAwMCIgZm9udC1mYW1pbHk9InNhbnMtc2VyaWYiIGZvbnQtc2l6ZT0iMTQiIGxlbmd0aEFkanVzdD0ic3BhY2luZyIgdGV4dExlbmd0aD0iMTMzIiB4PSIxMiIgeT0iMTcwLjk2MDkiPkFJIEFuYWx5c2lzIFNlcnZpY2U8L3RleHQ+PHJlY3QgZmlsbD0iI0UyRTJGMCIgaGVpZ2h0PSIyOC45ODQ0IiByeD0iMi41IiByeT0iMi41IiBzdHlsZT0ic3Ryb2tlOiMxODE4MTg7c3Ryb2tlLXdpZHRoOjAuNTsiIHdpZHRoPSI3NyIgeD0iMzE5IiB5PSI1Ii8+PHRleHQgZmlsbD0iIzAwMDAwMCIgZm9udC1mYW1pbHk9InNhbnMtc2VyaWYiIGZvbnQtc2l6ZT0iMTQiIGxlbmd0aEFkanVzdD0ic3BhY2luZyIgdGV4dExlbmd0aD0iNjMiIHg9IjMyNiIgeT0iMjUuMjM0NCI+VmVjdG9yIERCPC90ZXh0PjxyZWN0IGZpbGw9IiNFMkUyRjAiIGhlaWdodD0iMjguOTg0NCIgcng9IjIuNSIgcnk9IjIuNSIgc3R5bGU9InN0cm9rZTojMTgxODE4O3N0cm9rZS13aWR0aDowLjU7IiB3aWR0aD0iNzciIHg9IjMxOSIgeT0iMTUwLjcyNjYiLz48dGV4dCBmaWxsPSIjMDAwMDAwIiBmb250LWZhbWlseT0ic2Fucy1zZXJpZiIgZm9udC1zaXplPSIxNCIgbGVuZ3RoQWRqdXN0PSJzcGFjaW5nIiB0ZXh0TGVuZ3RoPSI2MyIgeD0iMzI2IiB5PSIxNzAuOTYwOSI+VmVjdG9yIERCPC90ZXh0PjxsaW5lIHN0eWxlPSJzdHJva2U6IzE4MTgxODtzdHJva2Utd2lkdGg6MS4wOyIgeDE9Ijc4LjUiIHgyPSIxMjAuNSIgeTE9IjY0Ljg5ODQiIHkyPSI2NC44OTg0Ii8+PGxpbmUgc3R5bGU9InN0cm9rZTojMTgxODE4O3N0cm9rZS13aWR0aDoxLjA7IiB4MT0iMTIwLjUiIHgyPSIxMjAuNSIgeTE9IjY0Ljg5ODQiIHkyPSI3Ny44OTg0Ii8+PGxpbmUgc3R5bGU9InN0cm9rZTojMTgxODE4O3N0cm9rZS13aWR0aDoxLjA7IiB4MT0iNzkuNSIgeDI9IjEyMC41IiB5MT0iNzcuODk4NCIgeTI9Ijc3Ljg5ODQiLz48cG9seWdvbiBmaWxsPSIjMTgxODE4IiBwb2ludHM9Ijg5LjUsNzMuODk4NCw3OS41LDc3Ljg5ODQsODkuNSw4MS44OTg0LDg1LjUsNzcuODk4NCIgc3R5bGU9InN0cm9rZTojMTgxODE4O3N0cm9rZS13aWR0aDoxLjA7Ii8+PHRleHQgZmlsbD0iIzAwMDAwMCIgZm9udC1mYW1pbHk9InNhbnMtc2VyaWYiIGZvbnQtc2l6ZT0iMTMiIGxlbmd0aEFkanVzdD0ic3BhY2luZyIgdGV4dExlbmd0aD0iMjY1IiB4PSI4NS41IiB5PSI2MS4yNzM0Ij5HZW5lcmF0ZSBlbWJlZGRpbmcgZm9yIGRvY3VtZW50IGNvbnRlbnQ8L3RleHQ+PHBvbHlnb24gZmlsbD0iIzE4MTgxOCIgcG9pbnRzPSIzNDUuNSwxMDEuODEyNSwzNTUuNSwxMDUuODEyNSwzNDUuNSwxMDkuODEyNSwzNDkuNSwxMDUuODEyNSIgc3R5bGU9InN0cm9rZTojMTgxODE4O3N0cm9rZS13aWR0aDoxLjA7Ii8+PGxpbmUgc3R5bGU9InN0cm9rZTojMTgxODE4O3N0cm9rZS13aWR0aDoxLjA7IiB4MT0iNzguNSIgeDI9IjM1MS41IiB5MT0iMTA1LjgxMjUiIHkyPSIxMDUuODEyNSIvPjx0ZXh0IGZpbGw9IiMwMDAwMDAiIGZvbnQtZmFtaWx5PSJzYW5zLXNlcmlmIiBmb250LXNpemU9IjEzIiBsZW5ndGhBZGp1c3Q9InNwYWNpbmciIHRleHRMZW5ndGg9IjE1MCIgeD0iODUuNSIgeT0iMTAyLjE4NzUiPlN0b3JlIGVtYmVkZGluZyB2ZWN0b3I8L3RleHQ+PHBvbHlnb24gZmlsbD0iIzE4MTgxOCIgcG9pbnRzPSI4OS41LDEyOS43MjY2LDc5LjUsMTMzLjcyNjYsODkuNSwxMzcuNzI2Niw4NS41LDEzMy43MjY2IiBzdHlsZT0ic3Ryb2tlOiMxODE4MTg7c3Ryb2tlLXdpZHRoOjEuMDsiLz48bGluZSBzdHlsZT0ic3Ryb2tlOiMxODE4MTg7c3Ryb2tlLXdpZHRoOjEuMDtzdHJva2UtZGFzaGFycmF5OjIuMCwyLjA7IiB4MT0iODMuNSIgeDI9IjM1Ni41IiB5MT0iMTMzLjcyNjYiIHkyPSIxMzMuNzI2NiIvPjx0ZXh0IGZpbGw9IiMwMDAwMDAiIGZvbnQtZmFtaWx5PSJzYW5zLXNlcmlmIiBmb250LXNpemU9IjEzIiBsZW5ndGhBZGp1c3Q9InNwYWNpbmciIHRleHRMZW5ndGg9IjEzMCIgeD0iOTUuNSIgeT0iMTMwLjEwMTYiPkFja25vd2xlZGdlIHN0b3JhZ2U8L3RleHQ+PCEtLVNSQz1bSk9yMTJpQ1c0NE50ZGtBSlZJd0dIUzRHQTVhQnNUam5Bajk0SE1yQVJ6emY4OTNMQkR2eFZ4OGpCTDM4RFpQcVVlUUVUbHRNSzY2dXg4NnVXd3RHaXI3dkFZdkNCSExDdXU2TlFMSEE3Rkl0bHBoV3BmNkJSR3BVN2tuU1kxdkZxTHNZenlSSUt1ZkR4amI4RnkzOHUzTk9ablRBNkZmcEx6Q2hmaV9BcFpFZ0tFbHYxbTAwXS0tPjwvZz48L3N2Zz4=;" vertex="1" parent="1">
            <mxGeometry x="-1061.5" y="1820" width="819.21" height="377" as="geometry" />
          </mxCell>
        </UserObject>
        <mxCell id="Ga83Rux7IgtjKA9Vw9Vb-16" value="6. Orchestration Flow" style="text;html=1;align=center;verticalAlign=middle;resizable=0;points=[];autosize=1;strokeColor=none;fillColor=none;fontSize=16;" vertex="1" parent="1">
          <mxGeometry x="-1076" y="2238" width="170" height="31" as="geometry" />
        </mxCell>
        <UserObject label="" plantUmlData="{&#xa;  &quot;data&quot;: &quot;@startuml\nparticipant \&quot;AI Analysis Service\&quot; as AIS\nparticipant \&quot;Orchestration Service\&quot; as OS\nparticipant \&quot;Vector DB\&quot; as VDB\nparticipant \&quot;Visualization Service\&quot; as VS\n\nAIS -&gt; OS: Send analysis results and embedding\nOS -&gt; VDB: Query for related embeddings\nVDB --&gt; OS: Return related data\nOS -&gt; VS: Request diagram generation based on analysis\nVS --&gt; OS: Return generated diagrams\n@enduml\n&quot;,&#xa;  &quot;format&quot;: &quot;svg&quot;&#xa;}" id="Ga83Rux7IgtjKA9Vw9Vb-17">
          <mxCell style="shape=image;noLabel=1;verticalAlign=top;aspect=fixed;imageAspect=0;image=data:image/svg+xml,PD94bWwgdmVyc2lvbj0iMS4wIiBlbmNvZGluZz0idXMtYXNjaWkiIHN0YW5kYWxvbmU9Im5vIj8+PHN2ZyB4bWxucz0iaHR0cDovL3d3dy53My5vcmcvMjAwMC9zdmciIHhtbG5zOnhsaW5rPSJodHRwOi8vd3d3LnczLm9yZy8xOTk5L3hsaW5rIiBjb250ZW50U3R5bGVUeXBlPSJ0ZXh0L2NzcyIgaGVpZ2h0PSIyMjhweCIgcHJlc2VydmVBc3BlY3RSYXRpbz0ibm9uZSIgc3R5bGU9IndpZHRoOjc3MnB4O2hlaWdodDoyMjhweDtiYWNrZ3JvdW5kOiNGRkZGRkY7IiB2ZXJzaW9uPSIxLjEiIHZpZXdCb3g9IjAgMCA3NzIgMjI4IiB3aWR0aD0iNzcycHgiIHpvb21BbmRQYW49Im1hZ25pZnkiPjxkZWZzLz48Zz48bGluZSBzdHlsZT0ic3Ryb2tlOiMxODE4MTg7c3Ryb2tlLXdpZHRoOjAuNTtzdHJva2UtZGFzaGFycmF5OjUuMCw1LjA7IiB4MT0iNzgiIHgyPSI3OCIgeTE9IjM0Ljk4NDQiIHkyPSIxOTQuNTU0NyIvPjxsaW5lIHN0eWxlPSJzdHJva2U6IzE4MTgxODtzdHJva2Utd2lkdGg6MC41O3N0cm9rZS1kYXNoYXJyYXk6NS4wLDUuMDsiIHgxPSIzNDEiIHgyPSIzNDEiIHkxPSIzNC45ODQ0IiB5Mj0iMTk0LjU1NDciLz48bGluZSBzdHlsZT0ic3Ryb2tlOiMxODE4MTg7c3Ryb2tlLXdpZHRoOjAuNTtzdHJva2UtZGFzaGFycmF5OjUuMCw1LjA7IiB4MT0iNTU2IiB4Mj0iNTU2IiB5MT0iMzQuOTg0NCIgeTI9IjE5NC41NTQ3Ii8+PGxpbmUgc3R5bGU9InN0cm9rZTojMTgxODE4O3N0cm9rZS13aWR0aDowLjU7c3Ryb2tlLWRhc2hhcnJheTo1LjAsNS4wOyIgeDE9IjY4NSIgeDI9IjY4NSIgeTE9IjM0Ljk4NDQiIHkyPSIxOTQuNTU0NyIvPjxyZWN0IGZpbGw9IiNFMkUyRjAiIGhlaWdodD0iMjguOTg0NCIgcng9IjIuNSIgcnk9IjIuNSIgc3R5bGU9InN0cm9rZTojMTgxODE4O3N0cm9rZS13aWR0aDowLjU7IiB3aWR0aD0iMTQ3IiB4PSI1IiB5PSI1Ii8+PHRleHQgZmlsbD0iIzAwMDAwMCIgZm9udC1mYW1pbHk9InNhbnMtc2VyaWYiIGZvbnQtc2l6ZT0iMTQiIGxlbmd0aEFkanVzdD0ic3BhY2luZyIgdGV4dExlbmd0aD0iMTMzIiB4PSIxMiIgeT0iMjUuMjM0NCI+QUkgQW5hbHlzaXMgU2VydmljZTwvdGV4dD48cmVjdCBmaWxsPSIjRTJFMkYwIiBoZWlnaHQ9IjI4Ljk4NDQiIHJ4PSIyLjUiIHJ5PSIyLjUiIHN0eWxlPSJzdHJva2U6IzE4MTgxODtzdHJva2Utd2lkdGg6MC41OyIgd2lkdGg9IjE0NyIgeD0iNSIgeT0iMTkzLjU1NDciLz48dGV4dCBmaWxsPSIjMDAwMDAwIiBmb250LWZhbWlseT0ic2Fucy1zZXJpZiIgZm9udC1zaXplPSIxNCIgbGVuZ3RoQWRqdXN0PSJzcGFjaW5nIiB0ZXh0TGVuZ3RoPSIxMzMiIHg9IjEyIiB5PSIyMTMuNzg5MSI+QUkgQW5hbHlzaXMgU2VydmljZTwvdGV4dD48cmVjdCBmaWxsPSIjRTJFMkYwIiBoZWlnaHQ9IjI4Ljk4NDQiIHJ4PSIyLjUiIHJ5PSIyLjUiIHN0eWxlPSJzdHJva2U6IzE4MTgxODtzdHJva2Utd2lkdGg6MC41OyIgd2lkdGg9IjE2MSIgeD0iMjYxIiB5PSI1Ii8+PHRleHQgZmlsbD0iIzAwMDAwMCIgZm9udC1mYW1pbHk9InNhbnMtc2VyaWYiIGZvbnQtc2l6ZT0iMTQiIGxlbmd0aEFkanVzdD0ic3BhY2luZyIgdGV4dExlbmd0aD0iMTQ3IiB4PSIyNjgiIHk9IjI1LjIzNDQiPk9yY2hlc3RyYXRpb24gU2VydmljZTwvdGV4dD48cmVjdCBmaWxsPSIjRTJFMkYwIiBoZWlnaHQ9IjI4Ljk4NDQiIHJ4PSIyLjUiIHJ5PSIyLjUiIHN0eWxlPSJzdHJva2U6IzE4MTgxODtzdHJva2Utd2lkdGg6MC41OyIgd2lkdGg9IjE2MSIgeD0iMjYxIiB5PSIxOTMuNTU0NyIvPjx0ZXh0IGZpbGw9IiMwMDAwMDAiIGZvbnQtZmFtaWx5PSJzYW5zLXNlcmlmIiBmb250LXNpemU9IjE0IiBsZW5ndGhBZGp1c3Q9InNwYWNpbmciIHRleHRMZW5ndGg9IjE0NyIgeD0iMjY4IiB5PSIyMTMuNzg5MSI+T3JjaGVzdHJhdGlvbiBTZXJ2aWNlPC90ZXh0PjxyZWN0IGZpbGw9IiNFMkUyRjAiIGhlaWdodD0iMjguOTg0NCIgcng9IjIuNSIgcnk9IjIuNSIgc3R5bGU9InN0cm9rZTojMTgxODE4O3N0cm9rZS13aWR0aDowLjU7IiB3aWR0aD0iNzciIHg9IjUxOCIgeT0iNSIvPjx0ZXh0IGZpbGw9IiMwMDAwMDAiIGZvbnQtZmFtaWx5PSJzYW5zLXNlcmlmIiBmb250LXNpemU9IjE0IiBsZW5ndGhBZGp1c3Q9InNwYWNpbmciIHRleHRMZW5ndGg9IjYzIiB4PSI1MjUiIHk9IjI1LjIzNDQiPlZlY3RvciBEQjwvdGV4dD48cmVjdCBmaWxsPSIjRTJFMkYwIiBoZWlnaHQ9IjI4Ljk4NDQiIHJ4PSIyLjUiIHJ5PSIyLjUiIHN0eWxlPSJzdHJva2U6IzE4MTgxODtzdHJva2Utd2lkdGg6MC41OyIgd2lkdGg9Ijc3IiB4PSI1MTgiIHk9IjE5My41NTQ3Ii8+PHRleHQgZmlsbD0iIzAwMDAwMCIgZm9udC1mYW1pbHk9InNhbnMtc2VyaWYiIGZvbnQtc2l6ZT0iMTQiIGxlbmd0aEFkanVzdD0ic3BhY2luZyIgdGV4dExlbmd0aD0iNjMiIHg9IjUyNSIgeT0iMjEzLjc4OTEiPlZlY3RvciBEQjwvdGV4dD48cmVjdCBmaWxsPSIjRTJFMkYwIiBoZWlnaHQ9IjI4Ljk4NDQiIHJ4PSIyLjUiIHJ5PSIyLjUiIHN0eWxlPSJzdHJva2U6IzE4MTgxODtzdHJva2Utd2lkdGg6MC41OyIgd2lkdGg9IjE2MSIgeD0iNjA1IiB5PSI1Ii8+PHRleHQgZmlsbD0iIzAwMDAwMCIgZm9udC1mYW1pbHk9InNhbnMtc2VyaWYiIGZvbnQtc2l6ZT0iMTQiIGxlbmd0aEFkanVzdD0ic3BhY2luZyIgdGV4dExlbmd0aD0iMTQ3IiB4PSI2MTIiIHk9IjI1LjIzNDQiPlZpc3VhbGl6YXRpb24gU2VydmljZTwvdGV4dD48cmVjdCBmaWxsPSIjRTJFMkYwIiBoZWlnaHQ9IjI4Ljk4NDQiIHJ4PSIyLjUiIHJ5PSIyLjUiIHN0eWxlPSJzdHJva2U6IzE4MTgxODtzdHJva2Utd2lkdGg6MC41OyIgd2lkdGg9IjE2MSIgeD0iNjA1IiB5PSIxOTMuNTU0NyIvPjx0ZXh0IGZpbGw9IiMwMDAwMDAiIGZvbnQtZmFtaWx5PSJzYW5zLXNlcmlmIiBmb250LXNpemU9IjE0IiBsZW5ndGhBZGp1c3Q9InNwYWNpbmciIHRleHRMZW5ndGg9IjE0NyIgeD0iNjEyIiB5PSIyMTMuNzg5MSI+VmlzdWFsaXphdGlvbiBTZXJ2aWNlPC90ZXh0Pjxwb2x5Z29uIGZpbGw9IiMxODE4MTgiIHBvaW50cz0iMzI5LjUsNjAuODk4NCwzMzkuNSw2NC44OTg0LDMyOS41LDY4Ljg5ODQsMzMzLjUsNjQuODk4NCIgc3R5bGU9InN0cm9rZTojMTgxODE4O3N0cm9rZS13aWR0aDoxLjA7Ii8+PGxpbmUgc3R5bGU9InN0cm9rZTojMTgxODE4O3N0cm9rZS13aWR0aDoxLjA7IiB4MT0iNzguNSIgeDI9IjMzNS41IiB5MT0iNjQuODk4NCIgeTI9IjY0Ljg5ODQiLz48dGV4dCBmaWxsPSIjMDAwMDAwIiBmb250LWZhbWlseT0ic2Fucy1zZXJpZiIgZm9udC1zaXplPSIxMyIgbGVuZ3RoQWRqdXN0PSJzcGFjaW5nIiB0ZXh0TGVuZ3RoPSIyMzkiIHg9Ijg1LjUiIHk9IjYxLjI3MzQiPlNlbmQgYW5hbHlzaXMgcmVzdWx0cyBhbmQgZW1iZWRkaW5nPC90ZXh0Pjxwb2x5Z29uIGZpbGw9IiMxODE4MTgiIHBvaW50cz0iNTQ0LjUsODguODEyNSw1NTQuNSw5Mi44MTI1LDU0NC41LDk2LjgxMjUsNTQ4LjUsOTIuODEyNSIgc3R5bGU9InN0cm9rZTojMTgxODE4O3N0cm9rZS13aWR0aDoxLjA7Ii8+PGxpbmUgc3R5bGU9InN0cm9rZTojMTgxODE4O3N0cm9rZS13aWR0aDoxLjA7IiB4MT0iMzQxLjUiIHgyPSI1NTAuNSIgeTE9IjkyLjgxMjUiIHkyPSI5Mi44MTI1Ii8+PHRleHQgZmlsbD0iIzAwMDAwMCIgZm9udC1mYW1pbHk9InNhbnMtc2VyaWYiIGZvbnQtc2l6ZT0iMTMiIGxlbmd0aEFkanVzdD0ic3BhY2luZyIgdGV4dExlbmd0aD0iMTkxIiB4PSIzNDguNSIgeT0iODkuMTg3NSI+UXVlcnkgZm9yIHJlbGF0ZWQgZW1iZWRkaW5nczwvdGV4dD48cG9seWdvbiBmaWxsPSIjMTgxODE4IiBwb2ludHM9IjM1Mi41LDExNi43MjY2LDM0Mi41LDEyMC43MjY2LDM1Mi41LDEyNC43MjY2LDM0OC41LDEyMC43MjY2IiBzdHlsZT0ic3Ryb2tlOiMxODE4MTg7c3Ryb2tlLXdpZHRoOjEuMDsiLz48bGluZSBzdHlsZT0ic3Ryb2tlOiMxODE4MTg7c3Ryb2tlLXdpZHRoOjEuMDtzdHJva2UtZGFzaGFycmF5OjIuMCwyLjA7IiB4MT0iMzQ2LjUiIHgyPSI1NTUuNSIgeTE9IjEyMC43MjY2IiB5Mj0iMTIwLjcyNjYiLz48dGV4dCBmaWxsPSIjMDAwMDAwIiBmb250LWZhbWlseT0ic2Fucy1zZXJpZiIgZm9udC1zaXplPSIxMyIgbGVuZ3RoQWRqdXN0PSJzcGFjaW5nIiB0ZXh0TGVuZ3RoPSIxMjkiIHg9IjM1OC41IiB5PSIxMTcuMTAxNiI+UmV0dXJuIHJlbGF0ZWQgZGF0YTwvdGV4dD48cG9seWdvbiBmaWxsPSIjMTgxODE4IiBwb2ludHM9IjY3My41LDE0NC42NDA2LDY4My41LDE0OC42NDA2LDY3My41LDE1Mi42NDA2LDY3Ny41LDE0OC42NDA2IiBzdHlsZT0ic3Ryb2tlOiMxODE4MTg7c3Ryb2tlLXdpZHRoOjEuMDsiLz48bGluZSBzdHlsZT0ic3Ryb2tlOiMxODE4MTg7c3Ryb2tlLXdpZHRoOjEuMDsiIHgxPSIzNDEuNSIgeDI9IjY3OS41IiB5MT0iMTQ4LjY0MDYiIHkyPSIxNDguNjQwNiIvPjx0ZXh0IGZpbGw9IiMwMDAwMDAiIGZvbnQtZmFtaWx5PSJzYW5zLXNlcmlmIiBmb250LXNpemU9IjEzIiBsZW5ndGhBZGp1c3Q9InNwYWNpbmciIHRleHRMZW5ndGg9IjMwMSIgeD0iMzQ4LjUiIHk9IjE0NS4wMTU2Ij5SZXF1ZXN0IGRpYWdyYW0gZ2VuZXJhdGlvbiBiYXNlZCBvbiBhbmFseXNpczwvdGV4dD48cG9seWdvbiBmaWxsPSIjMTgxODE4IiBwb2ludHM9IjM1Mi41LDE3Mi41NTQ3LDM0Mi41LDE3Ni41NTQ3LDM1Mi41LDE4MC41NTQ3LDM0OC41LDE3Ni41NTQ3IiBzdHlsZT0ic3Ryb2tlOiMxODE4MTg7c3Ryb2tlLXdpZHRoOjEuMDsiLz48bGluZSBzdHlsZT0ic3Ryb2tlOiMxODE4MTg7c3Ryb2tlLXdpZHRoOjEuMDtzdHJva2UtZGFzaGFycmF5OjIuMCwyLjA7IiB4MT0iMzQ2LjUiIHgyPSI2ODQuNSIgeTE9IjE3Ni41NTQ3IiB5Mj0iMTc2LjU1NDciLz48dGV4dCBmaWxsPSIjMDAwMDAwIiBmb250LWZhbWlseT0ic2Fucy1zZXJpZiIgZm9udC1zaXplPSIxMyIgbGVuZ3RoQWRqdXN0PSJzcGFjaW5nIiB0ZXh0TGVuZ3RoPSIxNzEiIHg9IjM1OC41IiB5PSIxNzIuOTI5NyI+UmV0dXJuIGdlbmVyYXRlZCBkaWFncmFtczwvdGV4dD48IS0tU1JDPVtQT3luWmk5MDM0TnhFT0w1cG1LZWE4OWVnMkE4YkR4OVU4RWJDMEpSV21JZE5zeXNHSDB3b19fZlZOajBDTXZ2bTZJbUFXdkc5RW1Wb1dlTG9QclJNVzRnNThTZzNFeldBVXNQcjBJRGgtYTNCSFRhSlFyVDFWUXhDUXR0a3FOQ2NoN2R2eFVlaGFCbU5iWGx0UmRuQTROMC1KV1hwUnNmQm9CR2ZRNE9FTk1YNzZkbHNDMG5hcHBXbnZrNVVaSHdtcEd1MFVsOVVvQkJhYnZLSENGUEN3UXR4N3oyUEVtNEJ6MUhla2RmMWpMdjctUVpHYnFqaEhGLXZfcU53MnkwXS0tPjwvZz48L3N2Zz4=;" vertex="1" parent="1">
            <mxGeometry x="-1061.5" y="2295" width="1510.14" height="446" as="geometry" />
          </mxCell>
        </UserObject>
        <mxCell id="Ga83Rux7IgtjKA9Vw9Vb-18" value="7. QA Query Flow" style="text;html=1;align=center;verticalAlign=middle;resizable=0;points=[];autosize=1;strokeColor=none;fillColor=none;fontSize=16;" vertex="1" parent="1">
          <mxGeometry x="-1061.5" y="2798" width="144" height="31" as="geometry" />
        </mxCell>
        <UserObject label="" plantUmlData="{&#xa;  &quot;data&quot;: &quot;@startuml\nactor User\nparticipant \&quot;Web UI\&quot; as UI\nparticipant \&quot;Backend API\&quot; as API\nparticipant \&quot;AI Analysis Service\&quot; as AIS\nparticipant \&quot;Vector DB\&quot; as VDB\n\nUser -&gt; UI: Submit QA query\nUI -&gt; API: Forward query\nAPI -&gt; VDB: Retrieve relevant embeddings\nVDB --&gt; API: Return matching document segments\nAPI -&gt; AIS: Refine query and generate answer\nAIS --&gt; API: Return QA result\nAPI -&gt; UI: Display answer to User\n@enduml\n&quot;,&#xa;  &quot;format&quot;: &quot;svg&quot;&#xa;}" id="Ga83Rux7IgtjKA9Vw9Vb-19">
          <mxCell style="shape=image;noLabel=1;verticalAlign=top;aspect=fixed;imageAspect=0;image=data:image/svg+xml,PD94bWwgdmVyc2lvbj0iMS4wIiBlbmNvZGluZz0idXMtYXNjaWkiIHN0YW5kYWxvbmU9Im5vIj8+PHN2ZyB4bWxucz0iaHR0cDovL3d3dy53My5vcmcvMjAwMC9zdmciIHhtbG5zOnhsaW5rPSJodHRwOi8vd3d3LnczLm9yZy8xOTk5L3hsaW5rIiBjb250ZW50U3R5bGVUeXBlPSJ0ZXh0L2NzcyIgaGVpZ2h0PSIzNzRweCIgcHJlc2VydmVBc3BlY3RSYXRpbz0ibm9uZSIgc3R5bGU9IndpZHRoOjczMnB4O2hlaWdodDozNzRweDtiYWNrZ3JvdW5kOiNGRkZGRkY7IiB2ZXJzaW9uPSIxLjEiIHZpZXdCb3g9IjAgMCA3MzIgMzc0IiB3aWR0aD0iNzMycHgiIHpvb21BbmRQYW49Im1hZ25pZnkiPjxkZWZzLz48Zz48bGluZSBzdHlsZT0ic3Ryb2tlOiMxODE4MTg7c3Ryb2tlLXdpZHRoOjAuNTtzdHJva2UtZGFzaGFycmF5OjUuMCw1LjA7IiB4MT0iMjIiIHgyPSIyMiIgeTE9Ijc5Ljk4NDQiIHkyPSIyOTUuMzgyOCIvPjxsaW5lIHN0eWxlPSJzdHJva2U6IzE4MTgxODtzdHJva2Utd2lkdGg6MC41O3N0cm9rZS1kYXNoYXJyYXk6NS4wLDUuMDsiIHgxPSIxNDgiIHgyPSIxNDgiIHkxPSI3OS45ODQ0IiB5Mj0iMjk1LjM4MjgiLz48bGluZSBzdHlsZT0ic3Ryb2tlOiMxODE4MTg7c3Ryb2tlLXdpZHRoOjAuNTtzdHJva2UtZGFzaGFycmF5OjUuMCw1LjA7IiB4MT0iMzIxLjUiIHgyPSIzMjEuNSIgeTE9Ijc5Ljk4NDQiIHkyPSIyOTUuMzgyOCIvPjxsaW5lIHN0eWxlPSJzdHJva2U6IzE4MTgxODtzdHJva2Utd2lkdGg6MC41O3N0cm9rZS1kYXNoYXJyYXk6NS4wLDUuMDsiIHgxPSI1NjUuNSIgeDI9IjU2NS41IiB5MT0iNzkuOTg0NCIgeTI9IjI5NS4zODI4Ii8+PGxpbmUgc3R5bGU9InN0cm9rZTojMTgxODE4O3N0cm9rZS13aWR0aDowLjU7c3Ryb2tlLWRhc2hhcnJheTo1LjAsNS4wOyIgeDE9IjY4Ny41IiB4Mj0iNjg3LjUiIHkxPSI3OS45ODQ0IiB5Mj0iMjk1LjM4MjgiLz48dGV4dCBmaWxsPSIjMDAwMDAwIiBmb250LWZhbWlseT0ic2Fucy1zZXJpZiIgZm9udC1zaXplPSIxNCIgbGVuZ3RoQWRqdXN0PSJzcGFjaW5nIiB0ZXh0TGVuZ3RoPSIyOCIgeD0iNSIgeT0iNzguMjM0NCI+VXNlcjwvdGV4dD48ZWxsaXBzZSBjeD0iMjIiIGN5PSIxMy41IiBmaWxsPSIjRTJFMkYwIiByeD0iOCIgcnk9IjgiIHN0eWxlPSJzdHJva2U6IzE4MTgxODtzdHJva2Utd2lkdGg6MC41OyIvPjxwYXRoIGQ9Ik0yMiwyMS41IEwyMiw0OC41IE05LDI5LjUgTDM1LDI5LjUgTTIyLDQ4LjUgTDksNjMuNSBNMjIsNDguNSBMMzUsNjMuNSAiIGZpbGw9Im5vbmUiIHN0eWxlPSJzdHJva2U6IzE4MTgxODtzdHJva2Utd2lkdGg6MC41OyIvPjx0ZXh0IGZpbGw9IiMwMDAwMDAiIGZvbnQtZmFtaWx5PSJzYW5zLXNlcmlmIiBmb250LXNpemU9IjE0IiBsZW5ndGhBZGp1c3Q9InNwYWNpbmciIHRleHRMZW5ndGg9IjI4IiB4PSI1IiB5PSIzMDcuNjE3MiI+VXNlcjwvdGV4dD48ZWxsaXBzZSBjeD0iMjIiIGN5PSIzMTcuODY3MiIgZmlsbD0iI0UyRTJGMCIgcng9IjgiIHJ5PSI4IiBzdHlsZT0ic3Ryb2tlOiMxODE4MTg7c3Ryb2tlLXdpZHRoOjAuNTsiLz48cGF0aCBkPSJNMjIsMzI1Ljg2NzIgTDIyLDM1Mi44NjcyIE05LDMzMy44NjcyIEwzNSwzMzMuODY3MiBNMjIsMzUyLjg2NzIgTDksMzY3Ljg2NzIgTTIyLDM1Mi44NjcyIEwzNSwzNjcuODY3MiAiIGZpbGw9Im5vbmUiIHN0eWxlPSJzdHJva2U6IzE4MTgxODtzdHJva2Utd2lkdGg6MC41OyIvPjxyZWN0IGZpbGw9IiNFMkUyRjAiIGhlaWdodD0iMjguOTg0NCIgcng9IjIuNSIgcnk9IjIuNSIgc3R5bGU9InN0cm9rZTojMTgxODE4O3N0cm9rZS13aWR0aDowLjU7IiB3aWR0aD0iNTYiIHg9IjEyMCIgeT0iNTAiLz48dGV4dCBmaWxsPSIjMDAwMDAwIiBmb250LWZhbWlseT0ic2Fucy1zZXJpZiIgZm9udC1zaXplPSIxNCIgbGVuZ3RoQWRqdXN0PSJzcGFjaW5nIiB0ZXh0TGVuZ3RoPSI0MiIgeD0iMTI3IiB5PSI3MC4yMzQ0Ij5XZWIgVUk8L3RleHQ+PHJlY3QgZmlsbD0iI0UyRTJGMCIgaGVpZ2h0PSIyOC45ODQ0IiByeD0iMi41IiByeT0iMi41IiBzdHlsZT0ic3Ryb2tlOiMxODE4MTg7c3Ryb2tlLXdpZHRoOjAuNTsiIHdpZHRoPSI1NiIgeD0iMTIwIiB5PSIyOTQuMzgyOCIvPjx0ZXh0IGZpbGw9IiMwMDAwMDAiIGZvbnQtZmFtaWx5PSJzYW5zLXNlcmlmIiBmb250LXNpemU9IjE0IiBsZW5ndGhBZGp1c3Q9InNwYWNpbmciIHRleHRMZW5ndGg9IjQyIiB4PSIxMjciIHk9IjMxNC42MTcyIj5XZWIgVUk8L3RleHQ+PHJlY3QgZmlsbD0iI0UyRTJGMCIgaGVpZ2h0PSIyOC45ODQ0IiByeD0iMi41IiByeT0iMi41IiBzdHlsZT0ic3Ryb2tlOiMxODE4MTg7c3Ryb2tlLXdpZHRoOjAuNTsiIHdpZHRoPSI5MSIgeD0iMjc2LjUiIHk9IjUwIi8+PHRleHQgZmlsbD0iIzAwMDAwMCIgZm9udC1mYW1pbHk9InNhbnMtc2VyaWYiIGZvbnQtc2l6ZT0iMTQiIGxlbmd0aEFkanVzdD0ic3BhY2luZyIgdGV4dExlbmd0aD0iNzciIHg9IjI4My41IiB5PSI3MC4yMzQ0Ij5CYWNrZW5kIEFQSTwvdGV4dD48cmVjdCBmaWxsPSIjRTJFMkYwIiBoZWlnaHQ9IjI4Ljk4NDQiIHJ4PSIyLjUiIHJ5PSIyLjUiIHN0eWxlPSJzdHJva2U6IzE4MTgxODtzdHJva2Utd2lkdGg6MC41OyIgd2lkdGg9IjkxIiB4PSIyNzYuNSIgeT0iMjk0LjM4MjgiLz48dGV4dCBmaWxsPSIjMDAwMDAwIiBmb250LWZhbWlseT0ic2Fucy1zZXJpZiIgZm9udC1zaXplPSIxNCIgbGVuZ3RoQWRqdXN0PSJzcGFjaW5nIiB0ZXh0TGVuZ3RoPSI3NyIgeD0iMjgzLjUiIHk9IjMxNC42MTcyIj5CYWNrZW5kIEFQSTwvdGV4dD48cmVjdCBmaWxsPSIjRTJFMkYwIiBoZWlnaHQ9IjI4Ljk4NDQiIHJ4PSIyLjUiIHJ5PSIyLjUiIHN0eWxlPSJzdHJva2U6IzE4MTgxODtzdHJva2Utd2lkdGg6MC41OyIgd2lkdGg9IjE0NyIgeD0iNDkyLjUiIHk9IjUwIi8+PHRleHQgZmlsbD0iIzAwMDAwMCIgZm9udC1mYW1pbHk9InNhbnMtc2VyaWYiIGZvbnQtc2l6ZT0iMTQiIGxlbmd0aEFkanVzdD0ic3BhY2luZyIgdGV4dExlbmd0aD0iMTMzIiB4PSI0OTkuNSIgeT0iNzAuMjM0NCI+QUkgQW5hbHlzaXMgU2VydmljZTwvdGV4dD48cmVjdCBmaWxsPSIjRTJFMkYwIiBoZWlnaHQ9IjI4Ljk4NDQiIHJ4PSIyLjUiIHJ5PSIyLjUiIHN0eWxlPSJzdHJva2U6IzE4MTgxODtzdHJva2Utd2lkdGg6MC41OyIgd2lkdGg9IjE0NyIgeD0iNDkyLjUiIHk9IjI5NC4zODI4Ii8+PHRleHQgZmlsbD0iIzAwMDAwMCIgZm9udC1mYW1pbHk9InNhbnMtc2VyaWYiIGZvbnQtc2l6ZT0iMTQiIGxlbmd0aEFkanVzdD0ic3BhY2luZyIgdGV4dExlbmd0aD0iMTMzIiB4PSI0OTkuNSIgeT0iMzE0LjYxNzIiPkFJIEFuYWx5c2lzIFNlcnZpY2U8L3RleHQ+PHJlY3QgZmlsbD0iI0UyRTJGMCIgaGVpZ2h0PSIyOC45ODQ0IiByeD0iMi41IiByeT0iMi41IiBzdHlsZT0ic3Ryb2tlOiMxODE4MTg7c3Ryb2tlLXdpZHRoOjAuNTsiIHdpZHRoPSI3NyIgeD0iNjQ5LjUiIHk9IjUwIi8+PHRleHQgZmlsbD0iIzAwMDAwMCIgZm9udC1mYW1pbHk9InNhbnMtc2VyaWYiIGZvbnQtc2l6ZT0iMTQiIGxlbmd0aEFkanVzdD0ic3BhY2luZyIgdGV4dExlbmd0aD0iNjMiIHg9IjY1Ni41IiB5PSI3MC4yMzQ0Ij5WZWN0b3IgREI8L3RleHQ+PHJlY3QgZmlsbD0iI0UyRTJGMCIgaGVpZ2h0PSIyOC45ODQ0IiByeD0iMi41IiByeT0iMi41IiBzdHlsZT0ic3Ryb2tlOiMxODE4MTg7c3Ryb2tlLXdpZHRoOjAuNTsiIHdpZHRoPSI3NyIgeD0iNjQ5LjUiIHk9IjI5NC4zODI4Ii8+PHRleHQgZmlsbD0iIzAwMDAwMCIgZm9udC1mYW1pbHk9InNhbnMtc2VyaWYiIGZvbnQtc2l6ZT0iMTQiIGxlbmd0aEFkanVzdD0ic3BhY2luZyIgdGV4dExlbmd0aD0iNjMiIHg9IjY1Ni41IiB5PSIzMTQuNjE3MiI+VmVjdG9yIERCPC90ZXh0Pjxwb2x5Z29uIGZpbGw9IiMxODE4MTgiIHBvaW50cz0iMTM2LDEwNS44OTg0LDE0NiwxMDkuODk4NCwxMzYsMTEzLjg5ODQsMTQwLDEwOS44OTg0IiBzdHlsZT0ic3Ryb2tlOiMxODE4MTg7c3Ryb2tlLXdpZHRoOjEuMDsiLz48bGluZSBzdHlsZT0ic3Ryb2tlOiMxODE4MTg7c3Ryb2tlLXdpZHRoOjEuMDsiIHgxPSIyMiIgeDI9IjE0MiIgeTE9IjEwOS44OTg0IiB5Mj0iMTA5Ljg5ODQiLz48dGV4dCBmaWxsPSIjMDAwMDAwIiBmb250LWZhbWlseT0ic2Fucy1zZXJpZiIgZm9udC1zaXplPSIxMyIgbGVuZ3RoQWRqdXN0PSJzcGFjaW5nIiB0ZXh0TGVuZ3RoPSIxMDIiIHg9IjI5IiB5PSIxMDYuMjczNCI+U3VibWl0IFFBIHF1ZXJ5PC90ZXh0Pjxwb2x5Z29uIGZpbGw9IiMxODE4MTgiIHBvaW50cz0iMzEwLDEzMy44MTI1LDMyMCwxMzcuODEyNSwzMTAsMTQxLjgxMjUsMzE0LDEzNy44MTI1IiBzdHlsZT0ic3Ryb2tlOiMxODE4MTg7c3Ryb2tlLXdpZHRoOjEuMDsiLz48bGluZSBzdHlsZT0ic3Ryb2tlOiMxODE4MTg7c3Ryb2tlLXdpZHRoOjEuMDsiIHgxPSIxNDgiIHgyPSIzMTYiIHkxPSIxMzcuODEyNSIgeTI9IjEzNy44MTI1Ii8+PHRleHQgZmlsbD0iIzAwMDAwMCIgZm9udC1mYW1pbHk9InNhbnMtc2VyaWYiIGZvbnQtc2l6ZT0iMTMiIGxlbmd0aEFkanVzdD0ic3BhY2luZyIgdGV4dExlbmd0aD0iOTAiIHg9IjE1NSIgeT0iMTM0LjE4NzUiPkZvcndhcmQgcXVlcnk8L3RleHQ+PHBvbHlnb24gZmlsbD0iIzE4MTgxOCIgcG9pbnRzPSI2NzYsMTYxLjcyNjYsNjg2LDE2NS43MjY2LDY3NiwxNjkuNzI2Niw2ODAsMTY1LjcyNjYiIHN0eWxlPSJzdHJva2U6IzE4MTgxODtzdHJva2Utd2lkdGg6MS4wOyIvPjxsaW5lIHN0eWxlPSJzdHJva2U6IzE4MTgxODtzdHJva2Utd2lkdGg6MS4wOyIgeDE9IjMyMiIgeDI9IjY4MiIgeTE9IjE2NS43MjY2IiB5Mj0iMTY1LjcyNjYiLz48dGV4dCBmaWxsPSIjMDAwMDAwIiBmb250LWZhbWlseT0ic2Fucy1zZXJpZiIgZm9udC1zaXplPSIxMyIgbGVuZ3RoQWRqdXN0PSJzcGFjaW5nIiB0ZXh0TGVuZ3RoPSIxOTAiIHg9IjMyOSIgeT0iMTYyLjEwMTYiPlJldHJpZXZlIHJlbGV2YW50IGVtYmVkZGluZ3M8L3RleHQ+PHBvbHlnb24gZmlsbD0iIzE4MTgxOCIgcG9pbnRzPSIzMzMsMTg5LjY0MDYsMzIzLDE5My42NDA2LDMzMywxOTcuNjQwNiwzMjksMTkzLjY0MDYiIHN0eWxlPSJzdHJva2U6IzE4MTgxODtzdHJva2Utd2lkdGg6MS4wOyIvPjxsaW5lIHN0eWxlPSJzdHJva2U6IzE4MTgxODtzdHJva2Utd2lkdGg6MS4wO3N0cm9rZS1kYXNoYXJyYXk6Mi4wLDIuMDsiIHgxPSIzMjciIHgyPSI2ODciIHkxPSIxOTMuNjQwNiIgeTI9IjE5My42NDA2Ii8+PHRleHQgZmlsbD0iIzAwMDAwMCIgZm9udC1mYW1pbHk9InNhbnMtc2VyaWYiIGZvbnQtc2l6ZT0iMTMiIGxlbmd0aEFkanVzdD0ic3BhY2luZyIgdGV4dExlbmd0aD0iMjIzIiB4PSIzMzkiIHk9IjE5MC4wMTU2Ij5SZXR1cm4gbWF0Y2hpbmcgZG9jdW1lbnQgc2VnbWVudHM8L3RleHQ+PHBvbHlnb24gZmlsbD0iIzE4MTgxOCIgcG9pbnRzPSI1NTQsMjE3LjU1NDcsNTY0LDIyMS41NTQ3LDU1NCwyMjUuNTU0Nyw1NTgsMjIxLjU1NDciIHN0eWxlPSJzdHJva2U6IzE4MTgxODtzdHJva2Utd2lkdGg6MS4wOyIvPjxsaW5lIHN0eWxlPSJzdHJva2U6IzE4MTgxODtzdHJva2Utd2lkdGg6MS4wOyIgeDE9IjMyMiIgeDI9IjU2MCIgeTE9IjIyMS41NTQ3IiB5Mj0iMjIxLjU1NDciLz48dGV4dCBmaWxsPSIjMDAwMDAwIiBmb250LWZhbWlseT0ic2Fucy1zZXJpZiIgZm9udC1zaXplPSIxMyIgbGVuZ3RoQWRqdXN0PSJzcGFjaW5nIiB0ZXh0TGVuZ3RoPSIyMjAiIHg9IjMyOSIgeT0iMjE3LjkyOTciPlJlZmluZSBxdWVyeSBhbmQgZ2VuZXJhdGUgYW5zd2VyPC90ZXh0Pjxwb2x5Z29uIGZpbGw9IiMxODE4MTgiIHBvaW50cz0iMzMzLDI0NS40Njg4LDMyMywyNDkuNDY4OCwzMzMsMjUzLjQ2ODgsMzI5LDI0OS40Njg4IiBzdHlsZT0ic3Ryb2tlOiMxODE4MTg7c3Ryb2tlLXdpZHRoOjEuMDsiLz48bGluZSBzdHlsZT0ic3Ryb2tlOiMxODE4MTg7c3Ryb2tlLXdpZHRoOjEuMDtzdHJva2UtZGFzaGFycmF5OjIuMCwyLjA7IiB4MT0iMzI3IiB4Mj0iNTY1IiB5MT0iMjQ5LjQ2ODgiIHkyPSIyNDkuNDY4OCIvPjx0ZXh0IGZpbGw9IiMwMDAwMDAiIGZvbnQtZmFtaWx5PSJzYW5zLXNlcmlmIiBmb250LXNpemU9IjEzIiBsZW5ndGhBZGp1c3Q9InNwYWNpbmciIHRleHRMZW5ndGg9IjEwOSIgeD0iMzM5IiB5PSIyNDUuODQzOCI+UmV0dXJuIFFBIHJlc3VsdDwvdGV4dD48cG9seWdvbiBmaWxsPSIjMTgxODE4IiBwb2ludHM9IjE1OSwyNzMuMzgyOCwxNDksMjc3LjM4MjgsMTU5LDI4MS4zODI4LDE1NSwyNzcuMzgyOCIgc3R5bGU9InN0cm9rZTojMTgxODE4O3N0cm9rZS13aWR0aDoxLjA7Ii8+PGxpbmUgc3R5bGU9InN0cm9rZTojMTgxODE4O3N0cm9rZS13aWR0aDoxLjA7IiB4MT0iMTUzIiB4Mj0iMzIxIiB5MT0iMjc3LjM4MjgiIHkyPSIyNzcuMzgyOCIvPjx0ZXh0IGZpbGw9IiMwMDAwMDAiIGZvbnQtZmFtaWx5PSJzYW5zLXNlcmlmIiBmb250LXNpemU9IjEzIiBsZW5ndGhBZGp1c3Q9InNwYWNpbmciIHRleHRMZW5ndGg9IjE1MCIgeD0iMTY1IiB5PSIyNzMuNzU3OCI+RGlzcGxheSBhbnN3ZXIgdG8gVXNlcjwvdGV4dD48IS0tU1JDPVtQUDMxUmVHbTM0SmxWOE1yel9xMTNmTDBRMkxrUkg3UmltYko2WEsyVEc4aF9kdVRNMHdlOW9rUHZuZFJSQzhlTDdqOENoNDRRLXA0QmozYjJtdEx2T05PUXBiQkVQalZrOVFvenJ0TlVXUW9hWkI3X1VnamZtZ29NOENUQkFpcFVDVU1Oa0lSVjJfbzk4Y0pxRkxER3JFZ3ZjUW1XSnVvLWZpWFFyQU5LVDZ1YjZ3WkY1WlFidzFWS0w2M2IzdUhuNjgxMk5laUNHUDNXeFFyaGxFOTRkR3pGOUlTblQ3MG1Wb2VJa3Jldlc3UXVENzV3V3pWZEpsSXR6UFgzb0pNekppdTIwVmVtcF9xVjRoenl6UkgxTnhrbXM0THJvZ2lkdGZVTnRxS25rdHlKbTAwXS0tPjwvZz48L3N2Zz4=;" vertex="1" parent="1">
            <mxGeometry x="-1059" y="2850" width="1272.19" height="650" as="geometry" />
          </mxCell>
        </UserObject>
        <mxCell id="Ga83Rux7IgtjKA9Vw9Vb-20" value="8. Document Suggestion Flow" style="text;html=1;align=center;verticalAlign=middle;resizable=0;points=[];autosize=1;strokeColor=none;fillColor=none;fontSize=16;" vertex="1" parent="1">
          <mxGeometry x="-1069" y="3540" width="231" height="31" as="geometry" />
        </mxCell>
        <UserObject label="" plantUmlData="{&#xa;  &quot;data&quot;: &quot;@startuml\nparticipant \&quot;Orchestration Service\&quot; as OS\nparticipant \&quot;AI Analysis Service\&quot; as AIS\nparticipant \&quot;Backend API\&quot; as API\n\nOS -&gt; AIS: Request standardized document suggestions\nAIS -&gt; AIS: Analyze best practices (Agile, Scrum, etc.)\nAIS --&gt; OS: Return document templates/suggestions\nOS -&gt; API: Send suggestions for display\nAPI --&gt; OS: Acknowledge\n@enduml\n&quot;,&#xa;  &quot;format&quot;: &quot;svg&quot;&#xa;}" id="Ga83Rux7IgtjKA9Vw9Vb-21">
          <mxCell style="shape=image;noLabel=1;verticalAlign=top;aspect=fixed;imageAspect=0;image=data:image/svg+xml,PD94bWwgdmVyc2lvbj0iMS4wIiBlbmNvZGluZz0idXMtYXNjaWkiIHN0YW5kYWxvbmU9Im5vIj8+PHN2ZyB4bWxucz0iaHR0cDovL3d3dy53My5vcmcvMjAwMC9zdmciIHhtbG5zOnhsaW5rPSJodHRwOi8vd3d3LnczLm9yZy8xOTk5L3hsaW5rIiBjb250ZW50U3R5bGVUeXBlPSJ0ZXh0L2NzcyIgaGVpZ2h0PSIyNDFweCIgcHJlc2VydmVBc3BlY3RSYXRpbz0ibm9uZSIgc3R5bGU9IndpZHRoOjc0M3B4O2hlaWdodDoyNDFweDtiYWNrZ3JvdW5kOiNGRkZGRkY7IiB2ZXJzaW9uPSIxLjEiIHZpZXdCb3g9IjAgMCA3NDMgMjQxIiB3aWR0aD0iNzQzcHgiIHpvb21BbmRQYW49Im1hZ25pZnkiPjxkZWZzLz48Zz48bGluZSBzdHlsZT0ic3Ryb2tlOiMxODE4MTg7c3Ryb2tlLXdpZHRoOjAuNTtzdHJva2UtZGFzaGFycmF5OjUuMCw1LjA7IiB4MT0iODUiIHgyPSI4NSIgeTE9IjM0Ljk4NDQiIHkyPSIyMDcuNTU0NyIvPjxsaW5lIHN0eWxlPSJzdHJva2U6IzE4MTgxODtzdHJva2Utd2lkdGg6MC41O3N0cm9rZS1kYXNoYXJyYXk6NS4wLDUuMDsiIHgxPSIzODkiIHgyPSIzODkiIHkxPSIzNC45ODQ0IiB5Mj0iMjA3LjU1NDciLz48bGluZSBzdHlsZT0ic3Ryb2tlOiMxODE4MTg7c3Ryb2tlLXdpZHRoOjAuNTtzdHJva2UtZGFzaGFycmF5OjUuMCw1LjA7IiB4MT0iNjkxIiB4Mj0iNjkxIiB5MT0iMzQuOTg0NCIgeTI9IjIwNy41NTQ3Ii8+PHJlY3QgZmlsbD0iI0UyRTJGMCIgaGVpZ2h0PSIyOC45ODQ0IiByeD0iMi41IiByeT0iMi41IiBzdHlsZT0ic3Ryb2tlOiMxODE4MTg7c3Ryb2tlLXdpZHRoOjAuNTsiIHdpZHRoPSIxNjEiIHg9IjUiIHk9IjUiLz48dGV4dCBmaWxsPSIjMDAwMDAwIiBmb250LWZhbWlseT0ic2Fucy1zZXJpZiIgZm9udC1zaXplPSIxNCIgbGVuZ3RoQWRqdXN0PSJzcGFjaW5nIiB0ZXh0TGVuZ3RoPSIxNDciIHg9IjEyIiB5PSIyNS4yMzQ0Ij5PcmNoZXN0cmF0aW9uIFNlcnZpY2U8L3RleHQ+PHJlY3QgZmlsbD0iI0UyRTJGMCIgaGVpZ2h0PSIyOC45ODQ0IiByeD0iMi41IiByeT0iMi41IiBzdHlsZT0ic3Ryb2tlOiMxODE4MTg7c3Ryb2tlLXdpZHRoOjAuNTsiIHdpZHRoPSIxNjEiIHg9IjUiIHk9IjIwNi41NTQ3Ii8+PHRleHQgZmlsbD0iIzAwMDAwMCIgZm9udC1mYW1pbHk9InNhbnMtc2VyaWYiIGZvbnQtc2l6ZT0iMTQiIGxlbmd0aEFkanVzdD0ic3BhY2luZyIgdGV4dExlbmd0aD0iMTQ3IiB4PSIxMiIgeT0iMjI2Ljc4OTEiPk9yY2hlc3RyYXRpb24gU2VydmljZTwvdGV4dD48cmVjdCBmaWxsPSIjRTJFMkYwIiBoZWlnaHQ9IjI4Ljk4NDQiIHJ4PSIyLjUiIHJ5PSIyLjUiIHN0eWxlPSJzdHJva2U6IzE4MTgxODtzdHJva2Utd2lkdGg6MC41OyIgd2lkdGg9IjE0NyIgeD0iMzE2IiB5PSI1Ii8+PHRleHQgZmlsbD0iIzAwMDAwMCIgZm9udC1mYW1pbHk9InNhbnMtc2VyaWYiIGZvbnQtc2l6ZT0iMTQiIGxlbmd0aEFkanVzdD0ic3BhY2luZyIgdGV4dExlbmd0aD0iMTMzIiB4PSIzMjMiIHk9IjI1LjIzNDQiPkFJIEFuYWx5c2lzIFNlcnZpY2U8L3RleHQ+PHJlY3QgZmlsbD0iI0UyRTJGMCIgaGVpZ2h0PSIyOC45ODQ0IiByeD0iMi41IiByeT0iMi41IiBzdHlsZT0ic3Ryb2tlOiMxODE4MTg7c3Ryb2tlLXdpZHRoOjAuNTsiIHdpZHRoPSIxNDciIHg9IjMxNiIgeT0iMjA2LjU1NDciLz48dGV4dCBmaWxsPSIjMDAwMDAwIiBmb250LWZhbWlseT0ic2Fucy1zZXJpZiIgZm9udC1zaXplPSIxNCIgbGVuZ3RoQWRqdXN0PSJzcGFjaW5nIiB0ZXh0TGVuZ3RoPSIxMzMiIHg9IjMyMyIgeT0iMjI2Ljc4OTEiPkFJIEFuYWx5c2lzIFNlcnZpY2U8L3RleHQ+PHJlY3QgZmlsbD0iI0UyRTJGMCIgaGVpZ2h0PSIyOC45ODQ0IiByeD0iMi41IiByeT0iMi41IiBzdHlsZT0ic3Ryb2tlOiMxODE4MTg7c3Ryb2tlLXdpZHRoOjAuNTsiIHdpZHRoPSI5MSIgeD0iNjQ2IiB5PSI1Ii8+PHRleHQgZmlsbD0iIzAwMDAwMCIgZm9udC1mYW1pbHk9InNhbnMtc2VyaWYiIGZvbnQtc2l6ZT0iMTQiIGxlbmd0aEFkanVzdD0ic3BhY2luZyIgdGV4dExlbmd0aD0iNzciIHg9IjY1MyIgeT0iMjUuMjM0NCI+QmFja2VuZCBBUEk8L3RleHQ+PHJlY3QgZmlsbD0iI0UyRTJGMCIgaGVpZ2h0PSIyOC45ODQ0IiByeD0iMi41IiByeT0iMi41IiBzdHlsZT0ic3Ryb2tlOiMxODE4MTg7c3Ryb2tlLXdpZHRoOjAuNTsiIHdpZHRoPSI5MSIgeD0iNjQ2IiB5PSIyMDYuNTU0NyIvPjx0ZXh0IGZpbGw9IiMwMDAwMDAiIGZvbnQtZmFtaWx5PSJzYW5zLXNlcmlmIiBmb250LXNpemU9IjE0IiBsZW5ndGhBZGp1c3Q9InNwYWNpbmciIHRleHRMZW5ndGg9Ijc3IiB4PSI2NTMiIHk9IjIyNi43ODkxIj5CYWNrZW5kIEFQSTwvdGV4dD48cG9seWdvbiBmaWxsPSIjMTgxODE4IiBwb2ludHM9IjM3Ny41LDYwLjg5ODQsMzg3LjUsNjQuODk4NCwzNzcuNSw2OC44OTg0LDM4MS41LDY0Ljg5ODQiIHN0eWxlPSJzdHJva2U6IzE4MTgxODtzdHJva2Utd2lkdGg6MS4wOyIvPjxsaW5lIHN0eWxlPSJzdHJva2U6IzE4MTgxODtzdHJva2Utd2lkdGg6MS4wOyIgeDE9Ijg1LjUiIHgyPSIzODMuNSIgeTE9IjY0Ljg5ODQiIHkyPSI2NC44OTg0Ii8+PHRleHQgZmlsbD0iIzAwMDAwMCIgZm9udC1mYW1pbHk9InNhbnMtc2VyaWYiIGZvbnQtc2l6ZT0iMTMiIGxlbmd0aEFkanVzdD0ic3BhY2luZyIgdGV4dExlbmd0aD0iMjgwIiB4PSI5Mi41IiB5PSI2MS4yNzM0Ij5SZXF1ZXN0IHN0YW5kYXJkaXplZCBkb2N1bWVudCBzdWdnZXN0aW9uczwvdGV4dD48bGluZSBzdHlsZT0ic3Ryb2tlOiMxODE4MTg7c3Ryb2tlLXdpZHRoOjEuMDsiIHgxPSIzODkuNSIgeDI9IjQzMS41IiB5MT0iOTIuODEyNSIgeTI9IjkyLjgxMjUiLz48bGluZSBzdHlsZT0ic3Ryb2tlOiMxODE4MTg7c3Ryb2tlLXdpZHRoOjEuMDsiIHgxPSI0MzEuNSIgeDI9IjQzMS41IiB5MT0iOTIuODEyNSIgeTI9IjEwNS44MTI1Ii8+PGxpbmUgc3R5bGU9InN0cm9rZTojMTgxODE4O3N0cm9rZS13aWR0aDoxLjA7IiB4MT0iMzkwLjUiIHgyPSI0MzEuNSIgeTE9IjEwNS44MTI1IiB5Mj0iMTA1LjgxMjUiLz48cG9seWdvbiBmaWxsPSIjMTgxODE4IiBwb2ludHM9IjQwMC41LDEwMS44MTI1LDM5MC41LDEwNS44MTI1LDQwMC41LDEwOS44MTI1LDM5Ni41LDEwNS44MTI1IiBzdHlsZT0ic3Ryb2tlOiMxODE4MTg7c3Ryb2tlLXdpZHRoOjEuMDsiLz48dGV4dCBmaWxsPSIjMDAwMDAwIiBmb250LWZhbWlseT0ic2Fucy1zZXJpZiIgZm9udC1zaXplPSIxMyIgbGVuZ3RoQWRqdXN0PSJzcGFjaW5nIiB0ZXh0TGVuZ3RoPSIyODgiIHg9IjM5Ni41IiB5PSI4OS4xODc1Ij5BbmFseXplIGJlc3QgcHJhY3RpY2VzIChBZ2lsZSwgU2NydW0sIGV0Yy4pPC90ZXh0Pjxwb2x5Z29uIGZpbGw9IiMxODE4MTgiIHBvaW50cz0iOTYuNSwxMjkuNzI2Niw4Ni41LDEzMy43MjY2LDk2LjUsMTM3LjcyNjYsOTIuNSwxMzMuNzI2NiIgc3R5bGU9InN0cm9rZTojMTgxODE4O3N0cm9rZS13aWR0aDoxLjA7Ii8+PGxpbmUgc3R5bGU9InN0cm9rZTojMTgxODE4O3N0cm9rZS13aWR0aDoxLjA7c3Ryb2tlLWRhc2hhcnJheToyLjAsMi4wOyIgeDE9IjkwLjUiIHgyPSIzODguNSIgeTE9IjEzMy43MjY2IiB5Mj0iMTMzLjcyNjYiLz48dGV4dCBmaWxsPSIjMDAwMDAwIiBmb250LWZhbWlseT0ic2Fucy1zZXJpZiIgZm9udC1zaXplPSIxMyIgbGVuZ3RoQWRqdXN0PSJzcGFjaW5nIiB0ZXh0TGVuZ3RoPSIyNTAiIHg9IjEwMi41IiB5PSIxMzAuMTAxNiI+UmV0dXJuIGRvY3VtZW50IHRlbXBsYXRlcy9zdWdnZXN0aW9uczwvdGV4dD48cG9seWdvbiBmaWxsPSIjMTgxODE4IiBwb2ludHM9IjY3OS41LDE1Ny42NDA2LDY4OS41LDE2MS42NDA2LDY3OS41LDE2NS42NDA2LDY4My41LDE2MS42NDA2IiBzdHlsZT0ic3Ryb2tlOiMxODE4MTg7c3Ryb2tlLXdpZHRoOjEuMDsiLz48bGluZSBzdHlsZT0ic3Ryb2tlOiMxODE4MTg7c3Ryb2tlLXdpZHRoOjEuMDsiIHgxPSI4NS41IiB4Mj0iNjg1LjUiIHkxPSIxNjEuNjQwNiIgeTI9IjE2MS42NDA2Ii8+PHRleHQgZmlsbD0iIzAwMDAwMCIgZm9udC1mYW1pbHk9InNhbnMtc2VyaWYiIGZvbnQtc2l6ZT0iMTMiIGxlbmd0aEFkanVzdD0ic3BhY2luZyIgdGV4dExlbmd0aD0iMTkxIiB4PSI5Mi41IiB5PSIxNTguMDE1NiI+U2VuZCBzdWdnZXN0aW9ucyBmb3IgZGlzcGxheTwvdGV4dD48cG9seWdvbiBmaWxsPSIjMTgxODE4IiBwb2ludHM9Ijk2LjUsMTg1LjU1NDcsODYuNSwxODkuNTU0Nyw5Ni41LDE5My41NTQ3LDkyLjUsMTg5LjU1NDciIHN0eWxlPSJzdHJva2U6IzE4MTgxODtzdHJva2Utd2lkdGg6MS4wOyIvPjxsaW5lIHN0eWxlPSJzdHJva2U6IzE4MTgxODtzdHJva2Utd2lkdGg6MS4wO3N0cm9rZS1kYXNoYXJyYXk6Mi4wLDIuMDsiIHgxPSI5MC41IiB4Mj0iNjkwLjUiIHkxPSIxODkuNTU0NyIgeTI9IjE4OS41NTQ3Ii8+PHRleHQgZmlsbD0iIzAwMDAwMCIgZm9udC1mYW1pbHk9InNhbnMtc2VyaWYiIGZvbnQtc2l6ZT0iMTMiIGxlbmd0aEFkanVzdD0ic3BhY2luZyIgdGV4dExlbmd0aD0iNzUiIHg9IjEwMi41IiB5PSIxODUuOTI5NyI+QWNrbm93bGVkZ2U8L3RleHQ+PCEtLVNSQz1bTk96MUpXQ24zNE50RU9OTDVLVzV6YnFXWExyTUNzOUVPMW1wSDl0OWY3TzJRYS1Gc3c4b2lGUHhfdHlOYjllZTVTbUxEZnRHMXNpTGg2ZDlDQjF5OWs4RGU0OHRrQjhjVkcyVlNKZmdxWi1TM19fMDV3R3p2bVktM3JVVzN5dnIwcG15ZHphVGxGQVhNSUxlbkhuSE9aZm5YQlhHY3picVJVRGVMcmtacGwyUlRVYS1DUm9Uckk5OExpV0FUdHZDNHN6WDg2ZHA1aFpJdV90TEN4NnhqREtjLUpVX3libWNoQW5Gd3dRVlVOdE9zTS1zVk5NM3pxS1c5Wk5odzhvdTlObFF2LUxodVpab0RtMDBdLS0+PC9nPjwvc3ZnPg==;" vertex="1" parent="1">
            <mxGeometry x="-1052" y="3600" width="1334.93" height="433" as="geometry" />
          </mxCell>
        </UserObject>
        <mxCell id="Ga83Rux7IgtjKA9Vw9Vb-22" value="&lt;h3&gt;9. Diagram Generation Flow&lt;/h3&gt;&lt;pre class=&quot;!overflow-visible&quot;&gt;&lt;div class=&quot;contain-inline-size rounded-md border-[0.5px] border-token-border-medium relative bg-token-sidebar-surface-primary dark:bg-gray-950&quot;&gt;&lt;div dir=&quot;ltr&quot; class=&quot;overflow-y-auto p-4&quot;&gt;&lt;/div&gt;&lt;/div&gt;&lt;/pre&gt;" style="text;html=1;align=center;verticalAlign=middle;resizable=0;points=[];autosize=1;strokeColor=none;fillColor=none;fontSize=16;" vertex="1" parent="1">
          <mxGeometry x="-1056" y="4094" width="265" height="72" as="geometry" />
        </mxCell>
        <UserObject label="" plantUmlData="{&#xa;  &quot;data&quot;: &quot;@startuml\nparticipant \&quot;Orchestration Service\&quot; as OS\nparticipant \&quot;Visualization Service\&quot; as VS\nparticipant \&quot;PlantUML Engine\&quot; as PUE\n\nOS -&gt; VS: Request diagram creation (flow, architecture)\nVS -&gt; PUE: Generate diagram using PlantUML/Diagram lib\nPUE --&gt; VS: Return generated diagram\nVS -&gt; OS: Deliver diagram output\n@enduml\n&quot;,&#xa;  &quot;format&quot;: &quot;svg&quot;&#xa;}" id="Ga83Rux7IgtjKA9Vw9Vb-23">
          <mxCell style="shape=image;noLabel=1;verticalAlign=top;aspect=fixed;imageAspect=0;image=data:image/svg+xml,PD94bWwgdmVyc2lvbj0iMS4wIiBlbmNvZGluZz0idXMtYXNjaWkiIHN0YW5kYWxvbmU9Im5vIj8+PHN2ZyB4bWxucz0iaHR0cDovL3d3dy53My5vcmcvMjAwMC9zdmciIHhtbG5zOnhsaW5rPSJodHRwOi8vd3d3LnczLm9yZy8xOTk5L3hsaW5rIiBjb250ZW50U3R5bGVUeXBlPSJ0ZXh0L2NzcyIgaGVpZ2h0PSIyMDBweCIgcHJlc2VydmVBc3BlY3RSYXRpbz0ibm9uZSIgc3R5bGU9IndpZHRoOjc5MXB4O2hlaWdodDoyMDBweDtiYWNrZ3JvdW5kOiNGRkZGRkY7IiB2ZXJzaW9uPSIxLjEiIHZpZXdCb3g9IjAgMCA3OTEgMjAwIiB3aWR0aD0iNzkxcHgiIHpvb21BbmRQYW49Im1hZ25pZnkiPjxkZWZzLz48Zz48bGluZSBzdHlsZT0ic3Ryb2tlOiMxODE4MTg7c3Ryb2tlLXdpZHRoOjAuNTtzdHJva2UtZGFzaGFycmF5OjUuMCw1LjA7IiB4MT0iODUiIHgyPSI4NSIgeTE9IjM0Ljk4NDQiIHkyPSIxNjYuNjQwNiIvPjxsaW5lIHN0eWxlPSJzdHJva2U6IzE4MTgxODtzdHJva2Utd2lkdGg6MC41O3N0cm9rZS1kYXNoYXJyYXk6NS4wLDUuMDsiIHgxPSI0MTAiIHgyPSI0MTAiIHkxPSIzNC45ODQ0IiB5Mj0iMTY2LjY0MDYiLz48bGluZSBzdHlsZT0ic3Ryb2tlOiMxODE4MTg7c3Ryb2tlLXdpZHRoOjAuNTtzdHJva2UtZGFzaGFycmF5OjUuMCw1LjA7IiB4MT0iNzI1IiB4Mj0iNzI1IiB5MT0iMzQuOTg0NCIgeTI9IjE2Ni42NDA2Ii8+PHJlY3QgZmlsbD0iI0UyRTJGMCIgaGVpZ2h0PSIyOC45ODQ0IiByeD0iMi41IiByeT0iMi41IiBzdHlsZT0ic3Ryb2tlOiMxODE4MTg7c3Ryb2tlLXdpZHRoOjAuNTsiIHdpZHRoPSIxNjEiIHg9IjUiIHk9IjUiLz48dGV4dCBmaWxsPSIjMDAwMDAwIiBmb250LWZhbWlseT0ic2Fucy1zZXJpZiIgZm9udC1zaXplPSIxNCIgbGVuZ3RoQWRqdXN0PSJzcGFjaW5nIiB0ZXh0TGVuZ3RoPSIxNDciIHg9IjEyIiB5PSIyNS4yMzQ0Ij5PcmNoZXN0cmF0aW9uIFNlcnZpY2U8L3RleHQ+PHJlY3QgZmlsbD0iI0UyRTJGMCIgaGVpZ2h0PSIyOC45ODQ0IiByeD0iMi41IiByeT0iMi41IiBzdHlsZT0ic3Ryb2tlOiMxODE4MTg7c3Ryb2tlLXdpZHRoOjAuNTsiIHdpZHRoPSIxNjEiIHg9IjUiIHk9IjE2NS42NDA2Ii8+PHRleHQgZmlsbD0iIzAwMDAwMCIgZm9udC1mYW1pbHk9InNhbnMtc2VyaWYiIGZvbnQtc2l6ZT0iMTQiIGxlbmd0aEFkanVzdD0ic3BhY2luZyIgdGV4dExlbmd0aD0iMTQ3IiB4PSIxMiIgeT0iMTg1Ljg3NSI+T3JjaGVzdHJhdGlvbiBTZXJ2aWNlPC90ZXh0PjxyZWN0IGZpbGw9IiNFMkUyRjAiIGhlaWdodD0iMjguOTg0NCIgcng9IjIuNSIgcnk9IjIuNSIgc3R5bGU9InN0cm9rZTojMTgxODE4O3N0cm9rZS13aWR0aDowLjU7IiB3aWR0aD0iMTYxIiB4PSIzMzAiIHk9IjUiLz48dGV4dCBmaWxsPSIjMDAwMDAwIiBmb250LWZhbWlseT0ic2Fucy1zZXJpZiIgZm9udC1zaXplPSIxNCIgbGVuZ3RoQWRqdXN0PSJzcGFjaW5nIiB0ZXh0TGVuZ3RoPSIxNDciIHg9IjMzNyIgeT0iMjUuMjM0NCI+VmlzdWFsaXphdGlvbiBTZXJ2aWNlPC90ZXh0PjxyZWN0IGZpbGw9IiNFMkUyRjAiIGhlaWdodD0iMjguOTg0NCIgcng9IjIuNSIgcnk9IjIuNSIgc3R5bGU9InN0cm9rZTojMTgxODE4O3N0cm9rZS13aWR0aDowLjU7IiB3aWR0aD0iMTYxIiB4PSIzMzAiIHk9IjE2NS42NDA2Ii8+PHRleHQgZmlsbD0iIzAwMDAwMCIgZm9udC1mYW1pbHk9InNhbnMtc2VyaWYiIGZvbnQtc2l6ZT0iMTQiIGxlbmd0aEFkanVzdD0ic3BhY2luZyIgdGV4dExlbmd0aD0iMTQ3IiB4PSIzMzciIHk9IjE4NS44NzUiPlZpc3VhbGl6YXRpb24gU2VydmljZTwvdGV4dD48cmVjdCBmaWxsPSIjRTJFMkYwIiBoZWlnaHQ9IjI4Ljk4NDQiIHJ4PSIyLjUiIHJ5PSIyLjUiIHN0eWxlPSJzdHJva2U6IzE4MTgxODtzdHJva2Utd2lkdGg6MC41OyIgd2lkdGg9IjExOSIgeD0iNjY2IiB5PSI1Ii8+PHRleHQgZmlsbD0iIzAwMDAwMCIgZm9udC1mYW1pbHk9InNhbnMtc2VyaWYiIGZvbnQtc2l6ZT0iMTQiIGxlbmd0aEFkanVzdD0ic3BhY2luZyIgdGV4dExlbmd0aD0iMTA1IiB4PSI2NzMiIHk9IjI1LjIzNDQiPlBsYW50VU1MIEVuZ2luZTwvdGV4dD48cmVjdCBmaWxsPSIjRTJFMkYwIiBoZWlnaHQ9IjI4Ljk4NDQiIHJ4PSIyLjUiIHJ5PSIyLjUiIHN0eWxlPSJzdHJva2U6IzE4MTgxODtzdHJva2Utd2lkdGg6MC41OyIgd2lkdGg9IjExOSIgeD0iNjY2IiB5PSIxNjUuNjQwNiIvPjx0ZXh0IGZpbGw9IiMwMDAwMDAiIGZvbnQtZmFtaWx5PSJzYW5zLXNlcmlmIiBmb250LXNpemU9IjE0IiBsZW5ndGhBZGp1c3Q9InNwYWNpbmciIHRleHRMZW5ndGg9IjEwNSIgeD0iNjczIiB5PSIxODUuODc1Ij5QbGFudFVNTCBFbmdpbmU8L3RleHQ+PHBvbHlnb24gZmlsbD0iIzE4MTgxOCIgcG9pbnRzPSIzOTguNSw2MC44OTg0LDQwOC41LDY0Ljg5ODQsMzk4LjUsNjguODk4NCw0MDIuNSw2NC44OTg0IiBzdHlsZT0ic3Ryb2tlOiMxODE4MTg7c3Ryb2tlLXdpZHRoOjEuMDsiLz48bGluZSBzdHlsZT0ic3Ryb2tlOiMxODE4MTg7c3Ryb2tlLXdpZHRoOjEuMDsiIHgxPSI4NS41IiB4Mj0iNDA0LjUiIHkxPSI2NC44OTg0IiB5Mj0iNjQuODk4NCIvPjx0ZXh0IGZpbGw9IiMwMDAwMDAiIGZvbnQtZmFtaWx5PSJzYW5zLXNlcmlmIiBmb250LXNpemU9IjEzIiBsZW5ndGhBZGp1c3Q9InNwYWNpbmciIHRleHRMZW5ndGg9IjMwMSIgeD0iOTIuNSIgeT0iNjEuMjczNCI+UmVxdWVzdCBkaWFncmFtIGNyZWF0aW9uIChmbG93LCBhcmNoaXRlY3R1cmUpPC90ZXh0Pjxwb2x5Z29uIGZpbGw9IiMxODE4MTgiIHBvaW50cz0iNzEzLjUsODguODEyNSw3MjMuNSw5Mi44MTI1LDcxMy41LDk2LjgxMjUsNzE3LjUsOTIuODEyNSIgc3R5bGU9InN0cm9rZTojMTgxODE4O3N0cm9rZS13aWR0aDoxLjA7Ii8+PGxpbmUgc3R5bGU9InN0cm9rZTojMTgxODE4O3N0cm9rZS13aWR0aDoxLjA7IiB4MT0iNDEwLjUiIHgyPSI3MTkuNSIgeTE9IjkyLjgxMjUiIHkyPSI5Mi44MTI1Ii8+PHRleHQgZmlsbD0iIzAwMDAwMCIgZm9udC1mYW1pbHk9InNhbnMtc2VyaWYiIGZvbnQtc2l6ZT0iMTMiIGxlbmd0aEFkanVzdD0ic3BhY2luZyIgdGV4dExlbmd0aD0iMjkxIiB4PSI0MTcuNSIgeT0iODkuMTg3NSI+R2VuZXJhdGUgZGlhZ3JhbSB1c2luZyBQbGFudFVNTC9EaWFncmFtIGxpYjwvdGV4dD48cG9seWdvbiBmaWxsPSIjMTgxODE4IiBwb2ludHM9IjQyMS41LDExNi43MjY2LDQxMS41LDEyMC43MjY2LDQyMS41LDEyNC43MjY2LDQxNy41LDEyMC43MjY2IiBzdHlsZT0ic3Ryb2tlOiMxODE4MTg7c3Ryb2tlLXdpZHRoOjEuMDsiLz48bGluZSBzdHlsZT0ic3Ryb2tlOiMxODE4MTg7c3Ryb2tlLXdpZHRoOjEuMDtzdHJva2UtZGFzaGFycmF5OjIuMCwyLjA7IiB4MT0iNDE1LjUiIHgyPSI3MjQuNSIgeTE9IjEyMC43MjY2IiB5Mj0iMTIwLjcyNjYiLz48dGV4dCBmaWxsPSIjMDAwMDAwIiBmb250LWZhbWlseT0ic2Fucy1zZXJpZiIgZm9udC1zaXplPSIxMyIgbGVuZ3RoQWRqdXN0PSJzcGFjaW5nIiB0ZXh0TGVuZ3RoPSIxNjQiIHg9IjQyNy41IiB5PSIxMTcuMTAxNiI+UmV0dXJuIGdlbmVyYXRlZCBkaWFncmFtPC90ZXh0Pjxwb2x5Z29uIGZpbGw9IiMxODE4MTgiIHBvaW50cz0iOTYuNSwxNDQuNjQwNiw4Ni41LDE0OC42NDA2LDk2LjUsMTUyLjY0MDYsOTIuNSwxNDguNjQwNiIgc3R5bGU9InN0cm9rZTojMTgxODE4O3N0cm9rZS13aWR0aDoxLjA7Ii8+PGxpbmUgc3R5bGU9InN0cm9rZTojMTgxODE4O3N0cm9rZS13aWR0aDoxLjA7IiB4MT0iOTAuNSIgeDI9IjQwOS41IiB5MT0iMTQ4LjY0MDYiIHkyPSIxNDguNjQwNiIvPjx0ZXh0IGZpbGw9IiMwMDAwMDAiIGZvbnQtZmFtaWx5PSJzYW5zLXNlcmlmIiBmb250LXNpemU9IjEzIiBsZW5ndGhBZGp1c3Q9InNwYWNpbmciIHRleHRMZW5ndGg9IjE0OCIgeD0iMTAyLjUiIHk9IjE0NS4wMTU2Ij5EZWxpdmVyIGRpYWdyYW0gb3V0cHV0PC90ZXh0PjwhLS1TUkM9W1BPeEIyaThtNDROdC1PZ1hBbU41VkhVa01qbWVBUFBzN3pFbjNpSXF2YjcxaHRVbTNxSE5XTjNFa1RDaDVxWEpoc28wSDNmekduLVMyakhQQUQ0RGYzNDF2SzZNZWx5Y1FfOUg2Tmh6YV9LRk1IWC1nakNIU2prSTdQY1lvZU1HOU1wdFpBVG1uYVZhTU1YOGpLeFRHSmlTa3draHdQdVJLN21NMVRHWEVib0Ita0RuOGVLM01rSFpTSjZaOXpsMkZCZEJmY3ozNXk0MlI5VDFKYmJlOXhzUF9RYWo2U2RHcTgxa0FOU256MzZ5MEcwMF0tLT48L2c+PC9zdmc+;" vertex="1" parent="1">
            <mxGeometry x="-1056" y="4169" width="1392.16" height="352" as="geometry" />
          </mxCell>
        </UserObject>
        <mxCell id="Ga83Rux7IgtjKA9Vw9Vb-24" value="&lt;span style=&quot;background-color: rgb(255, 255, 0);&quot;&gt;10. Agile Documentation Generation Flow&lt;/span&gt;" style="text;html=1;align=center;verticalAlign=middle;resizable=0;points=[];autosize=1;strokeColor=none;fillColor=none;fontSize=16;" vertex="1" parent="1">
          <mxGeometry x="-1061.5" y="4574" width="313" height="31" as="geometry" />
        </mxCell>
        <UserObject label="" plantUmlData="{&#xa;  &quot;data&quot;: &quot;@startuml\nparticipant \&quot;Orchestration Service\&quot; as OS\nparticipant \&quot;AI Analysis Service\&quot; as AIS\nparticipant \&quot;Backend API\&quot; as API\n\nOS -&gt; AIS: Request Agile/Scrum document generation\nAIS -&gt; AIS: Process input data and best practices\nAIS --&gt; OS: Return Agile document templates (Grant Chart, etc.)\nOS -&gt; API: Publish documents for user access\nAPI --&gt; OS: Confirm publication\n@enduml\n&quot;,&#xa;  &quot;format&quot;: &quot;svg&quot;&#xa;}" id="Ga83Rux7IgtjKA9Vw9Vb-25">
          <mxCell style="shape=image;noLabel=1;verticalAlign=top;aspect=fixed;imageAspect=0;image=data:image/svg+xml,PD94bWwgdmVyc2lvbj0iMS4wIiBlbmNvZGluZz0idXMtYXNjaWkiIHN0YW5kYWxvbmU9Im5vIj8+PHN2ZyB4bWxucz0iaHR0cDovL3d3dy53My5vcmcvMjAwMC9zdmciIHhtbG5zOnhsaW5rPSJodHRwOi8vd3d3LnczLm9yZy8xOTk5L3hsaW5rIiBjb250ZW50U3R5bGVUeXBlPSJ0ZXh0L2NzcyIgaGVpZ2h0PSIyNDFweCIgcHJlc2VydmVBc3BlY3RSYXRpbz0ibm9uZSIgc3R5bGU9IndpZHRoOjc2OXB4O2hlaWdodDoyNDFweDtiYWNrZ3JvdW5kOiNGRkZGRkY7IiB2ZXJzaW9uPSIxLjEiIHZpZXdCb3g9IjAgMCA3NjkgMjQxIiB3aWR0aD0iNzY5cHgiIHpvb21BbmRQYW49Im1hZ25pZnkiPjxkZWZzLz48Zz48bGluZSBzdHlsZT0ic3Ryb2tlOiMxODE4MTg7c3Ryb2tlLXdpZHRoOjAuNTtzdHJva2UtZGFzaGFycmF5OjUuMCw1LjA7IiB4MT0iODUiIHgyPSI4NSIgeTE9IjM0Ljk4NDQiIHkyPSIyMDcuNTU0NyIvPjxsaW5lIHN0eWxlPSJzdHJva2U6IzE4MTgxODtzdHJva2Utd2lkdGg6MC41O3N0cm9rZS1kYXNoYXJyYXk6NS4wLDUuMDsiIHgxPSI0NTAiIHgyPSI0NTAiIHkxPSIzNC45ODQ0IiB5Mj0iMjA3LjU1NDciLz48bGluZSBzdHlsZT0ic3Ryb2tlOiMxODE4MTg7c3Ryb2tlLXdpZHRoOjAuNTtzdHJva2UtZGFzaGFycmF5OjUuMCw1LjA7IiB4MT0iNzE3IiB4Mj0iNzE3IiB5MT0iMzQuOTg0NCIgeTI9IjIwNy41NTQ3Ii8+PHJlY3QgZmlsbD0iI0UyRTJGMCIgaGVpZ2h0PSIyOC45ODQ0IiByeD0iMi41IiByeT0iMi41IiBzdHlsZT0ic3Ryb2tlOiMxODE4MTg7c3Ryb2tlLXdpZHRoOjAuNTsiIHdpZHRoPSIxNjEiIHg9IjUiIHk9IjUiLz48dGV4dCBmaWxsPSIjMDAwMDAwIiBmb250LWZhbWlseT0ic2Fucy1zZXJpZiIgZm9udC1zaXplPSIxNCIgbGVuZ3RoQWRqdXN0PSJzcGFjaW5nIiB0ZXh0TGVuZ3RoPSIxNDciIHg9IjEyIiB5PSIyNS4yMzQ0Ij5PcmNoZXN0cmF0aW9uIFNlcnZpY2U8L3RleHQ+PHJlY3QgZmlsbD0iI0UyRTJGMCIgaGVpZ2h0PSIyOC45ODQ0IiByeD0iMi41IiByeT0iMi41IiBzdHlsZT0ic3Ryb2tlOiMxODE4MTg7c3Ryb2tlLXdpZHRoOjAuNTsiIHdpZHRoPSIxNjEiIHg9IjUiIHk9IjIwNi41NTQ3Ii8+PHRleHQgZmlsbD0iIzAwMDAwMCIgZm9udC1mYW1pbHk9InNhbnMtc2VyaWYiIGZvbnQtc2l6ZT0iMTQiIGxlbmd0aEFkanVzdD0ic3BhY2luZyIgdGV4dExlbmd0aD0iMTQ3IiB4PSIxMiIgeT0iMjI2Ljc4OTEiPk9yY2hlc3RyYXRpb24gU2VydmljZTwvdGV4dD48cmVjdCBmaWxsPSIjRTJFMkYwIiBoZWlnaHQ9IjI4Ljk4NDQiIHJ4PSIyLjUiIHJ5PSIyLjUiIHN0eWxlPSJzdHJva2U6IzE4MTgxODtzdHJva2Utd2lkdGg6MC41OyIgd2lkdGg9IjE0NyIgeD0iMzc3IiB5PSI1Ii8+PHRleHQgZmlsbD0iIzAwMDAwMCIgZm9udC1mYW1pbHk9InNhbnMtc2VyaWYiIGZvbnQtc2l6ZT0iMTQiIGxlbmd0aEFkanVzdD0ic3BhY2luZyIgdGV4dExlbmd0aD0iMTMzIiB4PSIzODQiIHk9IjI1LjIzNDQiPkFJIEFuYWx5c2lzIFNlcnZpY2U8L3RleHQ+PHJlY3QgZmlsbD0iI0UyRTJGMCIgaGVpZ2h0PSIyOC45ODQ0IiByeD0iMi41IiByeT0iMi41IiBzdHlsZT0ic3Ryb2tlOiMxODE4MTg7c3Ryb2tlLXdpZHRoOjAuNTsiIHdpZHRoPSIxNDciIHg9IjM3NyIgeT0iMjA2LjU1NDciLz48dGV4dCBmaWxsPSIjMDAwMDAwIiBmb250LWZhbWlseT0ic2Fucy1zZXJpZiIgZm9udC1zaXplPSIxNCIgbGVuZ3RoQWRqdXN0PSJzcGFjaW5nIiB0ZXh0TGVuZ3RoPSIxMzMiIHg9IjM4NCIgeT0iMjI2Ljc4OTEiPkFJIEFuYWx5c2lzIFNlcnZpY2U8L3RleHQ+PHJlY3QgZmlsbD0iI0UyRTJGMCIgaGVpZ2h0PSIyOC45ODQ0IiByeD0iMi41IiByeT0iMi41IiBzdHlsZT0ic3Ryb2tlOiMxODE4MTg7c3Ryb2tlLXdpZHRoOjAuNTsiIHdpZHRoPSI5MSIgeD0iNjcyIiB5PSI1Ii8+PHRleHQgZmlsbD0iIzAwMDAwMCIgZm9udC1mYW1pbHk9InNhbnMtc2VyaWYiIGZvbnQtc2l6ZT0iMTQiIGxlbmd0aEFkanVzdD0ic3BhY2luZyIgdGV4dExlbmd0aD0iNzciIHg9IjY3OSIgeT0iMjUuMjM0NCI+QmFja2VuZCBBUEk8L3RleHQ+PHJlY3QgZmlsbD0iI0UyRTJGMCIgaGVpZ2h0PSIyOC45ODQ0IiByeD0iMi41IiByeT0iMi41IiBzdHlsZT0ic3Ryb2tlOiMxODE4MTg7c3Ryb2tlLXdpZHRoOjAuNTsiIHdpZHRoPSI5MSIgeD0iNjcyIiB5PSIyMDYuNTU0NyIvPjx0ZXh0IGZpbGw9IiMwMDAwMDAiIGZvbnQtZmFtaWx5PSJzYW5zLXNlcmlmIiBmb250LXNpemU9IjE0IiBsZW5ndGhBZGp1c3Q9InNwYWNpbmciIHRleHRMZW5ndGg9Ijc3IiB4PSI2NzkiIHk9IjIyNi43ODkxIj5CYWNrZW5kIEFQSTwvdGV4dD48cG9seWdvbiBmaWxsPSIjMTgxODE4IiBwb2ludHM9IjQzOC41LDYwLjg5ODQsNDQ4LjUsNjQuODk4NCw0MzguNSw2OC44OTg0LDQ0Mi41LDY0Ljg5ODQiIHN0eWxlPSJzdHJva2U6IzE4MTgxODtzdHJva2Utd2lkdGg6MS4wOyIvPjxsaW5lIHN0eWxlPSJzdHJva2U6IzE4MTgxODtzdHJva2Utd2lkdGg6MS4wOyIgeDE9Ijg1LjUiIHgyPSI0NDQuNSIgeTE9IjY0Ljg5ODQiIHkyPSI2NC44OTg0Ii8+PHRleHQgZmlsbD0iIzAwMDAwMCIgZm9udC1mYW1pbHk9InNhbnMtc2VyaWYiIGZvbnQtc2l6ZT0iMTMiIGxlbmd0aEFkanVzdD0ic3BhY2luZyIgdGV4dExlbmd0aD0iMjY1IiB4PSI5Mi41IiB5PSI2MS4yNzM0Ij5SZXF1ZXN0IEFnaWxlL1NjcnVtIGRvY3VtZW50IGdlbmVyYXRpb248L3RleHQ+PGxpbmUgc3R5bGU9InN0cm9rZTojMTgxODE4O3N0cm9rZS13aWR0aDoxLjA7IiB4MT0iNDUwLjUiIHgyPSI0OTIuNSIgeTE9IjkyLjgxMjUiIHkyPSI5Mi44MTI1Ii8+PGxpbmUgc3R5bGU9InN0cm9rZTojMTgxODE4O3N0cm9rZS13aWR0aDoxLjA7IiB4MT0iNDkyLjUiIHgyPSI0OTIuNSIgeTE9IjkyLjgxMjUiIHkyPSIxMDUuODEyNSIvPjxsaW5lIHN0eWxlPSJzdHJva2U6IzE4MTgxODtzdHJva2Utd2lkdGg6MS4wOyIgeDE9IjQ1MS41IiB4Mj0iNDkyLjUiIHkxPSIxMDUuODEyNSIgeTI9IjEwNS44MTI1Ii8+PHBvbHlnb24gZmlsbD0iIzE4MTgxOCIgcG9pbnRzPSI0NjEuNSwxMDEuODEyNSw0NTEuNSwxMDUuODEyNSw0NjEuNSwxMDkuODEyNSw0NTcuNSwxMDUuODEyNSIgc3R5bGU9InN0cm9rZTojMTgxODE4O3N0cm9rZS13aWR0aDoxLjA7Ii8+PHRleHQgZmlsbD0iIzAwMDAwMCIgZm9udC1mYW1pbHk9InNhbnMtc2VyaWYiIGZvbnQtc2l6ZT0iMTMiIGxlbmd0aEFkanVzdD0ic3BhY2luZyIgdGV4dExlbmd0aD0iMjUzIiB4PSI0NTcuNSIgeT0iODkuMTg3NSI+UHJvY2VzcyBpbnB1dCBkYXRhIGFuZCBiZXN0IHByYWN0aWNlczwvdGV4dD48cG9seWdvbiBmaWxsPSIjMTgxODE4IiBwb2ludHM9Ijk2LjUsMTI5LjcyNjYsODYuNSwxMzMuNzI2Niw5Ni41LDEzNy43MjY2LDkyLjUsMTMzLjcyNjYiIHN0eWxlPSJzdHJva2U6IzE4MTgxODtzdHJva2Utd2lkdGg6MS4wOyIvPjxsaW5lIHN0eWxlPSJzdHJva2U6IzE4MTgxODtzdHJva2Utd2lkdGg6MS4wO3N0cm9rZS1kYXNoYXJyYXk6Mi4wLDIuMDsiIHgxPSI5MC41IiB4Mj0iNDQ5LjUiIHkxPSIxMzMuNzI2NiIgeTI9IjEzMy43MjY2Ii8+PHRleHQgZmlsbD0iIzAwMDAwMCIgZm9udC1mYW1pbHk9InNhbnMtc2VyaWYiIGZvbnQtc2l6ZT0iMTMiIGxlbmd0aEFkanVzdD0ic3BhY2luZyIgdGV4dExlbmd0aD0iMzQxIiB4PSIxMDIuNSIgeT0iMTMwLjEwMTYiPlJldHVybiBBZ2lsZSBkb2N1bWVudCB0ZW1wbGF0ZXMgKEdyYW50IENoYXJ0LCBldGMuKTwvdGV4dD48cG9seWdvbiBmaWxsPSIjMTgxODE4IiBwb2ludHM9IjcwNS41LDE1Ny42NDA2LDcxNS41LDE2MS42NDA2LDcwNS41LDE2NS42NDA2LDcwOS41LDE2MS42NDA2IiBzdHlsZT0ic3Ryb2tlOiMxODE4MTg7c3Ryb2tlLXdpZHRoOjEuMDsiLz48bGluZSBzdHlsZT0ic3Ryb2tlOiMxODE4MTg7c3Ryb2tlLXdpZHRoOjEuMDsiIHgxPSI4NS41IiB4Mj0iNzExLjUiIHkxPSIxNjEuNjQwNiIgeTI9IjE2MS42NDA2Ii8+PHRleHQgZmlsbD0iIzAwMDAwMCIgZm9udC1mYW1pbHk9InNhbnMtc2VyaWYiIGZvbnQtc2l6ZT0iMTMiIGxlbmd0aEFkanVzdD0ic3BhY2luZyIgdGV4dExlbmd0aD0iMjI2IiB4PSI5Mi41IiB5PSIxNTguMDE1NiI+UHVibGlzaCBkb2N1bWVudHMgZm9yIHVzZXIgYWNjZXNzPC90ZXh0Pjxwb2x5Z29uIGZpbGw9IiMxODE4MTgiIHBvaW50cz0iOTYuNSwxODUuNTU0Nyw4Ni41LDE4OS41NTQ3LDk2LjUsMTkzLjU1NDcsOTIuNSwxODkuNTU0NyIgc3R5bGU9InN0cm9rZTojMTgxODE4O3N0cm9rZS13aWR0aDoxLjA7Ii8+PGxpbmUgc3R5bGU9InN0cm9rZTojMTgxODE4O3N0cm9rZS13aWR0aDoxLjA7c3Ryb2tlLWRhc2hhcnJheToyLjAsMi4wOyIgeDE9IjkwLjUiIHgyPSI3MTYuNSIgeTE9IjE4OS41NTQ3IiB5Mj0iMTg5LjU1NDciLz48dGV4dCBmaWxsPSIjMDAwMDAwIiBmb250LWZhbWlseT0ic2Fucy1zZXJpZiIgZm9udC1zaXplPSIxMyIgbGVuZ3RoQWRqdXN0PSJzcGFjaW5nIiB0ZXh0TGVuZ3RoPSIxMjYiIHg9IjEwMi41IiB5PSIxODUuOTI5NyI+Q29uZmlybSBwdWJsaWNhdGlvbjwvdGV4dD48IS0tU1JDPVtOT3hCSmlDbTQ0TnRfZWZITHFNMlRpeTJvTkkxbDRmNGxjMHdjSk9NWU1yY1IySi03aGlIdVI0X3Z2d1JLQjhkZHAxYXM3TDI0c2lNcDN1NjY1Vy1GRjRFS0E0UkpGZkRNV1NzdUZvZk5sem1ybHEzZHY3VUU4bldVeFMybEpFYzYtM1hnUjZGeUNobGZJUjFObHRDbnU2YUIzMTZBV2pOLXlnMXJwRWNtZmxKSW9ITTFIeklvSjFZSGkyUUVCVVQ5NFlycGhlUUxVYmtiTG1haDk2Vi1TbkJjWjZwbWx2NXNqbEpMQV9WMHNTd3Q3c1Z4NXFEYmxGaVRUZkNYS2lLQUNlMklFc0FnVFdNRXlMbXlSOTBRWFJUeGR5MV0tLT48L2c+PC9zdmc+;" vertex="1" parent="1">
            <mxGeometry x="-1047.5" y="4625" width="1336.98" height="419" as="geometry" />
          </mxCell>
        </UserObject>
        <mxCell id="Ga83Rux7IgtjKA9Vw9Vb-27" value="11. Project Progress Reporting Flow" style="text;html=1;align=center;verticalAlign=middle;resizable=0;points=[];autosize=1;strokeColor=none;fillColor=none;fontSize=16;" vertex="1" parent="1">
          <mxGeometry x="-1052" y="5120" width="274" height="31" as="geometry" />
        </mxCell>
        <mxCell id="Ga83Rux7IgtjKA9Vw9Vb-29" value="12. Bug/Issue Tracking Flow" style="text;html=1;align=center;verticalAlign=middle;resizable=0;points=[];autosize=1;strokeColor=none;fillColor=none;fontSize=16;" vertex="1" parent="1">
          <mxGeometry x="-1033" y="5679" width="219" height="31" as="geometry" />
        </mxCell>
        <UserObject label="" plantUmlData="{&#xa;  &quot;data&quot;: &quot;@startuml\nparticipant \&quot;Orchestration Service\&quot; as OS\nparticipant \&quot;Backend API\&quot; as API\nactor \&quot;Project Manager\&quot; as PM\n\nOS -&gt; API: Request project status update (Grant Chart data)\nAPI -&gt; API: Aggregate data from various sources\nAPI --&gt; OS: Return project progress details\nOS -&gt; PM: Display Grant Chart and progress report\n@enduml\n&quot;,&#xa;  &quot;format&quot;: &quot;svg&quot;&#xa;}" id="Ga83Rux7IgtjKA9Vw9Vb-30">
          <mxCell style="shape=image;noLabel=1;verticalAlign=top;aspect=fixed;imageAspect=0;image=data:image/svg+xml,PD94bWwgdmVyc2lvbj0iMS4wIiBlbmNvZGluZz0idXMtYXNjaWkiIHN0YW5kYWxvbmU9Im5vIj8+PHN2ZyB4bWxucz0iaHR0cDovL3d3dy53My5vcmcvMjAwMC9zdmciIHhtbG5zOnhsaW5rPSJodHRwOi8vd3d3LnczLm9yZy8xOTk5L3hsaW5rIiBjb250ZW50U3R5bGVUeXBlPSJ0ZXh0L2NzcyIgaGVpZ2h0PSIzMDRweCIgcHJlc2VydmVBc3BlY3RSYXRpbz0ibm9uZSIgc3R5bGU9IndpZHRoOjc0NnB4O2hlaWdodDozMDRweDtiYWNrZ3JvdW5kOiNGRkZGRkY7IiB2ZXJzaW9uPSIxLjEiIHZpZXdCb3g9IjAgMCA3NDYgMzA0IiB3aWR0aD0iNzQ2cHgiIHpvb21BbmRQYW49Im1hZ25pZnkiPjxkZWZzLz48Zz48bGluZSBzdHlsZT0ic3Ryb2tlOiMxODE4MTg7c3Ryb2tlLXdpZHRoOjAuNTtzdHJva2UtZGFzaGFycmF5OjUuMCw1LjA7IiB4MT0iODUiIHgyPSI4NSIgeTE9Ijc5Ljk4NDQiIHkyPSIyMjQuNjQwNiIvPjxsaW5lIHN0eWxlPSJzdHJva2U6IzE4MTgxODtzdHJva2Utd2lkdGg6MC41O3N0cm9rZS1kYXNoYXJyYXk6NS4wLDUuMDsiIHgxPSI0MzUiIHgyPSI0MzUiIHkxPSI3OS45ODQ0IiB5Mj0iMjI0LjY0MDYiLz48bGluZSBzdHlsZT0ic3Ryb2tlOiMxODE4MTg7c3Ryb2tlLXdpZHRoOjAuNTtzdHJva2UtZGFzaGFycmF5OjUuMCw1LjA7IiB4MT0iNjg5IiB4Mj0iNjg5IiB5MT0iNzkuOTg0NCIgeTI9IjIyNC42NDA2Ii8+PHJlY3QgZmlsbD0iI0UyRTJGMCIgaGVpZ2h0PSIyOC45ODQ0IiByeD0iMi41IiByeT0iMi41IiBzdHlsZT0ic3Ryb2tlOiMxODE4MTg7c3Ryb2tlLXdpZHRoOjAuNTsiIHdpZHRoPSIxNjEiIHg9IjUiIHk9IjUwIi8+PHRleHQgZmlsbD0iIzAwMDAwMCIgZm9udC1mYW1pbHk9InNhbnMtc2VyaWYiIGZvbnQtc2l6ZT0iMTQiIGxlbmd0aEFkanVzdD0ic3BhY2luZyIgdGV4dExlbmd0aD0iMTQ3IiB4PSIxMiIgeT0iNzAuMjM0NCI+T3JjaGVzdHJhdGlvbiBTZXJ2aWNlPC90ZXh0PjxyZWN0IGZpbGw9IiNFMkUyRjAiIGhlaWdodD0iMjguOTg0NCIgcng9IjIuNSIgcnk9IjIuNSIgc3R5bGU9InN0cm9rZTojMTgxODE4O3N0cm9rZS13aWR0aDowLjU7IiB3aWR0aD0iMTYxIiB4PSI1IiB5PSIyMjMuNjQwNiIvPjx0ZXh0IGZpbGw9IiMwMDAwMDAiIGZvbnQtZmFtaWx5PSJzYW5zLXNlcmlmIiBmb250LXNpemU9IjE0IiBsZW5ndGhBZGp1c3Q9InNwYWNpbmciIHRleHRMZW5ndGg9IjE0NyIgeD0iMTIiIHk9IjI0My44NzUiPk9yY2hlc3RyYXRpb24gU2VydmljZTwvdGV4dD48cmVjdCBmaWxsPSIjRTJFMkYwIiBoZWlnaHQ9IjI4Ljk4NDQiIHJ4PSIyLjUiIHJ5PSIyLjUiIHN0eWxlPSJzdHJva2U6IzE4MTgxODtzdHJva2Utd2lkdGg6MC41OyIgd2lkdGg9IjkxIiB4PSIzOTAiIHk9IjUwIi8+PHRleHQgZmlsbD0iIzAwMDAwMCIgZm9udC1mYW1pbHk9InNhbnMtc2VyaWYiIGZvbnQtc2l6ZT0iMTQiIGxlbmd0aEFkanVzdD0ic3BhY2luZyIgdGV4dExlbmd0aD0iNzciIHg9IjM5NyIgeT0iNzAuMjM0NCI+QmFja2VuZCBBUEk8L3RleHQ+PHJlY3QgZmlsbD0iI0UyRTJGMCIgaGVpZ2h0PSIyOC45ODQ0IiByeD0iMi41IiByeT0iMi41IiBzdHlsZT0ic3Ryb2tlOiMxODE4MTg7c3Ryb2tlLXdpZHRoOjAuNTsiIHdpZHRoPSI5MSIgeD0iMzkwIiB5PSIyMjMuNjQwNiIvPjx0ZXh0IGZpbGw9IiMwMDAwMDAiIGZvbnQtZmFtaWx5PSJzYW5zLXNlcmlmIiBmb250LXNpemU9IjE0IiBsZW5ndGhBZGp1c3Q9InNwYWNpbmciIHRleHRMZW5ndGg9Ijc3IiB4PSIzOTciIHk9IjI0My44NzUiPkJhY2tlbmQgQVBJPC90ZXh0Pjx0ZXh0IGZpbGw9IiMwMDAwMDAiIGZvbnQtZmFtaWx5PSJzYW5zLXNlcmlmIiBmb250LXNpemU9IjE0IiBsZW5ndGhBZGp1c3Q9InNwYWNpbmciIHRleHRMZW5ndGg9IjEwNSIgeD0iNjM0IiB5PSI3OC4yMzQ0Ij5Qcm9qZWN0IE1hbmFnZXI8L3RleHQ+PGVsbGlwc2UgY3g9IjY4OS41IiBjeT0iMTMuNSIgZmlsbD0iI0UyRTJGMCIgcng9IjgiIHJ5PSI4IiBzdHlsZT0ic3Ryb2tlOiMxODE4MTg7c3Ryb2tlLXdpZHRoOjAuNTsiLz48cGF0aCBkPSJNNjg5LjUsMjEuNSBMNjg5LjUsNDguNSBNNjc2LjUsMjkuNSBMNzAyLjUsMjkuNSBNNjg5LjUsNDguNSBMNjc2LjUsNjMuNSBNNjg5LjUsNDguNSBMNzAyLjUsNjMuNSAiIGZpbGw9Im5vbmUiIHN0eWxlPSJzdHJva2U6IzE4MTgxODtzdHJva2Utd2lkdGg6MC41OyIvPjx0ZXh0IGZpbGw9IiMwMDAwMDAiIGZvbnQtZmFtaWx5PSJzYW5zLXNlcmlmIiBmb250LXNpemU9IjE0IiBsZW5ndGhBZGp1c3Q9InNwYWNpbmciIHRleHRMZW5ndGg9IjEwNSIgeD0iNjM0IiB5PSIyMzYuODc1Ij5Qcm9qZWN0IE1hbmFnZXI8L3RleHQ+PGVsbGlwc2UgY3g9IjY4OS41IiBjeT0iMjQ3LjEyNSIgZmlsbD0iI0UyRTJGMCIgcng9IjgiIHJ5PSI4IiBzdHlsZT0ic3Ryb2tlOiMxODE4MTg7c3Ryb2tlLXdpZHRoOjAuNTsiLz48cGF0aCBkPSJNNjg5LjUsMjU1LjEyNSBMNjg5LjUsMjgyLjEyNSBNNjc2LjUsMjYzLjEyNSBMNzAyLjUsMjYzLjEyNSBNNjg5LjUsMjgyLjEyNSBMNjc2LjUsMjk3LjEyNSBNNjg5LjUsMjgyLjEyNSBMNzAyLjUsMjk3LjEyNSAiIGZpbGw9Im5vbmUiIHN0eWxlPSJzdHJva2U6IzE4MTgxODtzdHJva2Utd2lkdGg6MC41OyIvPjxwb2x5Z29uIGZpbGw9IiMxODE4MTgiIHBvaW50cz0iNDIzLjUsMTA1Ljg5ODQsNDMzLjUsMTA5Ljg5ODQsNDIzLjUsMTEzLjg5ODQsNDI3LjUsMTA5Ljg5ODQiIHN0eWxlPSJzdHJva2U6IzE4MTgxODtzdHJva2Utd2lkdGg6MS4wOyIvPjxsaW5lIHN0eWxlPSJzdHJva2U6IzE4MTgxODtzdHJva2Utd2lkdGg6MS4wOyIgeDE9Ijg1LjUiIHgyPSI0MjkuNSIgeTE9IjEwOS44OTg0IiB5Mj0iMTA5Ljg5ODQiLz48dGV4dCBmaWxsPSIjMDAwMDAwIiBmb250LWZhbWlseT0ic2Fucy1zZXJpZiIgZm9udC1zaXplPSIxMyIgbGVuZ3RoQWRqdXN0PSJzcGFjaW5nIiB0ZXh0TGVuZ3RoPSIzMjYiIHg9IjkyLjUiIHk9IjEwNi4yNzM0Ij5SZXF1ZXN0IHByb2plY3Qgc3RhdHVzIHVwZGF0ZSAoR3JhbnQgQ2hhcnQgZGF0YSk8L3RleHQ+PGxpbmUgc3R5bGU9InN0cm9rZTojMTgxODE4O3N0cm9rZS13aWR0aDoxLjA7IiB4MT0iNDM1LjUiIHgyPSI0NzcuNSIgeTE9IjEzNy44MTI1IiB5Mj0iMTM3LjgxMjUiLz48bGluZSBzdHlsZT0ic3Ryb2tlOiMxODE4MTg7c3Ryb2tlLXdpZHRoOjEuMDsiIHgxPSI0NzcuNSIgeDI9IjQ3Ny41IiB5MT0iMTM3LjgxMjUiIHkyPSIxNTAuODEyNSIvPjxsaW5lIHN0eWxlPSJzdHJva2U6IzE4MTgxODtzdHJva2Utd2lkdGg6MS4wOyIgeDE9IjQzNi41IiB4Mj0iNDc3LjUiIHkxPSIxNTAuODEyNSIgeTI9IjE1MC44MTI1Ii8+PHBvbHlnb24gZmlsbD0iIzE4MTgxOCIgcG9pbnRzPSI0NDYuNSwxNDYuODEyNSw0MzYuNSwxNTAuODEyNSw0NDYuNSwxNTQuODEyNSw0NDIuNSwxNTAuODEyNSIgc3R5bGU9InN0cm9rZTojMTgxODE4O3N0cm9rZS13aWR0aDoxLjA7Ii8+PHRleHQgZmlsbD0iIzAwMDAwMCIgZm9udC1mYW1pbHk9InNhbnMtc2VyaWYiIGZvbnQtc2l6ZT0iMTMiIGxlbmd0aEFkanVzdD0ic3BhY2luZyIgdGV4dExlbmd0aD0iMjQwIiB4PSI0NDIuNSIgeT0iMTM0LjE4NzUiPkFnZ3JlZ2F0ZSBkYXRhIGZyb20gdmFyaW91cyBzb3VyY2VzPC90ZXh0Pjxwb2x5Z29uIGZpbGw9IiMxODE4MTgiIHBvaW50cz0iOTYuNSwxNzQuNzI2Niw4Ni41LDE3OC43MjY2LDk2LjUsMTgyLjcyNjYsOTIuNSwxNzguNzI2NiIgc3R5bGU9InN0cm9rZTojMTgxODE4O3N0cm9rZS13aWR0aDoxLjA7Ii8+PGxpbmUgc3R5bGU9InN0cm9rZTojMTgxODE4O3N0cm9rZS13aWR0aDoxLjA7c3Ryb2tlLWRhc2hhcnJheToyLjAsMi4wOyIgeDE9IjkwLjUiIHgyPSI0MzQuNSIgeTE9IjE3OC43MjY2IiB5Mj0iMTc4LjcyNjYiLz48dGV4dCBmaWxsPSIjMDAwMDAwIiBmb250LWZhbWlseT0ic2Fucy1zZXJpZiIgZm9udC1zaXplPSIxMyIgbGVuZ3RoQWRqdXN0PSJzcGFjaW5nIiB0ZXh0TGVuZ3RoPSIyMTIiIHg9IjEwMi41IiB5PSIxNzUuMTAxNiI+UmV0dXJuIHByb2plY3QgcHJvZ3Jlc3MgZGV0YWlsczwvdGV4dD48cG9seWdvbiBmaWxsPSIjMTgxODE4IiBwb2ludHM9IjY3Ny41LDIwMi42NDA2LDY4Ny41LDIwNi42NDA2LDY3Ny41LDIxMC42NDA2LDY4MS41LDIwNi42NDA2IiBzdHlsZT0ic3Ryb2tlOiMxODE4MTg7c3Ryb2tlLXdpZHRoOjEuMDsiLz48bGluZSBzdHlsZT0ic3Ryb2tlOiMxODE4MTg7c3Ryb2tlLXdpZHRoOjEuMDsiIHgxPSI4NS41IiB4Mj0iNjgzLjUiIHkxPSIyMDYuNjQwNiIgeTI9IjIwNi42NDA2Ii8+PHRleHQgZmlsbD0iIzAwMDAwMCIgZm9udC1mYW1pbHk9InNhbnMtc2VyaWYiIGZvbnQtc2l6ZT0iMTMiIGxlbmd0aEFkanVzdD0ic3BhY2luZyIgdGV4dExlbmd0aD0iMjY4IiB4PSI5Mi41IiB5PSIyMDMuMDE1NiI+RGlzcGxheSBHcmFudCBDaGFydCBhbmQgcHJvZ3Jlc3MgcmVwb3J0PC90ZXh0PjwhLS1TUkM9W0pPejFKV0NuMzROdEVTTk5oNjMxMVJmMEFZMFg1Z0NQQ0lVbUNjT1FBOURXRXZMdy1wZ2I2ZExib1Z6emx3SUdNOGdmcTZoZTFlYTdMWEVvYjVUQ0JBU0trR0NmWFljS1VfQTV1Vy1sQ19SWm5wTnQ2SVhRNWRJWnY2LUVYZnZNTWJZa3lUWTdDNG51VWN4VzNmX3lMenMzU2FGTG9BZ1liZmNDeVYwa3BWNXdTMjV5R3VfMU1yanZsb3AySW1EUlhZXzlscFlIZkVtTkQ1VTloRi15NXVRZm9RcEFraGJ5VWJ5TENua2JlenhVRFZPeGwyS2pIcGhadGFfLW9RcVlOQkJPMUcwMF0tLT48L2c+PC9zdmc+;" vertex="1" parent="1">
            <mxGeometry x="-1033" y="5156" width="1290.78" height="526" as="geometry" />
          </mxCell>
        </UserObject>
        <mxCell id="Ga83Rux7IgtjKA9Vw9Vb-31" value="13. Notification Flow" style="text;html=1;align=center;verticalAlign=middle;resizable=0;points=[];autosize=1;strokeColor=none;fillColor=none;fontSize=16;" vertex="1" parent="1">
          <mxGeometry x="-1039" y="6149" width="162" height="31" as="geometry" />
        </mxCell>
        <UserObject label="" plantUmlData="{&#xa;  &quot;data&quot;: &quot;@startuml\nparticipant \&quot;Backend API\&quot; as API\nparticipant \&quot;Jira Integration\&quot; as JIRA\nactor \&quot;Developer\&quot; as Dev\n\nDev -&gt; API: Submit bug/issue report\nAPI -&gt; JIRA: Forward issue details to Jira\nJIRA --&gt; API: Confirm issue tracking update\nAPI -&gt; Dev: Notify issue has been logged\n@enduml\n&quot;,&#xa;  &quot;format&quot;: &quot;svg&quot;&#xa;}" id="Ga83Rux7IgtjKA9Vw9Vb-32">
          <mxCell style="shape=image;noLabel=1;verticalAlign=top;aspect=fixed;imageAspect=0;image=data:image/svg+xml,PD94bWwgdmVyc2lvbj0iMS4wIiBlbmNvZGluZz0idXMtYXNjaWkiIHN0YW5kYWxvbmU9Im5vIj8+PHN2ZyB4bWxucz0iaHR0cDovL3d3dy53My5vcmcvMjAwMC9zdmciIHhtbG5zOnhsaW5rPSJodHRwOi8vd3d3LnczLm9yZy8xOTk5L3hsaW5rIiBjb250ZW50U3R5bGVUeXBlPSJ0ZXh0L2NzcyIgaGVpZ2h0PSIyOTFweCIgcHJlc2VydmVBc3BlY3RSYXRpbz0ibm9uZSIgc3R5bGU9IndpZHRoOjQxNHB4O2hlaWdodDoyOTFweDtiYWNrZ3JvdW5kOiNGRkZGRkY7IiB2ZXJzaW9uPSIxLjEiIHZpZXdCb3g9IjAgMCA0MTQgMjkxIiB3aWR0aD0iNDE0cHgiIHpvb21BbmRQYW49Im1hZ25pZnkiPjxkZWZzLz48Zz48bGluZSBzdHlsZT0ic3Ryb2tlOiMxODE4MTg7c3Ryb2tlLXdpZHRoOjAuNTtzdHJva2UtZGFzaGFycmF5OjUuMCw1LjA7IiB4MT0iNTAiIHgyPSI1MCIgeTE9Ijc5Ljk4NDQiIHkyPSIyMTEuNjQwNiIvPjxsaW5lIHN0eWxlPSJzdHJva2U6IzE4MTgxODtzdHJva2Utd2lkdGg6MC41O3N0cm9rZS1kYXNoYXJyYXk6NS4wLDUuMDsiIHgxPSIyNzAiIHgyPSIyNzAiIHkxPSI3OS45ODQ0IiB5Mj0iMjExLjY0MDYiLz48bGluZSBzdHlsZT0ic3Ryb2tlOiMxODE4MTg7c3Ryb2tlLXdpZHRoOjAuNTtzdHJva2UtZGFzaGFycmF5OjUuMCw1LjA7IiB4MT0iMzc4IiB4Mj0iMzc4IiB5MT0iNzkuOTg0NCIgeTI9IjIxMS42NDA2Ii8+PHJlY3QgZmlsbD0iI0UyRTJGMCIgaGVpZ2h0PSIyOC45ODQ0IiByeD0iMi41IiByeT0iMi41IiBzdHlsZT0ic3Ryb2tlOiMxODE4MTg7c3Ryb2tlLXdpZHRoOjAuNTsiIHdpZHRoPSI5MSIgeD0iNSIgeT0iNTAiLz48dGV4dCBmaWxsPSIjMDAwMDAwIiBmb250LWZhbWlseT0ic2Fucy1zZXJpZiIgZm9udC1zaXplPSIxNCIgbGVuZ3RoQWRqdXN0PSJzcGFjaW5nIiB0ZXh0TGVuZ3RoPSI3NyIgeD0iMTIiIHk9IjcwLjIzNDQiPkJhY2tlbmQgQVBJPC90ZXh0PjxyZWN0IGZpbGw9IiNFMkUyRjAiIGhlaWdodD0iMjguOTg0NCIgcng9IjIuNSIgcnk9IjIuNSIgc3R5bGU9InN0cm9rZTojMTgxODE4O3N0cm9rZS13aWR0aDowLjU7IiB3aWR0aD0iOTEiIHg9IjUiIHk9IjIxMC42NDA2Ii8+PHRleHQgZmlsbD0iIzAwMDAwMCIgZm9udC1mYW1pbHk9InNhbnMtc2VyaWYiIGZvbnQtc2l6ZT0iMTQiIGxlbmd0aEFkanVzdD0ic3BhY2luZyIgdGV4dExlbmd0aD0iNzciIHg9IjEyIiB5PSIyMzAuODc1Ij5CYWNrZW5kIEFQSTwvdGV4dD48cmVjdCBmaWxsPSIjRTJFMkYwIiBoZWlnaHQ9IjI4Ljk4NDQiIHJ4PSIyLjUiIHJ5PSIyLjUiIHN0eWxlPSJzdHJva2U6IzE4MTgxODtzdHJva2Utd2lkdGg6MC41OyIgd2lkdGg9IjEyNyIgeD0iMjA3IiB5PSI1MCIvPjx0ZXh0IGZpbGw9IiMwMDAwMDAiIGZvbnQtZmFtaWx5PSJzYW5zLXNlcmlmIiBmb250LXNpemU9IjE0IiBsZW5ndGhBZGp1c3Q9InNwYWNpbmciIHRleHRMZW5ndGg9IjExMyIgeD0iMjE0IiB5PSI3MC4yMzQ0Ij5KaXJhIEludGVncmF0aW9uPC90ZXh0PjxyZWN0IGZpbGw9IiNFMkUyRjAiIGhlaWdodD0iMjguOTg0NCIgcng9IjIuNSIgcnk9IjIuNSIgc3R5bGU9InN0cm9rZTojMTgxODE4O3N0cm9rZS13aWR0aDowLjU7IiB3aWR0aD0iMTI3IiB4PSIyMDciIHk9IjIxMC42NDA2Ii8+PHRleHQgZmlsbD0iIzAwMDAwMCIgZm9udC1mYW1pbHk9InNhbnMtc2VyaWYiIGZvbnQtc2l6ZT0iMTQiIGxlbmd0aEFkanVzdD0ic3BhY2luZyIgdGV4dExlbmd0aD0iMTEzIiB4PSIyMTQiIHk9IjIzMC44NzUiPkppcmEgSW50ZWdyYXRpb248L3RleHQ+PHRleHQgZmlsbD0iIzAwMDAwMCIgZm9udC1mYW1pbHk9InNhbnMtc2VyaWYiIGZvbnQtc2l6ZT0iMTQiIGxlbmd0aEFkanVzdD0ic3BhY2luZyIgdGV4dExlbmd0aD0iNjMiIHg9IjM0NCIgeT0iNzguMjM0NCI+RGV2ZWxvcGVyPC90ZXh0PjxlbGxpcHNlIGN4PSIzNzguNSIgY3k9IjEzLjUiIGZpbGw9IiNFMkUyRjAiIHJ4PSI4IiByeT0iOCIgc3R5bGU9InN0cm9rZTojMTgxODE4O3N0cm9rZS13aWR0aDowLjU7Ii8+PHBhdGggZD0iTTM3OC41LDIxLjUgTDM3OC41LDQ4LjUgTTM2NS41LDI5LjUgTDM5MS41LDI5LjUgTTM3OC41LDQ4LjUgTDM2NS41LDYzLjUgTTM3OC41LDQ4LjUgTDM5MS41LDYzLjUgIiBmaWxsPSJub25lIiBzdHlsZT0ic3Ryb2tlOiMxODE4MTg7c3Ryb2tlLXdpZHRoOjAuNTsiLz48dGV4dCBmaWxsPSIjMDAwMDAwIiBmb250LWZhbWlseT0ic2Fucy1zZXJpZiIgZm9udC1zaXplPSIxNCIgbGVuZ3RoQWRqdXN0PSJzcGFjaW5nIiB0ZXh0TGVuZ3RoPSI2MyIgeD0iMzQ0IiB5PSIyMjMuODc1Ij5EZXZlbG9wZXI8L3RleHQ+PGVsbGlwc2UgY3g9IjM3OC41IiBjeT0iMjM0LjEyNSIgZmlsbD0iI0UyRTJGMCIgcng9IjgiIHJ5PSI4IiBzdHlsZT0ic3Ryb2tlOiMxODE4MTg7c3Ryb2tlLXdpZHRoOjAuNTsiLz48cGF0aCBkPSJNMzc4LjUsMjQyLjEyNSBMMzc4LjUsMjY5LjEyNSBNMzY1LjUsMjUwLjEyNSBMMzkxLjUsMjUwLjEyNSBNMzc4LjUsMjY5LjEyNSBMMzY1LjUsMjg0LjEyNSBNMzc4LjUsMjY5LjEyNSBMMzkxLjUsMjg0LjEyNSAiIGZpbGw9Im5vbmUiIHN0eWxlPSJzdHJva2U6IzE4MTgxODtzdHJva2Utd2lkdGg6MC41OyIvPjxwb2x5Z29uIGZpbGw9IiMxODE4MTgiIHBvaW50cz0iNjEuNSwxMDUuODk4NCw1MS41LDEwOS44OTg0LDYxLjUsMTEzLjg5ODQsNTcuNSwxMDkuODk4NCIgc3R5bGU9InN0cm9rZTojMTgxODE4O3N0cm9rZS13aWR0aDoxLjA7Ii8+PGxpbmUgc3R5bGU9InN0cm9rZTojMTgxODE4O3N0cm9rZS13aWR0aDoxLjA7IiB4MT0iNTUuNSIgeDI9IjM3Ny41IiB5MT0iMTA5Ljg5ODQiIHkyPSIxMDkuODk4NCIvPjx0ZXh0IGZpbGw9IiMwMDAwMDAiIGZvbnQtZmFtaWx5PSJzYW5zLXNlcmlmIiBmb250LXNpemU9IjEzIiBsZW5ndGhBZGp1c3Q9InNwYWNpbmciIHRleHRMZW5ndGg9IjE1NiIgeD0iNjcuNSIgeT0iMTA2LjI3MzQiPlN1Ym1pdCBidWcvaXNzdWUgcmVwb3J0PC90ZXh0Pjxwb2x5Z29uIGZpbGw9IiMxODE4MTgiIHBvaW50cz0iMjU4LjUsMTMzLjgxMjUsMjY4LjUsMTM3LjgxMjUsMjU4LjUsMTQxLjgxMjUsMjYyLjUsMTM3LjgxMjUiIHN0eWxlPSJzdHJva2U6IzE4MTgxODtzdHJva2Utd2lkdGg6MS4wOyIvPjxsaW5lIHN0eWxlPSJzdHJva2U6IzE4MTgxODtzdHJva2Utd2lkdGg6MS4wOyIgeDE9IjUwLjUiIHgyPSIyNjQuNSIgeTE9IjEzNy44MTI1IiB5Mj0iMTM3LjgxMjUiLz48dGV4dCBmaWxsPSIjMDAwMDAwIiBmb250LWZhbWlseT0ic2Fucy1zZXJpZiIgZm9udC1zaXplPSIxMyIgbGVuZ3RoQWRqdXN0PSJzcGFjaW5nIiB0ZXh0TGVuZ3RoPSIxOTYiIHg9IjU3LjUiIHk9IjEzNC4xODc1Ij5Gb3J3YXJkIGlzc3VlIGRldGFpbHMgdG8gSmlyYTwvdGV4dD48cG9seWdvbiBmaWxsPSIjMTgxODE4IiBwb2ludHM9IjYxLjUsMTYxLjcyNjYsNTEuNSwxNjUuNzI2Niw2MS41LDE2OS43MjY2LDU3LjUsMTY1LjcyNjYiIHN0eWxlPSJzdHJva2U6IzE4MTgxODtzdHJva2Utd2lkdGg6MS4wOyIvPjxsaW5lIHN0eWxlPSJzdHJva2U6IzE4MTgxODtzdHJva2Utd2lkdGg6MS4wO3N0cm9rZS1kYXNoYXJyYXk6Mi4wLDIuMDsiIHgxPSI1NS41IiB4Mj0iMjY5LjUiIHkxPSIxNjUuNzI2NiIgeTI9IjE2NS43MjY2Ii8+PHRleHQgZmlsbD0iIzAwMDAwMCIgZm9udC1mYW1pbHk9InNhbnMtc2VyaWYiIGZvbnQtc2l6ZT0iMTMiIGxlbmd0aEFkanVzdD0ic3BhY2luZyIgdGV4dExlbmd0aD0iMTk2IiB4PSI2Ny41IiB5PSIxNjIuMTAxNiI+Q29uZmlybSBpc3N1ZSB0cmFja2luZyB1cGRhdGU8L3RleHQ+PHBvbHlnb24gZmlsbD0iIzE4MTgxOCIgcG9pbnRzPSIzNjYuNSwxODkuNjQwNiwzNzYuNSwxOTMuNjQwNiwzNjYuNSwxOTcuNjQwNiwzNzAuNSwxOTMuNjQwNiIgc3R5bGU9InN0cm9rZTojMTgxODE4O3N0cm9rZS13aWR0aDoxLjA7Ii8+PGxpbmUgc3R5bGU9InN0cm9rZTojMTgxODE4O3N0cm9rZS13aWR0aDoxLjA7IiB4MT0iNTAuNSIgeDI9IjM3Mi41IiB5MT0iMTkzLjY0MDYiIHkyPSIxOTMuNjQwNiIvPjx0ZXh0IGZpbGw9IiMwMDAwMDAiIGZvbnQtZmFtaWx5PSJzYW5zLXNlcmlmIiBmb250LXNpemU9IjEzIiBsZW5ndGhBZGp1c3Q9InNwYWNpbmciIHRleHRMZW5ndGg9IjE5MSIgeD0iNTcuNSIgeT0iMTkwLjAxNTYiPk5vdGlmeSBpc3N1ZSBoYXMgYmVlbiBsb2dnZWQ8L3RleHQ+PCEtLVNSQz1bSk9fQlFpRDAzNE50eW5LTnhxRnNOWEpvZUUwaUljY19HRk9lS3I1ZERDWG9HXy0gLUN0YjBEbjkyWHdFaEdrT29JUTdpd0ZPcVZORUVzQnFGN01YZkZQSl9tNGNDQzZKZFBFSVktS1FUWGV6VGVDZExxMXR2WHNTalJCVERkS0FlMVBrTnZraG5rT3VOU09uaHNpZ29oMHBaZWtRWEJYbEpKM3JVclF2YTROU1lpZkZDMnJwSGhlVjZPRkNLN1pJVm5JdUZyZ3EtODNiWEJQNlNkemdRZUNVUmtmbl83LTFOM0pTb1B5b1E0aVNfXS0tPjwvZz48L3N2Zz4=;" vertex="1" parent="1">
            <mxGeometry x="-709.76" y="5631" width="806.66" height="567" as="geometry" />
          </mxCell>
        </UserObject>
        <UserObject label="" plantUmlData="{&#xa;  &quot;data&quot;: &quot;@startuml\nparticipant \&quot;Backend API\&quot; as API\nparticipant \&quot;Kafka\&quot; as K\nactor \&quot;System\&quot; as Sys\n\nAPI -&gt; K: Publish system notification (status updates)\nK -&gt; API: Confirm delivery to subscribed services\nSys -&gt; API: Receive notifications (if applicable)\n@enduml\n&quot;,&#xa;  &quot;format&quot;: &quot;svg&quot;&#xa;}" id="Ga83Rux7IgtjKA9Vw9Vb-33">
          <mxCell style="shape=image;noLabel=1;verticalAlign=top;aspect=fixed;imageAspect=0;image=data:image/svg+xml,PD94bWwgdmVyc2lvbj0iMS4wIiBlbmNvZGluZz0idXMtYXNjaWkiIHN0YW5kYWxvbmU9Im5vIj8+PHN2ZyB4bWxucz0iaHR0cDovL3d3dy53My5vcmcvMjAwMC9zdmciIHhtbG5zOnhsaW5rPSJodHRwOi8vd3d3LnczLm9yZy8xOTk5L3hsaW5rIiBjb250ZW50U3R5bGVUeXBlPSJ0ZXh0L2NzcyIgaGVpZ2h0PSIyNjNweCIgcHJlc2VydmVBc3BlY3RSYXRpbz0ibm9uZSIgc3R5bGU9IndpZHRoOjQ1MnB4O2hlaWdodDoyNjNweDtiYWNrZ3JvdW5kOiNGRkZGRkY7IiB2ZXJzaW9uPSIxLjEiIHZpZXdCb3g9IjAgMCA0NTIgMjYzIiB3aWR0aD0iNDUycHgiIHpvb21BbmRQYW49Im1hZ25pZnkiPjxkZWZzLz48Zz48bGluZSBzdHlsZT0ic3Ryb2tlOiMxODE4MTg7c3Ryb2tlLXdpZHRoOjAuNTtzdHJva2UtZGFzaGFycmF5OjUuMCw1LjA7IiB4MT0iNTAiIHgyPSI1MCIgeTE9Ijc5Ljk4NDQiIHkyPSIxODMuNzI2NiIvPjxsaW5lIHN0eWxlPSJzdHJva2U6IzE4MTgxODtzdHJva2Utd2lkdGg6MC41O3N0cm9rZS1kYXNoYXJyYXk6NS4wLDUuMDsiIHgxPSIzNjciIHgyPSIzNjciIHkxPSI3OS45ODQ0IiB5Mj0iMTgzLjcyNjYiLz48bGluZSBzdHlsZT0ic3Ryb2tlOiMxODE4MTg7c3Ryb2tlLXdpZHRoOjAuNTtzdHJva2UtZGFzaGFycmF5OjUuMCw1LjA7IiB4MT0iNDI2IiB4Mj0iNDI2IiB5MT0iNzkuOTg0NCIgeTI9IjE4My43MjY2Ii8+PHJlY3QgZmlsbD0iI0UyRTJGMCIgaGVpZ2h0PSIyOC45ODQ0IiByeD0iMi41IiByeT0iMi41IiBzdHlsZT0ic3Ryb2tlOiMxODE4MTg7c3Ryb2tlLXdpZHRoOjAuNTsiIHdpZHRoPSI5MSIgeD0iNSIgeT0iNTAiLz48dGV4dCBmaWxsPSIjMDAwMDAwIiBmb250LWZhbWlseT0ic2Fucy1zZXJpZiIgZm9udC1zaXplPSIxNCIgbGVuZ3RoQWRqdXN0PSJzcGFjaW5nIiB0ZXh0TGVuZ3RoPSI3NyIgeD0iMTIiIHk9IjcwLjIzNDQiPkJhY2tlbmQgQVBJPC90ZXh0PjxyZWN0IGZpbGw9IiNFMkUyRjAiIGhlaWdodD0iMjguOTg0NCIgcng9IjIuNSIgcnk9IjIuNSIgc3R5bGU9InN0cm9rZTojMTgxODE4O3N0cm9rZS13aWR0aDowLjU7IiB3aWR0aD0iOTEiIHg9IjUiIHk9IjE4Mi43MjY2Ii8+PHRleHQgZmlsbD0iIzAwMDAwMCIgZm9udC1mYW1pbHk9InNhbnMtc2VyaWYiIGZvbnQtc2l6ZT0iMTQiIGxlbmd0aEFkanVzdD0ic3BhY2luZyIgdGV4dExlbmd0aD0iNzciIHg9IjEyIiB5PSIyMDIuOTYwOSI+QmFja2VuZCBBUEk8L3RleHQ+PHJlY3QgZmlsbD0iI0UyRTJGMCIgaGVpZ2h0PSIyOC45ODQ0IiByeD0iMi41IiByeT0iMi41IiBzdHlsZT0ic3Ryb2tlOiMxODE4MTg7c3Ryb2tlLXdpZHRoOjAuNTsiIHdpZHRoPSI0OSIgeD0iMzQzIiB5PSI1MCIvPjx0ZXh0IGZpbGw9IiMwMDAwMDAiIGZvbnQtZmFtaWx5PSJzYW5zLXNlcmlmIiBmb250LXNpemU9IjE0IiBsZW5ndGhBZGp1c3Q9InNwYWNpbmciIHRleHRMZW5ndGg9IjM1IiB4PSIzNTAiIHk9IjcwLjIzNDQiPkthZmthPC90ZXh0PjxyZWN0IGZpbGw9IiNFMkUyRjAiIGhlaWdodD0iMjguOTg0NCIgcng9IjIuNSIgcnk9IjIuNSIgc3R5bGU9InN0cm9rZTojMTgxODE4O3N0cm9rZS13aWR0aDowLjU7IiB3aWR0aD0iNDkiIHg9IjM0MyIgeT0iMTgyLjcyNjYiLz48dGV4dCBmaWxsPSIjMDAwMDAwIiBmb250LWZhbWlseT0ic2Fucy1zZXJpZiIgZm9udC1zaXplPSIxNCIgbGVuZ3RoQWRqdXN0PSJzcGFjaW5nIiB0ZXh0TGVuZ3RoPSIzNSIgeD0iMzUwIiB5PSIyMDIuOTYwOSI+S2Fma2E8L3RleHQ+PHRleHQgZmlsbD0iIzAwMDAwMCIgZm9udC1mYW1pbHk9InNhbnMtc2VyaWYiIGZvbnQtc2l6ZT0iMTQiIGxlbmd0aEFkanVzdD0ic3BhY2luZyIgdGV4dExlbmd0aD0iNDMiIHg9IjQwMiIgeT0iNzguMjM0NCI+U3lzdGVtPC90ZXh0PjxlbGxpcHNlIGN4PSI0MjYuNSIgY3k9IjEzLjUiIGZpbGw9IiNFMkUyRjAiIHJ4PSI4IiByeT0iOCIgc3R5bGU9InN0cm9rZTojMTgxODE4O3N0cm9rZS13aWR0aDowLjU7Ii8+PHBhdGggZD0iTTQyNi41LDIxLjUgTDQyNi41LDQ4LjUgTTQxMy41LDI5LjUgTDQzOS41LDI5LjUgTTQyNi41LDQ4LjUgTDQxMy41LDYzLjUgTTQyNi41LDQ4LjUgTDQzOS41LDYzLjUgIiBmaWxsPSJub25lIiBzdHlsZT0ic3Ryb2tlOiMxODE4MTg7c3Ryb2tlLXdpZHRoOjAuNTsiLz48dGV4dCBmaWxsPSIjMDAwMDAwIiBmb250LWZhbWlseT0ic2Fucy1zZXJpZiIgZm9udC1zaXplPSIxNCIgbGVuZ3RoQWRqdXN0PSJzcGFjaW5nIiB0ZXh0TGVuZ3RoPSI0MyIgeD0iNDAyIiB5PSIxOTUuOTYwOSI+U3lzdGVtPC90ZXh0PjxlbGxpcHNlIGN4PSI0MjYuNSIgY3k9IjIwNi4yMTA5IiBmaWxsPSIjRTJFMkYwIiByeD0iOCIgcnk9IjgiIHN0eWxlPSJzdHJva2U6IzE4MTgxODtzdHJva2Utd2lkdGg6MC41OyIvPjxwYXRoIGQ9Ik00MjYuNSwyMTQuMjEwOSBMNDI2LjUsMjQxLjIxMDkgTTQxMy41LDIyMi4yMTA5IEw0MzkuNSwyMjIuMjEwOSBNNDI2LjUsMjQxLjIxMDkgTDQxMy41LDI1Ni4yMTA5IE00MjYuNSwyNDEuMjEwOSBMNDM5LjUsMjU2LjIxMDkgIiBmaWxsPSJub25lIiBzdHlsZT0ic3Ryb2tlOiMxODE4MTg7c3Ryb2tlLXdpZHRoOjAuNTsiLz48cG9seWdvbiBmaWxsPSIjMTgxODE4IiBwb2ludHM9IjM1NS41LDEwNS44OTg0LDM2NS41LDEwOS44OTg0LDM1NS41LDExMy44OTg0LDM1OS41LDEwOS44OTg0IiBzdHlsZT0ic3Ryb2tlOiMxODE4MTg7c3Ryb2tlLXdpZHRoOjEuMDsiLz48bGluZSBzdHlsZT0ic3Ryb2tlOiMxODE4MTg7c3Ryb2tlLXdpZHRoOjEuMDsiIHgxPSI1MC41IiB4Mj0iMzYxLjUiIHkxPSIxMDkuODk4NCIgeTI9IjEwOS44OTg0Ii8+PHRleHQgZmlsbD0iIzAwMDAwMCIgZm9udC1mYW1pbHk9InNhbnMtc2VyaWYiIGZvbnQtc2l6ZT0iMTMiIGxlbmd0aEFkanVzdD0ic3BhY2luZyIgdGV4dExlbmd0aD0iMjkzIiB4PSI1Ny41IiB5PSIxMDYuMjczNCI+UHVibGlzaCBzeXN0ZW0gbm90aWZpY2F0aW9uIChzdGF0dXMgdXBkYXRlcyk8L3RleHQ+PHBvbHlnb24gZmlsbD0iIzE4MTgxOCIgcG9pbnRzPSI2MS41LDEzMy44MTI1LDUxLjUsMTM3LjgxMjUsNjEuNSwxNDEuODEyNSw1Ny41LDEzNy44MTI1IiBzdHlsZT0ic3Ryb2tlOiMxODE4MTg7c3Ryb2tlLXdpZHRoOjEuMDsiLz48bGluZSBzdHlsZT0ic3Ryb2tlOiMxODE4MTg7c3Ryb2tlLXdpZHRoOjEuMDsiIHgxPSI1NS41IiB4Mj0iMzY2LjUiIHkxPSIxMzcuODEyNSIgeTI9IjEzNy44MTI1Ii8+PHRleHQgZmlsbD0iIzAwMDAwMCIgZm9udC1mYW1pbHk9InNhbnMtc2VyaWYiIGZvbnQtc2l6ZT0iMTMiIGxlbmd0aEFkanVzdD0ic3BhY2luZyIgdGV4dExlbmd0aD0iMjY1IiB4PSI2Ny41IiB5PSIxMzQuMTg3NSI+Q29uZmlybSBkZWxpdmVyeSB0byBzdWJzY3JpYmVkIHNlcnZpY2VzPC90ZXh0Pjxwb2x5Z29uIGZpbGw9IiMxODE4MTgiIHBvaW50cz0iNjEuNSwxNjEuNzI2Niw1MS41LDE2NS43MjY2LDYxLjUsMTY5LjcyNjYsNTcuNSwxNjUuNzI2NiIgc3R5bGU9InN0cm9rZTojMTgxODE4O3N0cm9rZS13aWR0aDoxLjA7Ii8+PGxpbmUgc3R5bGU9InN0cm9rZTojMTgxODE4O3N0cm9rZS13aWR0aDoxLjA7IiB4MT0iNTUuNSIgeDI9IjQyNS41IiB5MT0iMTY1LjcyNjYiIHkyPSIxNjUuNzI2NiIvPjx0ZXh0IGZpbGw9IiMwMDAwMDAiIGZvbnQtZmFtaWx5PSJzYW5zLXNlcmlmIiBmb250LXNpemU9IjEzIiBsZW5ndGhBZGp1c3Q9InNwYWNpbmciIHRleHRMZW5ndGg9IjI0NSIgeD0iNjcuNSIgeT0iMTYyLjEwMTYiPlJlY2VpdmUgbm90aWZpY2F0aW9ucyAoaWYgYXBwbGljYWJsZSk8L3RleHQ+PCEtLVNSQz1bTE9xbjNpOG0zNE50ZEVBaEtwam0wR09hTzQ5VDQ5cDBKTHJYaklISHg1Umd4S2F4ODlYaV9WLVVWZzlpdVlMSEM1R055WUU3N2tWeGhHQmZUYnR3MUxlUUhqZ2hyZjZ0YzU0ekxwTC14cmJ2ZElpRTNZVXFIenBkUlg5ekdOUzI4UGVDdWlhYTFqSGdQQkRZSlpxUFEtRlFKSWhrNFRTTzFpYmx6M3A5bWRjNUhVWlNnU19JU0dfYmw4WGRUTU5qd3BwT1N1N19EWElyM0EyS2ZYOXE0cFNWXS0tPjwvZz48L3N2Zz4=;" vertex="1" parent="1">
            <mxGeometry x="-996" y="6194" width="696.05" height="405" as="geometry" />
          </mxCell>
        </UserObject>
        <mxCell id="Ga83Rux7IgtjKA9Vw9Vb-34" value="14. Asynchronous Task Processing Flow" style="text;html=1;align=center;verticalAlign=middle;resizable=0;points=[];autosize=1;strokeColor=none;fillColor=none;fontSize=16;" vertex="1" parent="1">
          <mxGeometry x="-1033" y="6599" width="304" height="31" as="geometry" />
        </mxCell>
        <UserObject label="" plantUmlData="{&#xa;  &quot;data&quot;: &quot;@startuml\nparticipant \&quot;Backend API\&quot; as API\nparticipant \&quot;Celery Worker\&quot; as CW\n\nAPI -&gt; CW: Queue heavy processing task (e.g., large file analysis)\nCW -&gt; CW: Process task asynchronously\nCW --&gt; API: Return task completion status\nAPI -&gt; API: Update task status in system\n@enduml\n&quot;,&#xa;  &quot;format&quot;: &quot;svg&quot;&#xa;}" id="Ga83Rux7IgtjKA9Vw9Vb-35">
          <mxCell style="shape=image;noLabel=1;verticalAlign=top;aspect=fixed;imageAspect=0;image=data:image/svg+xml,PD94bWwgdmVyc2lvbj0iMS4wIiBlbmNvZGluZz0idXMtYXNjaWkiIHN0YW5kYWxvbmU9Im5vIj8+PHN2ZyB4bWxucz0iaHR0cDovL3d3dy53My5vcmcvMjAwMC9zdmciIHhtbG5zOnhsaW5rPSJodHRwOi8vd3d3LnczLm9yZy8xOTk5L3hsaW5rIiBjb250ZW50U3R5bGVUeXBlPSJ0ZXh0L2NzcyIgaGVpZ2h0PSIyMjZweCIgcHJlc2VydmVBc3BlY3RSYXRpbz0ibm9uZSIgc3R5bGU9IndpZHRoOjY0N3B4O2hlaWdodDoyMjZweDtiYWNrZ3JvdW5kOiNGRkZGRkY7IiB2ZXJzaW9uPSIxLjEiIHZpZXdCb3g9IjAgMCA2NDcgMjI2IiB3aWR0aD0iNjQ3cHgiIHpvb21BbmRQYW49Im1hZ25pZnkiPjxkZWZzLz48Zz48bGluZSBzdHlsZT0ic3Ryb2tlOiMxODE4MTg7c3Ryb2tlLXdpZHRoOjAuNTtzdHJva2UtZGFzaGFycmF5OjUuMCw1LjA7IiB4MT0iNTAiIHgyPSI1MCIgeTE9IjM0Ljk4NDQiIHkyPSIxOTIuNjQwNiIvPjxsaW5lIHN0eWxlPSJzdHJva2U6IzE4MTgxODtzdHJva2Utd2lkdGg6MC41O3N0cm9rZS1kYXNoYXJyYXk6NS4wLDUuMDsiIHgxPSI0NDYiIHgyPSI0NDYiIHkxPSIzNC45ODQ0IiB5Mj0iMTkyLjY0MDYiLz48cmVjdCBmaWxsPSIjRTJFMkYwIiBoZWlnaHQ9IjI4Ljk4NDQiIHJ4PSIyLjUiIHJ5PSIyLjUiIHN0eWxlPSJzdHJva2U6IzE4MTgxODtzdHJva2Utd2lkdGg6MC41OyIgd2lkdGg9IjkxIiB4PSI1IiB5PSI1Ii8+PHRleHQgZmlsbD0iIzAwMDAwMCIgZm9udC1mYW1pbHk9InNhbnMtc2VyaWYiIGZvbnQtc2l6ZT0iMTQiIGxlbmd0aEFkanVzdD0ic3BhY2luZyIgdGV4dExlbmd0aD0iNzciIHg9IjEyIiB5PSIyNS4yMzQ0Ij5CYWNrZW5kIEFQSTwvdGV4dD48cmVjdCBmaWxsPSIjRTJFMkYwIiBoZWlnaHQ9IjI4Ljk4NDQiIHJ4PSIyLjUiIHJ5PSIyLjUiIHN0eWxlPSJzdHJva2U6IzE4MTgxODtzdHJva2Utd2lkdGg6MC41OyIgd2lkdGg9IjkxIiB4PSI1IiB5PSIxOTEuNjQwNiIvPjx0ZXh0IGZpbGw9IiMwMDAwMDAiIGZvbnQtZmFtaWx5PSJzYW5zLXNlcmlmIiBmb250LXNpemU9IjE0IiBsZW5ndGhBZGp1c3Q9InNwYWNpbmciIHRleHRMZW5ndGg9Ijc3IiB4PSIxMiIgeT0iMjExLjg3NSI+QmFja2VuZCBBUEk8L3RleHQ+PHJlY3QgZmlsbD0iI0UyRTJGMCIgaGVpZ2h0PSIyOC45ODQ0IiByeD0iMi41IiByeT0iMi41IiBzdHlsZT0ic3Ryb2tlOiMxODE4MTg7c3Ryb2tlLXdpZHRoOjAuNTsiIHdpZHRoPSIxMDUiIHg9IjM5NCIgeT0iNSIvPjx0ZXh0IGZpbGw9IiMwMDAwMDAiIGZvbnQtZmFtaWx5PSJzYW5zLXNlcmlmIiBmb250LXNpemU9IjE0IiBsZW5ndGhBZGp1c3Q9InNwYWNpbmciIHRleHRMZW5ndGg9IjkxIiB4PSI0MDEiIHk9IjI1LjIzNDQiPkNlbGVyeSBXb3JrZXI8L3RleHQ+PHJlY3QgZmlsbD0iI0UyRTJGMCIgaGVpZ2h0PSIyOC45ODQ0IiByeD0iMi41IiByeT0iMi41IiBzdHlsZT0ic3Ryb2tlOiMxODE4MTg7c3Ryb2tlLXdpZHRoOjAuNTsiIHdpZHRoPSIxMDUiIHg9IjM5NCIgeT0iMTkxLjY0MDYiLz48dGV4dCBmaWxsPSIjMDAwMDAwIiBmb250LWZhbWlseT0ic2Fucy1zZXJpZiIgZm9udC1zaXplPSIxNCIgbGVuZ3RoQWRqdXN0PSJzcGFjaW5nIiB0ZXh0TGVuZ3RoPSI5MSIgeD0iNDAxIiB5PSIyMTEuODc1Ij5DZWxlcnkgV29ya2VyPC90ZXh0Pjxwb2x5Z29uIGZpbGw9IiMxODE4MTgiIHBvaW50cz0iNDM0LjUsNjAuODk4NCw0NDQuNSw2NC44OTg0LDQzNC41LDY4Ljg5ODQsNDM4LjUsNjQuODk4NCIgc3R5bGU9InN0cm9rZTojMTgxODE4O3N0cm9rZS13aWR0aDoxLjA7Ii8+PGxpbmUgc3R5bGU9InN0cm9rZTojMTgxODE4O3N0cm9rZS13aWR0aDoxLjA7IiB4MT0iNTAuNSIgeDI9IjQ0MC41IiB5MT0iNjQuODk4NCIgeTI9IjY0Ljg5ODQiLz48dGV4dCBmaWxsPSIjMDAwMDAwIiBmb250LWZhbWlseT0ic2Fucy1zZXJpZiIgZm9udC1zaXplPSIxMyIgbGVuZ3RoQWRqdXN0PSJzcGFjaW5nIiB0ZXh0TGVuZ3RoPSIzNzIiIHg9IjU3LjUiIHk9IjYxLjI3MzQiPlF1ZXVlIGhlYXZ5IHByb2Nlc3NpbmcgdGFzayAoZS5nLiwgbGFyZ2UgZmlsZSBhbmFseXNpcyk8L3RleHQ+PGxpbmUgc3R5bGU9InN0cm9rZTojMTgxODE4O3N0cm9rZS13aWR0aDoxLjA7IiB4MT0iNDQ2LjUiIHgyPSI0ODguNSIgeTE9IjkyLjgxMjUiIHkyPSI5Mi44MTI1Ii8+PGxpbmUgc3R5bGU9InN0cm9rZTojMTgxODE4O3N0cm9rZS13aWR0aDoxLjA7IiB4MT0iNDg4LjUiIHgyPSI0ODguNSIgeTE9IjkyLjgxMjUiIHkyPSIxMDUuODEyNSIvPjxsaW5lIHN0eWxlPSJzdHJva2U6IzE4MTgxODtzdHJva2Utd2lkdGg6MS4wOyIgeDE9IjQ0Ny41IiB4Mj0iNDg4LjUiIHkxPSIxMDUuODEyNSIgeTI9IjEwNS44MTI1Ii8+PHBvbHlnb24gZmlsbD0iIzE4MTgxOCIgcG9pbnRzPSI0NTcuNSwxMDEuODEyNSw0NDcuNSwxMDUuODEyNSw0NTcuNSwxMDkuODEyNSw0NTMuNSwxMDUuODEyNSIgc3R5bGU9InN0cm9rZTojMTgxODE4O3N0cm9rZS13aWR0aDoxLjA7Ii8+PHRleHQgZmlsbD0iIzAwMDAwMCIgZm9udC1mYW1pbHk9InNhbnMtc2VyaWYiIGZvbnQtc2l6ZT0iMTMiIGxlbmd0aEFkanVzdD0ic3BhY2luZyIgdGV4dExlbmd0aD0iMTg3IiB4PSI0NTMuNSIgeT0iODkuMTg3NSI+UHJvY2VzcyB0YXNrIGFzeW5jaHJvbm91c2x5PC90ZXh0Pjxwb2x5Z29uIGZpbGw9IiMxODE4MTgiIHBvaW50cz0iNjEuNSwxMjkuNzI2Niw1MS41LDEzMy43MjY2LDYxLjUsMTM3LjcyNjYsNTcuNSwxMzMuNzI2NiIgc3R5bGU9InN0cm9rZTojMTgxODE4O3N0cm9rZS13aWR0aDoxLjA7Ii8+PGxpbmUgc3R5bGU9InN0cm9rZTojMTgxODE4O3N0cm9rZS13aWR0aDoxLjA7c3Ryb2tlLWRhc2hhcnJheToyLjAsMi4wOyIgeDE9IjU1LjUiIHgyPSI0NDUuNSIgeTE9IjEzMy43MjY2IiB5Mj0iMTMzLjcyNjYiLz48dGV4dCBmaWxsPSIjMDAwMDAwIiBmb250LWZhbWlseT0ic2Fucy1zZXJpZiIgZm9udC1zaXplPSIxMyIgbGVuZ3RoQWRqdXN0PSJzcGFjaW5nIiB0ZXh0TGVuZ3RoPSIxOTUiIHg9IjY3LjUiIHk9IjEzMC4xMDE2Ij5SZXR1cm4gdGFzayBjb21wbGV0aW9uIHN0YXR1czwvdGV4dD48bGluZSBzdHlsZT0ic3Ryb2tlOiMxODE4MTg7c3Ryb2tlLXdpZHRoOjEuMDsiIHgxPSI1MC41IiB4Mj0iOTIuNSIgeTE9IjE2MS42NDA2IiB5Mj0iMTYxLjY0MDYiLz48bGluZSBzdHlsZT0ic3Ryb2tlOiMxODE4MTg7c3Ryb2tlLXdpZHRoOjEuMDsiIHgxPSI5Mi41IiB4Mj0iOTIuNSIgeTE9IjE2MS42NDA2IiB5Mj0iMTc0LjY0MDYiLz48bGluZSBzdHlsZT0ic3Ryb2tlOiMxODE4MTg7c3Ryb2tlLXdpZHRoOjEuMDsiIHgxPSI1MS41IiB4Mj0iOTIuNSIgeTE9IjE3NC42NDA2IiB5Mj0iMTc0LjY0MDYiLz48cG9seWdvbiBmaWxsPSIjMTgxODE4IiBwb2ludHM9IjYxLjUsMTcwLjY0MDYsNTEuNSwxNzQuNjQwNiw2MS41LDE3OC42NDA2LDU3LjUsMTc0LjY0MDYiIHN0eWxlPSJzdHJva2U6IzE4MTgxODtzdHJva2Utd2lkdGg6MS4wOyIvPjx0ZXh0IGZpbGw9IiMwMDAwMDAiIGZvbnQtZmFtaWx5PSJzYW5zLXNlcmlmIiBmb250LXNpemU9IjEzIiBsZW5ndGhBZGp1c3Q9InNwYWNpbmciIHRleHRMZW5ndGg9IjE4OSIgeD0iNTcuNSIgeT0iMTU4LjAxNTYiPlVwZGF0ZSB0YXNrIHN0YXR1cyBpbiBzeXN0ZW08L3RleHQ+PCEtLVNSQz1bSlN4MTJpOG0zMFJXLXZ1WXhBSVdVdTBUMUR0OXNuSGF2ejM1aFFuaEl2Q0FWTmxob2kxSjBsZC05MXczUUFLek1lN3dYY2VYRXlBcmx6VTBfQWtMX21TVDZHZTkxWFNNMlhsZlhnaEEzQ3dOdEJSbVkxRzlQaTlGMFgtUzhjUGo5bjNhMUd4S0pDcTkzOFE5dUFxRDBMZXFZSktWZ3N4T0RfR2JMSUI4b1FldkVFaVljeElmcEZBejVmdWFDVFoyYjVrejhUN0UwV2pBdkZzYkpSeHlZNDk1Ylo3ZTMxQ0JoTHkwXS0tPjwvZz48L3N2Zz4=;" vertex="1" parent="1">
            <mxGeometry x="-996" y="6667" width="927.56" height="324" as="geometry" />
          </mxCell>
        </UserObject>
        <mxCell id="Ga83Rux7IgtjKA9Vw9Vb-36" value="15. System Monitoring &amp;amp; Logging Flow" style="text;html=1;align=center;verticalAlign=middle;resizable=0;points=[];autosize=1;strokeColor=none;fillColor=none;fontSize=16;" vertex="1" parent="1">
          <mxGeometry x="-1033" y="7053" width="292" height="31" as="geometry" />
        </mxCell>
        <UserObject label="" plantUmlData="{&#xa;  &quot;data&quot;: &quot;@startuml\nparticipant \&quot;Microservices\&quot; as MS\nparticipant \&quot;Logging Service\&quot; as LS\nparticipant \&quot;Monitoring Dashboard\&quot; as MD\n\nMS -&gt; LS: Send log data and events\nLS -&gt; MD: Forward processed logs for monitoring\nMD -&gt; MS: Trigger alerts/notifications if anomalies detected\n@enduml\n&quot;,&#xa;  &quot;format&quot;: &quot;svg&quot;&#xa;}" id="Ga83Rux7IgtjKA9Vw9Vb-37">
          <mxCell style="shape=image;noLabel=1;verticalAlign=top;aspect=fixed;imageAspect=0;image=data:image/svg+xml,PD94bWwgdmVyc2lvbj0iMS4wIiBlbmNvZGluZz0idXMtYXNjaWkiIHN0YW5kYWxvbmU9Im5vIj8+PHN2ZyB4bWxucz0iaHR0cDovL3d3dy53My5vcmcvMjAwMC9zdmciIHhtbG5zOnhsaW5rPSJodHRwOi8vd3d3LnczLm9yZy8xOTk5L3hsaW5rIiBjb250ZW50U3R5bGVUeXBlPSJ0ZXh0L2NzcyIgaGVpZ2h0PSIxNzJweCIgcHJlc2VydmVBc3BlY3RSYXRpbz0ibm9uZSIgc3R5bGU9IndpZHRoOjYwNXB4O2hlaWdodDoxNzJweDtiYWNrZ3JvdW5kOiNGRkZGRkY7IiB2ZXJzaW9uPSIxLjEiIHZpZXdCb3g9IjAgMCA2MDUgMTcyIiB3aWR0aD0iNjA1cHgiIHpvb21BbmRQYW49Im1hZ25pZnkiPjxkZWZzLz48Zz48bGluZSBzdHlsZT0ic3Ryb2tlOiMxODE4MTg7c3Ryb2tlLXdpZHRoOjAuNTtzdHJva2UtZGFzaGFycmF5OjUuMCw1LjA7IiB4MT0iNTciIHgyPSI1NyIgeTE9IjM0Ljk4NDQiIHkyPSIxMzguNzI2NiIvPjxsaW5lIHN0eWxlPSJzdHJva2U6IzE4MTgxODtzdHJva2Utd2lkdGg6MC41O3N0cm9rZS1kYXNoYXJyYXk6NS4wLDUuMDsiIHgxPSIyNDYiIHgyPSIyNDYiIHkxPSIzNC45ODQ0IiB5Mj0iMTM4LjcyNjYiLz48bGluZSBzdHlsZT0ic3Ryb2tlOiMxODE4MTg7c3Ryb2tlLXdpZHRoOjAuNTtzdHJva2UtZGFzaGFycmF5OjUuMCw1LjA7IiB4MT0iNTIyLjUiIHgyPSI1MjIuNSIgeTE9IjM0Ljk4NDQiIHkyPSIxMzguNzI2NiIvPjxyZWN0IGZpbGw9IiNFMkUyRjAiIGhlaWdodD0iMjguOTg0NCIgcng9IjIuNSIgcnk9IjIuNSIgc3R5bGU9InN0cm9rZTojMTgxODE4O3N0cm9rZS13aWR0aDowLjU7IiB3aWR0aD0iMTA1IiB4PSI1IiB5PSI1Ii8+PHRleHQgZmlsbD0iIzAwMDAwMCIgZm9udC1mYW1pbHk9InNhbnMtc2VyaWYiIGZvbnQtc2l6ZT0iMTQiIGxlbmd0aEFkanVzdD0ic3BhY2luZyIgdGV4dExlbmd0aD0iOTEiIHg9IjEyIiB5PSIyNS4yMzQ0Ij5NaWNyb3NlcnZpY2VzPC90ZXh0PjxyZWN0IGZpbGw9IiNFMkUyRjAiIGhlaWdodD0iMjguOTg0NCIgcng9IjIuNSIgcnk9IjIuNSIgc3R5bGU9InN0cm9rZTojMTgxODE4O3N0cm9rZS13aWR0aDowLjU7IiB3aWR0aD0iMTA1IiB4PSI1IiB5PSIxMzcuNzI2NiIvPjx0ZXh0IGZpbGw9IiMwMDAwMDAiIGZvbnQtZmFtaWx5PSJzYW5zLXNlcmlmIiBmb250LXNpemU9IjE0IiBsZW5ndGhBZGp1c3Q9InNwYWNpbmciIHRleHRMZW5ndGg9IjkxIiB4PSIxMiIgeT0iMTU3Ljk2MDkiPk1pY3Jvc2VydmljZXM8L3RleHQ+PHJlY3QgZmlsbD0iI0UyRTJGMCIgaGVpZ2h0PSIyOC45ODQ0IiByeD0iMi41IiByeT0iMi41IiBzdHlsZT0ic3Ryb2tlOiMxODE4MTg7c3Ryb2tlLXdpZHRoOjAuNTsiIHdpZHRoPSIxMTkiIHg9IjE4NyIgeT0iNSIvPjx0ZXh0IGZpbGw9IiMwMDAwMDAiIGZvbnQtZmFtaWx5PSJzYW5zLXNlcmlmIiBmb250LXNpemU9IjE0IiBsZW5ndGhBZGp1c3Q9InNwYWNpbmciIHRleHRMZW5ndGg9IjEwNSIgeD0iMTk0IiB5PSIyNS4yMzQ0Ij5Mb2dnaW5nIFNlcnZpY2U8L3RleHQ+PHJlY3QgZmlsbD0iI0UyRTJGMCIgaGVpZ2h0PSIyOC45ODQ0IiByeD0iMi41IiByeT0iMi41IiBzdHlsZT0ic3Ryb2tlOiMxODE4MTg7c3Ryb2tlLXdpZHRoOjAuNTsiIHdpZHRoPSIxMTkiIHg9IjE4NyIgeT0iMTM3LjcyNjYiLz48dGV4dCBmaWxsPSIjMDAwMDAwIiBmb250LWZhbWlseT0ic2Fucy1zZXJpZiIgZm9udC1zaXplPSIxNCIgbGVuZ3RoQWRqdXN0PSJzcGFjaW5nIiB0ZXh0TGVuZ3RoPSIxMDUiIHg9IjE5NCIgeT0iMTU3Ljk2MDkiPkxvZ2dpbmcgU2VydmljZTwvdGV4dD48cmVjdCBmaWxsPSIjRTJFMkYwIiBoZWlnaHQ9IjI4Ljk4NDQiIHJ4PSIyLjUiIHJ5PSIyLjUiIHN0eWxlPSJzdHJva2U6IzE4MTgxODtzdHJva2Utd2lkdGg6MC41OyIgd2lkdGg9IjE1NCIgeD0iNDQ1LjUiIHk9IjUiLz48dGV4dCBmaWxsPSIjMDAwMDAwIiBmb250LWZhbWlseT0ic2Fucy1zZXJpZiIgZm9udC1zaXplPSIxNCIgbGVuZ3RoQWRqdXN0PSJzcGFjaW5nIiB0ZXh0TGVuZ3RoPSIxNDAiIHg9IjQ1Mi41IiB5PSIyNS4yMzQ0Ij5Nb25pdG9yaW5nIERhc2hib2FyZDwvdGV4dD48cmVjdCBmaWxsPSIjRTJFMkYwIiBoZWlnaHQ9IjI4Ljk4NDQiIHJ4PSIyLjUiIHJ5PSIyLjUiIHN0eWxlPSJzdHJva2U6IzE4MTgxODtzdHJva2Utd2lkdGg6MC41OyIgd2lkdGg9IjE1NCIgeD0iNDQ1LjUiIHk9IjEzNy43MjY2Ii8+PHRleHQgZmlsbD0iIzAwMDAwMCIgZm9udC1mYW1pbHk9InNhbnMtc2VyaWYiIGZvbnQtc2l6ZT0iMTQiIGxlbmd0aEFkanVzdD0ic3BhY2luZyIgdGV4dExlbmd0aD0iMTQwIiB4PSI0NTIuNSIgeT0iMTU3Ljk2MDkiPk1vbml0b3JpbmcgRGFzaGJvYXJkPC90ZXh0Pjxwb2x5Z29uIGZpbGw9IiMxODE4MTgiIHBvaW50cz0iMjM0LjUsNjAuODk4NCwyNDQuNSw2NC44OTg0LDIzNC41LDY4Ljg5ODQsMjM4LjUsNjQuODk4NCIgc3R5bGU9InN0cm9rZTojMTgxODE4O3N0cm9rZS13aWR0aDoxLjA7Ii8+PGxpbmUgc3R5bGU9InN0cm9rZTojMTgxODE4O3N0cm9rZS13aWR0aDoxLjA7IiB4MT0iNTcuNSIgeDI9IjI0MC41IiB5MT0iNjQuODk4NCIgeTI9IjY0Ljg5ODQiLz48dGV4dCBmaWxsPSIjMDAwMDAwIiBmb250LWZhbWlseT0ic2Fucy1zZXJpZiIgZm9udC1zaXplPSIxMyIgbGVuZ3RoQWRqdXN0PSJzcGFjaW5nIiB0ZXh0TGVuZ3RoPSIxNjUiIHg9IjY0LjUiIHk9IjYxLjI3MzQiPlNlbmQgbG9nIGRhdGEgYW5kIGV2ZW50czwvdGV4dD48cG9seWdvbiBmaWxsPSIjMTgxODE4IiBwb2ludHM9IjUxMC41LDg4LjgxMjUsNTIwLjUsOTIuODEyNSw1MTAuNSw5Ni44MTI1LDUxNC41LDkyLjgxMjUiIHN0eWxlPSJzdHJva2U6IzE4MTgxODtzdHJva2Utd2lkdGg6MS4wOyIvPjxsaW5lIHN0eWxlPSJzdHJva2U6IzE4MTgxODtzdHJva2Utd2lkdGg6MS4wOyIgeDE9IjI0Ni41IiB4Mj0iNTE2LjUiIHkxPSI5Mi44MTI1IiB5Mj0iOTIuODEyNSIvPjx0ZXh0IGZpbGw9IiMwMDAwMDAiIGZvbnQtZmFtaWx5PSJzYW5zLXNlcmlmIiBmb250LXNpemU9IjEzIiBsZW5ndGhBZGp1c3Q9InNwYWNpbmciIHRleHRMZW5ndGg9IjI1MiIgeD0iMjUzLjUiIHk9Ijg5LjE4NzUiPkZvcndhcmQgcHJvY2Vzc2VkIGxvZ3MgZm9yIG1vbml0b3Jpbmc8L3RleHQ+PHBvbHlnb24gZmlsbD0iIzE4MTgxOCIgcG9pbnRzPSI2OC41LDExNi43MjY2LDU4LjUsMTIwLjcyNjYsNjguNSwxMjQuNzI2Niw2NC41LDEyMC43MjY2IiBzdHlsZT0ic3Ryb2tlOiMxODE4MTg7c3Ryb2tlLXdpZHRoOjEuMDsiLz48bGluZSBzdHlsZT0ic3Ryb2tlOiMxODE4MTg7c3Ryb2tlLXdpZHRoOjEuMDsiIHgxPSI2Mi41IiB4Mj0iNTIxLjUiIHkxPSIxMjAuNzI2NiIgeTI9IjEyMC43MjY2Ii8+PHRleHQgZmlsbD0iIzAwMDAwMCIgZm9udC1mYW1pbHk9InNhbnMtc2VyaWYiIGZvbnQtc2l6ZT0iMTMiIGxlbmd0aEFkanVzdD0ic3BhY2luZyIgdGV4dExlbmd0aD0iMzMzIiB4PSI3NC41IiB5PSIxMTcuMTAxNiI+VHJpZ2dlciBhbGVydHMvbm90aWZpY2F0aW9ucyBpZiBhbm9tYWxpZXMgZGV0ZWN0ZWQ8L3RleHQ+PCEtLVNSQz1bTlN1bjNpOG0zME5HRlFVbXMxNXgxd1FBZ1BkQTFLcFkxYWpqTkRiTWtKd1hiSDFZakZKLV9ydkhkSEVsTTFyRWFQRUFhTXdTbzR3MDFkNEN3d3lPZjFJazFTTzN4TVJ1Q3I0Z2stWTd6TVpGWHczY2V3bUY4T3ZtbGhQOHJvZmdYYmFBUDdHNFIwVGpMRHQyaTlGT1R0MEpWUkttaDJoajhRRlQ2cW9ZaTduN0drbnR0b2hsb2dNRzBpd2FSZlNncFhDZFQ5UGdtNUNSYUdMZDllRENKaWFmbG00MF0tLT48L2c+PC9zdmc+;" vertex="1" parent="1">
            <mxGeometry x="-984" y="7115" width="970.81" height="276" as="geometry" />
          </mxCell>
        </UserObject>
      </root>
    </mxGraphModel>
  </diagram>
</mxfile>
